<?xml version="1.0" encoding="utf-8"?>
<!-- Generator: Adobe Illustrator 27.9.0, SVG Export Plug-In . SVG Version: 6.00 Build 0)  -->
<svg version="1.1" id="Layer_1"
	xmlns="http://www.w3.org/2000/svg"
	xmlns:xlink="http://www.w3.org/1999/xlink" x="0px" y="0px" viewBox="0 0 50 50" style="enable-background:new 0 0 50 50;" xml:space="preserve">
	<path d="M13.46,28.81c-0.07,0-0.15,0.01-0.22,0c-1.59-0.23-2.8,0.49-3.9,1.52c-0.53,0.5-1.06,1-1.61,1.46
	c-0.3,0.25-0.65,0.48-1.01,0.62c-0.91,0.34-1.87-0.2-1.91-1.15c-0.03-0.75-0.33-1.22-0.92-1.59c-0.68-0.43-0.83-1.06-0.6-1.8
	c0.04-0.14,0.1-0.27,0.13-0.42c0.12-0.56,0.09-1.08-0.33-1.53c-0.12-0.13-0.23-0.28-0.32-0.44c-0.41-0.68-0.35-1.44,0.25-1.97
	c0.45-0.39,0.71-0.8,0.63-1.4c-0.02-0.17,0.04-0.36,0.1-0.53c0.26-0.73,0.77-1.03,1.53-0.87c0.65,0.14,1.22,0.46,1.74,0.87
	c0.6,0.47,1.18,0.97,1.79,1.42c0.46,0.34,0.95,0.66,1.45,0.95c0.45,0.26,0.94,0.38,1.46,0.33c0.24-0.03,0.61-0.03,0.69-0.17
	c0.17-0.32-0.24-0.36-0.41-0.5c-0.8-0.63-0.95-1.21-0.45-2.07c0.22-0.38,0.38-0.76,0.48-1.2c0.17-0.78,0.7-1.14,1.52-1.05
	c1.18,0.12,2.27,0.48,3.07,1.44c0.21,0.25,0.43,0.5,0.64,0.74c0.34,0.39,0.42,0.4,0.79,0.12c0.11-0.09,0.22-0.19,0.33-0.28
	c0.27-0.23,0.3-0.46,0.06-0.74c-0.57-0.67-0.51-1.42-0.12-2.13c0.18-0.33,0.48-0.66,0.81-0.84c0.92-0.5,1.44-1.27,1.83-2.2
	c0.74-1.76,0.85-1.83,2.72-1.91c0.6-0.03,1.05-0.22,1.38-0.71c0.08-0.12,0.17-0.23,0.25-0.35c0.64-0.97,1.57-1.32,2.64-0.98
	c0.93,0.3,1.49,0.1,1.95-0.76c0.35-0.63,0.95-0.73,1.6-0.4c0.29,0.15,0.54,0.36,0.79,0.57c0.25,0.21,0.47,0.45,0.71,0.68
	c0.39,0.37,0.83,0.58,1.38,0.36c0.1-0.04,0.21-0.06,0.32-0.08c0.8-0.15,1.13-0.01,1.46,0.75c0.19,0.43,0.29,0.89,0.4,1.35
	c0.05,0.21,0.04,0.43,0.04,0.65c0.02,0.57,0.04,1.15,0.06,1.72c0.53,0.22,1.07,0.43,1.59,0.68c2.31,1.08,4.46,2.43,6.35,4.15
	c0.88,0.8,1.71,1.68,2.49,2.58c0.56,0.65,0.52,1.14,0.06,1.89c-0.02,0.03-0.04,0.06-0.07,0.08c-0.28,0.26-0.17,0.45,0.04,0.72
	c0.53,0.69,0.35,1.3-0.43,1.65c-0.13,0.06-0.27,0.12-0.41,0.14c-1.12,0.21-2.13,0.67-3.15,1.18c-1.44,0.72-3,1.07-4.55,1.47
	c-1.51,0.39-3.02,0.76-4.54,1.13c-0.39,0.09-0.66,0.28-0.77,0.67c-0.14,0.52-0.3,1.04-0.41,1.57c-0.16,0.74-0.24,1.5-0.43,2.24
	c-0.34,1.34-1.24,2.27-2.35,3.02c-0.46,0.31-0.97,0.5-1.54,0.43c-0.95-0.11-1.72-0.79-1.74-1.8c-0.01-1.25-0.25-2.35-1.04-3.34
	c-0.3-0.38-0.14-0.84,0.2-1.18c0.26-0.25,0.55-0.47,0.81-0.72c0.14-0.13,0.08-0.28-0.1-0.32c-0.24-0.06-0.49-0.13-0.74-0.14
	c-0.92-0.02-1.78-0.28-2.63-0.63c-0.54-0.22-1.07-0.44-1.62-0.64c-0.71-0.27-0.71-0.26-0.84,0.44c-0.08,0.39-0.1,0.8-0.25,1.17
	c-0.36,0.91-0.76,1.8-1.15,2.7c-0.15,0.34-0.44,0.48-0.77,0.53c-1.23,0.18-2.32-0.1-3.12-1.1c-0.49-0.63-0.97-1.25-1.55-1.81
	c-0.72-0.69-0.66-1.25,0.06-1.95c0.5-0.48,1.01-0.94,1.49-1.43c0.13-0.13,0.2-0.37,0.19-0.56c0-0.07-0.29-0.18-0.45-0.19
	c-0.61-0.05-1.23-0.07-1.85-0.1C13.46,28.8,13.46,28.81,13.46,28.81z"/>
</svg>
