<?xml version="1.0" encoding="utf-8"?>
<!-- Generator: Adobe Illustrator 27.9.0, SVG Export Plug-In . SVG Version: 6.00 Build 0)  -->
<svg version="1.1" id="Layer_1" xmlns="http://www.w3.org/2000/svg" xmlns:xlink="http://www.w3.org/1999/xlink" x="0px" y="0px"
	 viewBox="0 0 231 48" style="enable-background:new 0 0 231 48;" xml:space="preserve">
<style type="text/css">
	.st0{fill-rule:evenodd;clip-rule:evenodd;fill:#00A959;}
	.st1{fill:#201E1E;}
	.st2{fill-rule:evenodd;clip-rule:evenodd;fill:#FFFFFF;}
	.st3{fill-rule:evenodd;clip-rule:evenodd;fill:#F7D837;}
	.st4{fill-rule:evenodd;clip-rule:evenodd;fill:#201E1E;}
	.st5{fill:#383535;}
	.st6{fill-rule:evenodd;clip-rule:evenodd;fill:#ED3438;}
	.st7{fill:#FFFFFF;}
	.st8{font-family:'UrbanShadow-SansSerif';}
	.st9{font-size:30.7589px;}
</style>
<g id="Layer_x0020_1">
	<g id="_180098296">
		<path class="st0" d="M19.41,47.8C4.98,41.48-0.98,33.57,0.37,9.75c3.05-0.82,5.08-2.66,6.36-5.24C7.24,3.5,7.19,3.22,8.23,2.7
			c6.75-3.36,15.61-3.36,22.36,0c1.04,0.52,0.99,0.8,1.49,1.81c1.29,2.58,3.31,4.41,6.36,5.24C39.79,33.57,33.83,41.48,19.41,47.8z"
			/>
		<path class="st1" d="M19.33,47.97c-7.25-3.17-12.37-6.75-15.52-12.54c-3.14-5.78-4.3-13.74-3.63-25.68l0.01-0.13l0.13-0.04
			c1.5-0.4,2.74-1.06,3.77-1.92C5.12,6.78,5.94,5.7,6.57,4.43C6.66,4.25,6.73,4.09,6.8,3.95c0.31-0.68,0.44-0.96,1.35-1.42
			C11.55,0.85,15.48,0,19.41,0s7.86,0.85,11.26,2.54c0.91,0.45,1.04,0.73,1.35,1.42c0.06,0.14,0.13,0.29,0.23,0.48
			c0.63,1.27,1.44,2.35,2.47,3.22c1.03,0.87,2.27,1.52,3.77,1.92l0.13,0.04l0.01,0.13c0.68,11.94-0.48,19.91-3.63,25.68
			c-3.15,5.79-8.27,9.37-15.52,12.54L19.41,48L19.33,47.97z M4.14,35.25c3.09,5.68,8.13,9.21,15.27,12.34
			c7.14-3.13,12.18-6.66,15.27-12.34c3.1-5.69,4.25-13.56,3.59-25.36c-1.49-0.42-2.74-1.09-3.79-1.96c-1.07-0.9-1.91-2.02-2.57-3.34
			c-0.09-0.18-0.16-0.34-0.23-0.49c-0.28-0.6-0.39-0.85-1.18-1.24c-3.35-1.67-7.22-2.5-11.1-2.5c-3.88,0-7.75,0.83-11.1,2.5
			c-0.79,0.39-0.9,0.64-1.18,1.24C7.07,4.25,6.99,4.42,6.9,4.6C6.25,5.91,5.4,7.03,4.33,7.93C3.3,8.81,2.04,9.47,0.55,9.89
			C-0.11,21.69,1.04,29.56,4.14,35.25z"/>
		<g>
			<g>
				<path class="st2" d="M14.48,18.28c-0.67-0.46-1.64-0.33-2.05,0.2c-0.61,0.79,0.57,1.42,0.68,1.11
					C13.34,19.02,13.93,18.49,14.48,18.28L14.48,18.28z"/>
				<path class="st1" d="M14.21,18.26c-0.26-0.12-0.55-0.16-0.82-0.14c-0.35,0.03-0.67,0.18-0.86,0.42c-0.2,0.26-0.17,0.5-0.06,0.67
					c0.06,0.09,0.14,0.16,0.23,0.22c0.08,0.05,0.17,0.09,0.24,0.1c0.04,0.01,0.06,0.01,0.06,0c0.11-0.3,0.32-0.58,0.57-0.82l0,0
					C13.77,18.54,13.99,18.38,14.21,18.26z M13.37,17.88c0.4-0.04,0.83,0.05,1.19,0.29l0.2,0.13l-0.22,0.08
					c-0.27,0.1-0.55,0.28-0.78,0.51c-0.22,0.21-0.41,0.47-0.51,0.73c-0.05,0.13-0.18,0.18-0.33,0.15c-0.1-0.01-0.22-0.06-0.34-0.14
					c-0.11-0.07-0.22-0.17-0.3-0.29c-0.17-0.25-0.21-0.59,0.07-0.96C12.57,18.1,12.96,17.92,13.37,17.88L13.37,17.88z"/>
				<path class="st2" d="M13.07,19.64c-0.87-0.09-1.84,0.27-1.98,0.98c-0.21,1.02,0.93,1.35,1,0.86
					C12.2,20.66,12.57,20.13,13.07,19.64L13.07,19.64z"/>
				<path class="st1" d="M12.79,19.74c-0.35,0-0.7,0.08-0.99,0.21c-0.31,0.15-0.54,0.38-0.6,0.68c-0.08,0.4,0.07,0.68,0.27,0.83
					c0.06,0.05,0.13,0.08,0.2,0.1c0.06,0.02,0.12,0.02,0.17,0.01c0.06-0.01,0.11-0.05,0.12-0.11c0.06-0.43,0.18-0.78,0.36-1.09
					C12.46,20.14,12.61,19.94,12.79,19.74z M11.7,19.74c0.4-0.2,0.91-0.28,1.39-0.23l0.26,0.03l-0.19,0.18
					c-0.24,0.24-0.45,0.48-0.62,0.77c-0.16,0.28-0.28,0.61-0.33,1c-0.03,0.18-0.15,0.29-0.32,0.32c-0.09,0.02-0.18,0.01-0.28-0.02
					c-0.09-0.03-0.19-0.07-0.28-0.14c-0.27-0.19-0.47-0.56-0.37-1.07C11.04,20.21,11.32,19.93,11.7,19.74L11.7,19.74z"/>
				<path class="st2" d="M12.12,21.68c-0.87-0.09-1.75,0.65-1.9,1.36c-0.15,0.75,0.58,0.99,1.02,0.87
					C11.78,23.77,11.76,22.23,12.12,21.68z"/>
				<path class="st1" d="M11.92,21.8c-0.32,0.01-0.64,0.14-0.91,0.33c-0.34,0.25-0.6,0.6-0.67,0.94c-0.03,0.13-0.02,0.24,0,0.33
					c0.03,0.11,0.1,0.2,0.18,0.27c0.09,0.07,0.2,0.11,0.31,0.14c0.13,0.03,0.27,0.02,0.38-0.01c0.24-0.06,0.36-0.61,0.47-1.14
					C11.75,22.35,11.82,22.04,11.92,21.8L11.92,21.8z M10.87,21.93c0.36-0.26,0.81-0.42,1.26-0.37l0.2,0.02l-0.11,0.17
					c-0.13,0.21-0.21,0.58-0.3,0.96c-0.13,0.61-0.26,1.22-0.65,1.33c-0.15,0.04-0.32,0.04-0.49,0.01c-0.15-0.03-0.29-0.09-0.42-0.18
					c-0.13-0.1-0.22-0.23-0.27-0.4c-0.03-0.13-0.04-0.27,0-0.44C10.18,22.62,10.48,22.21,10.87,21.93z"/>
				<path class="st2" d="M11.86,23.67c-0.85,0.21-1.43,1.28-1.33,2.05c0.11,0.81,0.88,0.79,1.26,0.51
					C12.24,25.89,11.71,24.35,11.86,23.67L11.86,23.67z"/>
				<path class="st1" d="M11.71,23.85c-0.3,0.13-0.56,0.37-0.74,0.66c-0.24,0.37-0.37,0.82-0.32,1.2c0.02,0.16,0.07,0.28,0.13,0.36
					c0.07,0.09,0.15,0.15,0.25,0.18l0,0c0.1,0.03,0.21,0.04,0.31,0.03c0.14-0.02,0.27-0.07,0.37-0.14c0.21-0.15,0.14-0.74,0.07-1.32
					C11.73,24.46,11.69,24.12,11.71,23.85L11.71,23.85z M10.76,24.37c0.25-0.39,0.63-0.71,1.07-0.82l0.19-0.05l-0.04,0.19
					c-0.06,0.26-0.01,0.67,0.05,1.08c0.08,0.65,0.16,1.31-0.17,1.55c-0.13,0.1-0.3,0.16-0.48,0.19c-0.14,0.02-0.29,0.01-0.43-0.04
					l0,0c-0.14-0.05-0.27-0.14-0.37-0.27c-0.09-0.12-0.15-0.28-0.18-0.48C10.35,25.3,10.49,24.79,10.76,24.37L10.76,24.37z"/>
				<path class="st2" d="M12.07,25.83c-0.56,0.4-0.89,1.62-0.6,2.36c0.3,0.76,1.09,0.47,1.36,0.08
					C13.15,27.82,12.15,26.53,12.07,25.83L12.07,25.83z"/>
				<path class="st1" d="M11.99,26.07c-0.19,0.21-0.34,0.52-0.43,0.86c-0.11,0.42-0.11,0.88,0.02,1.22
					c0.06,0.15,0.14,0.25,0.23,0.32l0,0c0.08,0.05,0.16,0.08,0.25,0.08c0.09,0,0.19-0.01,0.28-0.05c0.16-0.06,0.3-0.17,0.39-0.29
					c0.15-0.21-0.11-0.75-0.36-1.28C12.21,26.63,12.07,26.33,11.99,26.07L11.99,26.07z M11.32,26.87c0.12-0.48,0.36-0.92,0.67-1.14
					l0.17-0.12l0.02,0.21c0.03,0.26,0.21,0.63,0.39,1.01c0.29,0.59,0.58,1.19,0.34,1.52c-0.11,0.15-0.29,0.3-0.5,0.38
					c-0.12,0.05-0.25,0.07-0.38,0.07c-0.13-0.01-0.26-0.04-0.38-0.13l0,0c-0.13-0.09-0.24-0.23-0.32-0.43
					C11.2,27.85,11.21,27.34,11.32,26.87L11.32,26.87z"/>
				<path class="st2" d="M13.08,27.91c-0.47,0.8-0.46,1.98-0.06,2.62c0.57,0.93,1.37,0.54,1.43-0.12
					C14.5,29.84,13.31,28.57,13.08,27.91z"/>
				<path class="st1" d="M13.07,28.19c-0.14,0.32-0.22,0.69-0.23,1.05c-0.01,0.47,0.09,0.91,0.28,1.22
					c0.15,0.24,0.31,0.38,0.46,0.45c0.11,0.05,0.22,0.05,0.32,0.03c0.1-0.02,0.19-0.08,0.26-0.15c0.09-0.1,0.15-0.24,0.17-0.39
					c0.03-0.29-0.35-0.85-0.72-1.38C13.4,28.73,13.2,28.44,13.07,28.19L13.07,28.19z M12.6,29.24c0.01-0.48,0.13-0.99,0.37-1.39
					l0.14-0.23l0.09,0.25c0.09,0.26,0.35,0.63,0.61,1.02c0.39,0.57,0.8,1.16,0.76,1.54c-0.02,0.21-0.1,0.4-0.23,0.53
					c-0.1,0.11-0.24,0.19-0.38,0.23c-0.15,0.04-0.31,0.03-0.47-0.05c-0.2-0.09-0.4-0.26-0.57-0.54
					C12.7,30.24,12.59,29.75,12.6,29.24L12.6,29.24z"/>
				<path class="st2" d="M14.73,30.02c-0.51,0.86-0.49,2.12-0.07,2.82c0.61,1,1.48,0.58,1.54-0.13
					C16.26,32.1,14.98,30.73,14.73,30.02z"/>
				<path class="st1" d="M14.72,30.31c-0.16,0.35-0.24,0.76-0.25,1.15c-0.01,0.5,0.09,0.98,0.3,1.32c0.16,0.26,0.33,0.41,0.5,0.48
					c0.12,0.05,0.24,0.06,0.35,0.04l0,0c0.11-0.03,0.2-0.09,0.28-0.17c0.1-0.11,0.17-0.26,0.18-0.42c0.03-0.32-0.38-0.91-0.78-1.49
					C15.07,30.89,14.86,30.58,14.72,30.31L14.72,30.31z M14.22,31.45c0.01-0.52,0.14-1.05,0.4-1.49l0.14-0.23l0.09,0.25
					c0.1,0.28,0.37,0.68,0.66,1.1c0.42,0.61,0.86,1.24,0.82,1.65c-0.02,0.22-0.11,0.42-0.25,0.57c-0.11,0.12-0.25,0.2-0.41,0.24l0,0
					c-0.16,0.04-0.33,0.03-0.5-0.05c-0.21-0.09-0.43-0.28-0.61-0.58C14.32,32.53,14.21,32,14.22,31.45L14.22,31.45z"/>
				<path class="st2" d="M16.53,31.66c-0.42,0.93-0.25,2.23,0.26,2.89c0.75,0.95,1.58,0.42,1.56-0.31
					C18.34,33.6,16.87,32.35,16.53,31.66z"/>
				<path class="st1" d="M16.55,31.94c-0.13,0.38-0.16,0.81-0.13,1.21c0.05,0.51,0.21,0.99,0.46,1.31c0.19,0.25,0.39,0.38,0.57,0.44
					c0.13,0.04,0.25,0.03,0.36,0c0.11-0.04,0.2-0.11,0.27-0.21c0.09-0.12,0.14-0.28,0.14-0.46c-0.01-0.33-0.5-0.89-0.97-1.43
					C16.99,32.5,16.73,32.2,16.55,31.94L16.55,31.94z M16.19,33.17c-0.05-0.53,0.02-1.09,0.23-1.57l0.11-0.24l0.11,0.24
					c0.13,0.27,0.46,0.65,0.8,1.04c0.5,0.57,1.02,1.17,1.03,1.59c0,0.23-0.06,0.44-0.19,0.61c-0.1,0.13-0.23,0.24-0.39,0.29
					c-0.15,0.06-0.33,0.06-0.52,0.01c-0.23-0.07-0.47-0.23-0.69-0.52C16.41,34.26,16.23,33.73,16.19,33.17L16.19,33.17z"/>
				<path class="st3" d="M24.54,18.28c0.67-0.46,1.64-0.33,2.05,0.2c0.61,0.79-0.57,1.42-0.68,1.11
					C25.68,19.02,25.09,18.49,24.54,18.28L24.54,18.28z"/>
				<path class="st1" d="M24.47,18.17c0.36-0.24,0.79-0.33,1.19-0.29c0.42,0.04,0.8,0.22,1.03,0.52c0.28,0.37,0.24,0.7,0.07,0.96
					c-0.08,0.12-0.19,0.22-0.3,0.29c-0.11,0.08-0.23,0.12-0.34,0.14c-0.16,0.02-0.28-0.03-0.33-0.15c-0.1-0.26-0.28-0.51-0.51-0.73
					c-0.24-0.23-0.52-0.41-0.78-0.51l-0.22-0.08L24.47,18.17L24.47,18.17z M25.63,18.13c-0.27-0.03-0.56,0.02-0.82,0.14
					c0.23,0.12,0.45,0.28,0.64,0.46l0,0c0.25,0.24,0.45,0.52,0.57,0.82c0,0,0.03,0,0.06,0c0.07-0.01,0.15-0.04,0.24-0.1
					c0.09-0.06,0.17-0.13,0.23-0.22c0.11-0.18,0.15-0.41-0.06-0.67C26.3,18.31,25.98,18.16,25.63,18.13z"/>
				<path class="st3" d="M25.95,19.64c0.87-0.09,1.84,0.27,1.98,0.98c0.21,1.02-0.93,1.35-1,0.86
					C26.82,20.66,26.45,20.13,25.95,19.64L25.95,19.64z"/>
				<path class="st1" d="M25.94,19.51c0.48-0.05,0.99,0.03,1.39,0.23c0.37,0.19,0.65,0.47,0.73,0.86c0.1,0.52-0.1,0.88-0.37,1.07
					c-0.09,0.06-0.19,0.11-0.28,0.14c-0.1,0.03-0.2,0.03-0.28,0.02c-0.17-0.03-0.29-0.14-0.32-0.32c-0.05-0.39-0.17-0.72-0.33-1
					c-0.16-0.29-0.37-0.53-0.62-0.77l-0.19-0.18L25.94,19.51L25.94,19.51z M27.21,19.96c-0.28-0.14-0.63-0.21-0.99-0.21
					c0.18,0.19,0.34,0.4,0.47,0.63c0.18,0.31,0.3,0.67,0.36,1.09c0.01,0.06,0.05,0.1,0.12,0.11c0.05,0.01,0.11,0,0.17-0.01
					c0.07-0.02,0.14-0.05,0.2-0.1c0.2-0.14,0.35-0.42,0.27-0.83C27.75,20.34,27.52,20.11,27.21,19.96z"/>
				<path class="st3" d="M26.9,21.68c0.87-0.09,1.75,0.65,1.9,1.36c0.15,0.75-0.58,0.99-1.02,0.87
					C27.24,23.77,27.25,22.23,26.9,21.68z"/>
				<path class="st1" d="M26.89,21.56c0.45-0.05,0.9,0.11,1.26,0.37c0.39,0.28,0.69,0.69,0.77,1.09c0.03,0.17,0.03,0.32,0,0.44
					c-0.05,0.17-0.14,0.3-0.27,0.4c-0.12,0.09-0.27,0.15-0.42,0.18c-0.17,0.03-0.34,0.03-0.49-0.01c-0.39-0.1-0.52-0.72-0.65-1.33
					c-0.08-0.38-0.16-0.76-0.3-0.96l-0.11-0.17L26.89,21.56L26.89,21.56z M28,22.13c-0.27-0.19-0.59-0.32-0.91-0.33
					c0.1,0.24,0.17,0.55,0.24,0.86c0.11,0.53,0.23,1.07,0.47,1.14c0.11,0.03,0.25,0.03,0.38,0.01c0.11-0.02,0.22-0.07,0.31-0.14
					c0.08-0.07,0.15-0.15,0.18-0.27c0.03-0.09,0.03-0.2,0-0.33C28.61,22.73,28.35,22.37,28,22.13L28,22.13z"/>
				<path class="st3" d="M27.16,23.67c0.85,0.21,1.43,1.28,1.33,2.05c-0.11,0.81-0.88,0.79-1.26,0.51
					C26.78,25.89,27.31,24.35,27.16,23.67L27.16,23.67z"/>
				<path class="st1" d="M27.19,23.55c0.44,0.11,0.81,0.43,1.07,0.82c0.27,0.42,0.41,0.93,0.36,1.36c-0.03,0.2-0.09,0.36-0.18,0.48
					c-0.1,0.13-0.23,0.22-0.37,0.27l0,0c-0.14,0.05-0.28,0.06-0.43,0.04c-0.18-0.02-0.35-0.09-0.48-0.19
					c-0.33-0.24-0.25-0.9-0.17-1.55c0.05-0.41,0.1-0.82,0.05-1.08L27,23.5L27.19,23.55L27.19,23.55z M28.05,24.5
					c-0.19-0.29-0.44-0.53-0.74-0.66c0.02,0.28-0.03,0.62-0.07,0.96c-0.07,0.58-0.14,1.17,0.07,1.32c0.1,0.07,0.23,0.12,0.37,0.14
					c0.11,0.01,0.21,0.01,0.31-0.03l0,0c0.1-0.03,0.18-0.09,0.25-0.18c0.06-0.09,0.11-0.21,0.13-0.36
					C28.42,25.32,28.3,24.88,28.05,24.5L28.05,24.5z"/>
				<path class="st3" d="M26.95,25.83c0.56,0.4,0.89,1.62,0.6,2.36c-0.3,0.76-1.09,0.47-1.36,0.08
					C25.87,27.82,26.87,26.53,26.95,25.83L26.95,25.83z"/>
				<path class="st1" d="M27.03,25.73c0.31,0.22,0.55,0.66,0.67,1.14c0.12,0.47,0.13,0.98-0.03,1.37c-0.08,0.2-0.19,0.34-0.32,0.43
					l0,0c-0.12,0.08-0.25,0.12-0.38,0.13c-0.13,0.01-0.26-0.02-0.38-0.07c-0.21-0.08-0.39-0.22-0.5-0.38
					c-0.23-0.33,0.06-0.93,0.34-1.52c0.18-0.37,0.36-0.75,0.39-1.01l0.03-0.21L27.03,25.73L27.03,25.73z M27.45,26.93
					c-0.09-0.34-0.24-0.66-0.43-0.86c-0.08,0.26-0.22,0.56-0.37,0.87c-0.26,0.53-0.52,1.06-0.36,1.28c0.08,0.12,0.23,0.23,0.39,0.29
					c0.09,0.04,0.19,0.05,0.28,0.05c0.09,0,0.17-0.03,0.25-0.08l0,0c0.09-0.06,0.17-0.16,0.23-0.32
					C27.57,27.81,27.56,27.35,27.45,26.93L27.45,26.93z"/>
				<path class="st3" d="M25.94,27.91c0.47,0.8,0.46,1.98,0.06,2.62c-0.57,0.93-1.37,0.54-1.43-0.12
					C24.52,29.84,25.71,28.57,25.94,27.91z"/>
				<path class="st1" d="M26.05,27.85c0.24,0.41,0.36,0.91,0.37,1.39c0.01,0.51-0.1,1-0.31,1.36c-0.18,0.29-0.38,0.46-0.57,0.54
					c-0.16,0.07-0.33,0.08-0.47,0.05c-0.15-0.04-0.28-0.11-0.38-0.23c-0.13-0.14-0.21-0.33-0.23-0.53
					c-0.04-0.38,0.37-0.97,0.76-1.54c0.27-0.38,0.52-0.76,0.61-1.02l0.09-0.25L26.05,27.85L26.05,27.85z M26.18,29.25
					c-0.01-0.36-0.08-0.73-0.23-1.05c-0.13,0.25-0.33,0.54-0.53,0.83c-0.37,0.53-0.75,1.09-0.72,1.38c0.01,0.15,0.08,0.29,0.17,0.39
					c0.07,0.08,0.16,0.13,0.26,0.15c0.1,0.02,0.21,0.01,0.32-0.03c0.15-0.07,0.32-0.21,0.46-0.45
					C26.09,30.16,26.19,29.71,26.18,29.25L26.18,29.25z"/>
				<path class="st3" d="M24.29,30.02c0.51,0.86,0.49,2.12,0.07,2.82c-0.61,1-1.48,0.58-1.54-0.13
					C22.76,32.1,24.04,30.73,24.29,30.02z"/>
				<path class="st1" d="M24.4,29.96c0.26,0.44,0.39,0.97,0.4,1.49c0.01,0.55-0.1,1.08-0.33,1.45c-0.19,0.31-0.4,0.49-0.61,0.58
					c-0.17,0.08-0.35,0.09-0.5,0.05l0,0c-0.16-0.04-0.3-0.12-0.41-0.24c-0.14-0.15-0.23-0.35-0.25-0.57
					c-0.04-0.4,0.4-1.04,0.82-1.65c0.29-0.41,0.56-0.82,0.66-1.1l0.09-0.25L24.4,29.96L24.4,29.96z M24.55,31.46
					c-0.01-0.39-0.09-0.8-0.25-1.15c-0.14,0.27-0.36,0.59-0.58,0.91c-0.39,0.57-0.81,1.17-0.78,1.49c0.01,0.17,0.08,0.32,0.18,0.42
					c0.08,0.08,0.18,0.14,0.28,0.17l0,0c0.11,0.03,0.23,0.02,0.35-0.04c0.17-0.07,0.34-0.23,0.5-0.48
					C24.46,32.44,24.56,31.96,24.55,31.46L24.55,31.46z"/>
				<path class="st3" d="M22.49,31.66c0.42,0.93,0.25,2.23-0.26,2.89c-0.75,0.95-1.58,0.42-1.56-0.31
					C20.68,33.6,22.15,32.35,22.49,31.66z"/>
				<path class="st1" d="M22.6,31.61c0.21,0.48,0.28,1.04,0.23,1.57c-0.05,0.56-0.23,1.09-0.51,1.44c-0.23,0.29-0.47,0.45-0.69,0.52
					c-0.19,0.06-0.36,0.05-0.52-0.01c-0.15-0.06-0.29-0.16-0.39-0.29c-0.12-0.16-0.19-0.38-0.19-0.61c0.01-0.42,0.53-1.01,1.03-1.59
					c0.34-0.39,0.67-0.77,0.8-1.04l0.11-0.24L22.6,31.61L22.6,31.61z M22.59,33.15c0.04-0.41,0-0.83-0.13-1.21
					c-0.18,0.26-0.44,0.56-0.7,0.87c-0.47,0.54-0.96,1.1-0.97,1.43c0,0.17,0.05,0.33,0.14,0.46c0.07,0.1,0.16,0.17,0.27,0.21
					c0.11,0.04,0.23,0.04,0.36,0c0.18-0.05,0.38-0.19,0.57-0.44C22.38,34.15,22.54,33.67,22.59,33.15L22.59,33.15z"/>
				<path class="st4" d="M19.43,32.13c-0.32,1.12-1.1,2-1.06,2.58c0.12,1.69,2.29,1.26,2.28,0.06
					C20.65,33.92,19.69,33.22,19.43,32.13z"/>
				<path class="st3" d="M19.43,32.75c-0.14,0.33-0.31,0.64-0.48,0.96c-0.13,0.24-0.39,0.71-0.37,0.98c0.1,1.4,1.86,1.02,1.86,0.07
					c0-0.04,0-0.08-0.01-0.12c-0.05-0.37-0.32-0.76-0.52-1.07C19.74,33.31,19.56,33.04,19.43,32.75L19.43,32.75z"/>
			</g>
			<g>
				<polygon class="st2" points="24.43,17.2 22.7,18.01 22.67,19.05 12.9,34.44 13.35,34.8 23.14,19.32 24.09,18.92 				"/>
				<path class="st5" d="M24.26,17.41l-1.44,0.67l-0.03,0.97l-0.02,0.06l-9.7,15.29l0.26,0.21l9.72-15.36l0.06-0.05l0.89-0.38
					L24.26,17.41L24.26,17.41z M22.65,17.9l1.73-0.81l0.22-0.1l-0.05,0.24l-0.34,1.72l-0.01,0.06l-0.06,0.03l-0.91,0.39l-9.77,15.45
					l-0.07,0.12l-0.11-0.09l-0.45-0.36l-0.09-0.07l0.06-0.09l9.75-15.36L22.58,18l0-0.08L22.65,17.9z"/>
				<path class="st2" d="M23.41,35.76c0.48-0.59,0.95-1.18,1.43-1.77c0.3-0.37,0.31-0.32,0.79-0.29c0.2,0.01,0.4,0.02,0.59,0.04
					c0.2-0.23,0.24-0.37,0.12-0.59c-0.33-0.13-0.66-0.31-0.95-0.47c-0.46-0.24-0.58-0.48-0.87-0.92c-0.41-0.62-0.83-1.24-1.24-1.87
					c-2-3.25-3.91-6.72-5.91-9.97c-0.69-1.13-1.45-2.29-2.16-3.16c-0.55,1.48,0.64,2.68,1.49,4.05c2.33,3.87,4.66,7.73,7,11.6
					c0.29,0.48,0.22,0.73,0.07,1.28c-0.18,0.63-0.48,1.2-0.86,1.72C22.95,35.65,23.11,35.78,23.41,35.76L23.41,35.76z"/>
				<path class="st5" d="M23.35,35.64l1.39-1.72c0.31-0.38,0.35-0.38,0.76-0.35l0,0c0.04,0,0.09,0.01,0.13,0.01l0.53,0.03
					c0.06-0.08,0.1-0.14,0.11-0.19c0.01-0.05,0-0.11-0.03-0.17c-0.29-0.12-0.56-0.26-0.82-0.4l-0.1-0.05l0,0
					c-0.43-0.23-0.58-0.45-0.82-0.81c-0.03-0.04-0.06-0.09-0.1-0.15l-1.24-1.87l0,0c-1-1.63-1.98-3.31-2.96-4.99
					c-0.98-1.68-1.96-3.36-2.95-4.98c-0.35-0.56-0.71-1.13-1.07-1.67c-0.31-0.46-0.63-0.9-0.93-1.29c-0.27,1.05,0.37,1.98,1.04,2.96
					c0.17,0.25,0.35,0.51,0.51,0.76v0l7,11.6c0.16,0.26,0.22,0.46,0.22,0.68c0,0.21-0.06,0.42-0.14,0.7
					c-0.09,0.33-0.21,0.63-0.36,0.92c-0.14,0.28-0.3,0.54-0.48,0.79c0.02,0.06,0.05,0.11,0.1,0.14l0,0
					C23.19,35.62,23.26,35.64,23.35,35.64L23.35,35.64z M24.94,34.07l-1.43,1.77l-0.03,0.04l-0.05,0c-0.18,0.01-0.32-0.02-0.43-0.1
					l0,0c-0.11-0.08-0.18-0.19-0.21-0.34l-0.01-0.05l0.03-0.04c0.19-0.26,0.35-0.52,0.5-0.8c0.14-0.28,0.26-0.57,0.34-0.88
					c0.08-0.27,0.13-0.46,0.13-0.64c0-0.17-0.05-0.33-0.18-0.55l-6.99-11.6l0,0c-0.16-0.26-0.33-0.51-0.5-0.76
					c-0.75-1.1-1.47-2.14-1-3.4l0.08-0.2l0.14,0.17c0.36,0.44,0.73,0.95,1.09,1.49c0.37,0.54,0.73,1.12,1.08,1.68
					c1,1.63,1.98,3.31,2.96,4.98s1.96,3.36,2.95,4.98l1.24,1.87c0.03,0.04,0.06,0.1,0.1,0.15c0.21,0.33,0.35,0.53,0.72,0.73l0,0
					l0.1,0.05c0.27,0.14,0.55,0.29,0.84,0.4l0.06,0.06c0.08,0.14,0.1,0.26,0.07,0.38c-0.03,0.11-0.09,0.22-0.21,0.35l-0.04,0.05
					l-0.06,0l-0.59-0.04c-0.06,0-0.1-0.01-0.13-0.01l0,0C25.19,33.79,25.16,33.79,24.94,34.07L24.94,34.07z"/>
				<path class="st2" d="M22.51,30.45c0.27-0.17,0.5-0.39,0.77-0.56c0.29-0.2,0.64,0.28,0.33,0.49c-0.27,0.19-0.46,0.39-0.73,0.58
					C22.63,31.06,22.3,30.69,22.51,30.45L22.51,30.45z"/>
				<path class="st5" d="M22.44,30.34c0.13-0.08,0.25-0.18,0.38-0.28c0.13-0.1,0.25-0.19,0.39-0.28l0,0c0.15-0.11,0.32-0.09,0.44,0
					c0.05,0.03,0.09,0.07,0.12,0.12c0.03,0.05,0.06,0.1,0.07,0.16c0.03,0.15-0.01,0.3-0.17,0.41l0,0c-0.13,0.09-0.24,0.19-0.35,0.28
					c-0.12,0.1-0.24,0.2-0.37,0.29l-0.02,0.01c-0.11,0.05-0.22,0.04-0.32-0.01c-0.07-0.03-0.13-0.09-0.18-0.15
					c-0.05-0.06-0.08-0.14-0.1-0.22c-0.02-0.11,0-0.22,0.09-0.32L22.44,30.34L22.44,30.34z M22.97,30.26
					c-0.12,0.09-0.24,0.19-0.38,0.28c-0.02,0.03-0.03,0.07-0.02,0.11c0.01,0.04,0.03,0.08,0.05,0.11c0.03,0.03,0.06,0.06,0.09,0.08
					c0.03,0.02,0.07,0.02,0.1,0.01c0.13-0.09,0.24-0.18,0.34-0.28c0.12-0.1,0.24-0.2,0.37-0.29l0,0c0.06-0.04,0.08-0.1,0.07-0.15
					c-0.01-0.03-0.02-0.05-0.03-0.07c-0.02-0.02-0.04-0.04-0.06-0.06c-0.05-0.03-0.11-0.04-0.16,0l0,0
					C23.22,30.07,23.09,30.17,22.97,30.26L22.97,30.26z"/>
				<path class="st2" d="M22.34,30.62c0.14,0.02,0.27,0.26,0.23,0.41c-0.01,0.04-0.05,0.08-0.1,0.11c-0.06,0.04-0.09,0.07-0.16,0.07
					c-0.23,0-0.36-0.29-0.26-0.45C22.1,30.7,22.28,30.61,22.34,30.62L22.34,30.62z"/>
				<path class="st5" d="M22.36,30.5c0.01,0,0.02,0,0.03,0.01l0,0c0.09,0.03,0.18,0.11,0.24,0.21c0.05,0.09,0.09,0.21,0.07,0.31l0,0
					c0,0.01,0,0.03-0.01,0.04l0,0c-0.01,0.04-0.04,0.08-0.06,0.11c-0.02,0.03-0.05,0.05-0.08,0.07l0,0l-0.01,0
					c-0.07,0.06-0.12,0.09-0.23,0.09c-0.08,0-0.14-0.03-0.2-0.06l0,0c-0.07-0.04-0.12-0.11-0.16-0.18
					c-0.04-0.07-0.06-0.15-0.05-0.22c0-0.06,0.02-0.13,0.05-0.18l0,0c0.03-0.05,0.11-0.1,0.18-0.14S22.3,30.49,22.36,30.5
					L22.36,30.5z M22.33,30.74L22.33,30.74c-0.01,0-0.05,0.01-0.09,0.03c-0.04,0.02-0.08,0.04-0.08,0.05l0,0
					c-0.01,0.01-0.01,0.03-0.01,0.05c0,0.03,0.01,0.07,0.03,0.1c0.02,0.03,0.04,0.06,0.07,0.08l0,0c0.02,0.01,0.05,0.02,0.07,0.02
					c0.03,0,0.05-0.01,0.08-0.04l0.01,0l0,0c0.02-0.01,0.04-0.03,0.05-0.04c0.01-0.01,0.01,0,0.01-0.01l0,0l0-0.01l0,0
					c0.01-0.04-0.01-0.1-0.04-0.15C22.39,30.79,22.35,30.75,22.33,30.74L22.33,30.74L22.33,30.74z"/>
				<path class="st2" d="M22.78,30.98c0.27-0.17,0.5-0.39,0.77-0.56c0.29-0.2,0.64,0.28,0.33,0.49c-0.27,0.19-0.46,0.39-0.73,0.58
					C22.9,31.6,22.58,31.22,22.78,30.98L22.78,30.98z"/>
				<path class="st5" d="M22.71,30.88c0.13-0.08,0.25-0.18,0.38-0.28c0.13-0.1,0.25-0.19,0.39-0.28l0,0c0.15-0.11,0.32-0.09,0.44,0
					c0.05,0.03,0.09,0.07,0.12,0.12c0.03,0.05,0.06,0.1,0.07,0.16c0.03,0.15-0.01,0.3-0.17,0.41l0,0c-0.13,0.09-0.24,0.19-0.35,0.28
					c-0.12,0.1-0.24,0.2-0.37,0.29L23.2,31.6c-0.11,0.05-0.22,0.04-0.32-0.01c-0.07-0.03-0.13-0.09-0.18-0.15
					c-0.05-0.06-0.08-0.14-0.1-0.22c-0.02-0.11,0-0.22,0.09-0.32L22.71,30.88L22.71,30.88z M23.24,30.8
					c-0.12,0.09-0.24,0.19-0.38,0.28c-0.02,0.03-0.03,0.07-0.02,0.11c0.01,0.04,0.03,0.08,0.05,0.11c0.03,0.03,0.06,0.06,0.09,0.08
					c0.03,0.02,0.07,0.02,0.1,0.01c0.13-0.09,0.24-0.18,0.34-0.28c0.12-0.1,0.24-0.2,0.37-0.29l0,0c0.06-0.04,0.08-0.1,0.07-0.15
					c-0.01-0.03-0.02-0.05-0.03-0.07c-0.02-0.02-0.04-0.04-0.06-0.06c-0.05-0.03-0.11-0.04-0.16,0l0,0
					C23.49,30.61,23.36,30.7,23.24,30.8L23.24,30.8z"/>
				<path class="st2" d="M22.61,31.16c0.14,0.02,0.27,0.26,0.23,0.41c-0.01,0.04-0.05,0.08-0.1,0.11c-0.06,0.04-0.09,0.07-0.16,0.07
					c-0.23,0-0.36-0.29-0.26-0.45C22.36,31.23,22.54,31.15,22.61,31.16L22.61,31.16z"/>
				<path class="st5" d="M22.63,31.03c0.01,0,0.02,0,0.03,0.01l0,0c0.09,0.03,0.18,0.11,0.24,0.21c0.05,0.09,0.09,0.21,0.07,0.31
					l0,0c0,0.01,0,0.03-0.01,0.04l0,0c-0.01,0.04-0.04,0.08-0.06,0.11c-0.02,0.03-0.05,0.05-0.08,0.07l0,0l-0.01,0
					c-0.07,0.06-0.12,0.09-0.23,0.09c-0.08,0-0.14-0.03-0.2-0.06l0,0c-0.07-0.04-0.12-0.11-0.16-0.18
					c-0.04-0.07-0.06-0.15-0.05-0.22c0-0.06,0.02-0.13,0.05-0.18l0,0c0.03-0.05,0.11-0.1,0.18-0.14S22.57,31.03,22.63,31.03
					L22.63,31.03z M22.6,31.28L22.6,31.28c-0.01,0-0.05,0.01-0.09,0.03c-0.04,0.02-0.08,0.04-0.08,0.05l0,0
					c-0.01,0.01-0.01,0.03-0.01,0.05c0,0.03,0.01,0.07,0.03,0.1c0.02,0.03,0.04,0.06,0.07,0.08l0,0c0.02,0.01,0.05,0.02,0.07,0.02
					c0.03,0,0.05-0.01,0.08-0.04l0.01,0l0,0c0.02-0.01,0.04-0.03,0.05-0.04c0-0.01,0.01-0.01,0.01-0.01l0,0l0-0.01l0,0
					c0.01-0.04-0.01-0.1-0.04-0.15C22.66,31.32,22.62,31.29,22.6,31.28L22.6,31.28L22.6,31.28z"/>
				<path class="st2" d="M23.16,31.47c0.27-0.17,0.5-0.39,0.77-0.56c0.29-0.2,0.64,0.28,0.33,0.49c-0.27,0.19-0.46,0.39-0.73,0.58
					C23.28,32.09,22.95,31.71,23.16,31.47L23.16,31.47z"/>
				<path class="st5" d="M23.09,31.37c0.13-0.08,0.25-0.18,0.38-0.28c0.13-0.1,0.25-0.19,0.39-0.28l0,0c0.15-0.11,0.32-0.09,0.44,0
					c0.05,0.03,0.09,0.07,0.12,0.12c0.03,0.05,0.06,0.1,0.07,0.16c0.03,0.15-0.01,0.3-0.17,0.41l0,0c-0.13,0.09-0.24,0.19-0.35,0.28
					c-0.12,0.1-0.24,0.2-0.37,0.29l-0.02,0.01c-0.11,0.05-0.22,0.04-0.32-0.01c-0.07-0.03-0.13-0.09-0.18-0.15
					c-0.05-0.06-0.08-0.14-0.1-0.22c-0.02-0.11,0-0.22,0.09-0.32L23.09,31.37L23.09,31.37z M23.62,31.29
					c-0.12,0.09-0.24,0.19-0.38,0.28c-0.02,0.03-0.03,0.07-0.02,0.11c0.01,0.04,0.03,0.08,0.05,0.11c0.03,0.03,0.06,0.06,0.09,0.08
					c0.03,0.02,0.07,0.02,0.1,0.01c0.13-0.09,0.24-0.18,0.34-0.28c0.12-0.1,0.24-0.2,0.37-0.29l0,0c0.06-0.04,0.08-0.1,0.07-0.15
					c-0.01-0.03-0.02-0.05-0.03-0.07c-0.02-0.02-0.04-0.04-0.06-0.06c-0.05-0.03-0.11-0.04-0.16,0l0,0
					C23.87,31.09,23.74,31.19,23.62,31.29L23.62,31.29z"/>
				<path class="st2" d="M22.99,31.64c0.14,0.02,0.27,0.26,0.23,0.41c-0.01,0.04-0.05,0.08-0.1,0.11c-0.06,0.04-0.09,0.07-0.16,0.07
					c-0.23,0-0.36-0.29-0.26-0.45C22.75,31.72,22.93,31.64,22.99,31.64L22.99,31.64z"/>
				<path class="st5" d="M23.01,31.52c0.01,0,0.02,0,0.03,0.01l0,0c0.09,0.03,0.18,0.11,0.24,0.21c0.05,0.09,0.09,0.21,0.07,0.31
					l0,0c0,0.01,0,0.03-0.01,0.04l0,0c-0.01,0.04-0.04,0.08-0.06,0.11c-0.02,0.03-0.05,0.05-0.08,0.07l0,0l-0.01,0
					c-0.07,0.06-0.12,0.09-0.23,0.09c-0.08,0-0.14-0.03-0.2-0.06l0,0c-0.07-0.04-0.12-0.11-0.16-0.18
					c-0.04-0.07-0.06-0.15-0.05-0.22c0-0.06,0.02-0.13,0.05-0.18l0,0c0.03-0.05,0.11-0.1,0.18-0.14S22.95,31.51,23.01,31.52
					L23.01,31.52z M22.98,31.77L22.98,31.77c-0.01,0-0.05,0.01-0.09,0.03c-0.04,0.02-0.08,0.04-0.08,0.05l0,0
					c-0.01,0.01-0.01,0.03-0.01,0.05c0,0.03,0.01,0.07,0.03,0.1c0.02,0.03,0.04,0.06,0.07,0.08l0,0c0.02,0.01,0.05,0.02,0.07,0.02
					c0.03,0,0.05-0.01,0.08-0.04l0.01,0l0,0c0.02-0.01,0.04-0.03,0.05-0.04c0-0.01,0.01-0.01,0.01-0.01l0,0l0-0.01l0,0
					c0.01-0.04-0.01-0.1-0.04-0.15C23.04,31.81,23,31.78,22.98,31.77L22.98,31.77L22.98,31.77z"/>
				<path class="st2" d="M23.48,32.04c0.27-0.17,0.5-0.39,0.77-0.56c0.29-0.2,0.64,0.28,0.33,0.49c-0.27,0.19-0.46,0.39-0.73,0.58
					C23.6,32.66,23.27,32.28,23.48,32.04L23.48,32.04z"/>
				<path class="st5" d="M23.41,31.94c0.13-0.08,0.25-0.18,0.38-0.28c0.13-0.1,0.25-0.19,0.39-0.28l0,0c0.15-0.11,0.32-0.09,0.44,0
					c0.05,0.03,0.09,0.07,0.12,0.12c0.03,0.05,0.06,0.1,0.07,0.16c0.03,0.15-0.01,0.3-0.17,0.41l0,0c-0.13,0.09-0.24,0.19-0.35,0.28
					c-0.12,0.1-0.24,0.2-0.37,0.29l-0.02,0.01c-0.11,0.05-0.22,0.04-0.32-0.01c-0.07-0.03-0.13-0.09-0.18-0.15
					c-0.05-0.06-0.08-0.14-0.1-0.22c-0.02-0.11,0-0.22,0.09-0.32L23.41,31.94L23.41,31.94z M23.94,31.86
					c-0.12,0.09-0.24,0.19-0.38,0.28c-0.02,0.03-0.03,0.07-0.02,0.11s0.03,0.08,0.05,0.11c0.03,0.03,0.06,0.06,0.09,0.08
					c0.03,0.02,0.07,0.02,0.1,0.01c0.13-0.09,0.24-0.18,0.34-0.28c0.12-0.1,0.24-0.2,0.37-0.29l0,0c0.06-0.04,0.08-0.1,0.07-0.15
					c-0.01-0.03-0.02-0.05-0.03-0.07c-0.02-0.02-0.04-0.04-0.06-0.06c-0.05-0.03-0.11-0.04-0.16,0l0,0
					C24.18,31.66,24.06,31.76,23.94,31.86L23.94,31.86z"/>
				<path class="st2" d="M23.31,32.21c0.14,0.02,0.27,0.26,0.23,0.41c-0.01,0.04-0.05,0.08-0.1,0.11c-0.06,0.04-0.09,0.07-0.16,0.07
					c-0.23,0-0.36-0.29-0.26-0.45C23.06,32.29,23.24,32.2,23.31,32.21L23.31,32.21z"/>
				<path class="st5" d="M23.32,32.09c0.01,0,0.02,0,0.03,0.01l0,0c0.09,0.03,0.18,0.11,0.24,0.21c0.05,0.09,0.09,0.21,0.07,0.31
					l0,0c0,0.01,0,0.03-0.01,0.04l0,0c-0.01,0.04-0.04,0.08-0.06,0.11c-0.02,0.03-0.05,0.05-0.08,0.07l0,0l-0.01,0
					c-0.07,0.06-0.12,0.09-0.23,0.09c-0.08,0-0.14-0.03-0.2-0.06l0,0c-0.07-0.04-0.12-0.11-0.16-0.18
					c-0.04-0.07-0.06-0.15-0.05-0.22c0-0.06,0.02-0.13,0.05-0.18l0,0c0.03-0.05,0.11-0.1,0.18-0.14S23.27,32.08,23.32,32.09
					L23.32,32.09z M23.29,32.33L23.29,32.33c-0.01,0-0.05,0.01-0.09,0.03c-0.04,0.02-0.08,0.04-0.08,0.05l0,0
					c-0.01,0.01-0.01,0.03-0.01,0.05c0,0.03,0.01,0.07,0.03,0.1c0.02,0.03,0.04,0.06,0.07,0.08l0,0c0.02,0.01,0.05,0.02,0.07,0.02
					s0.05-0.01,0.08-0.04l0.01,0l0,0c0.02-0.01,0.04-0.03,0.05-0.04c0-0.01,0.01-0.01,0.01-0.01l0,0l0-0.01l0,0
					c0.01-0.04-0.01-0.1-0.04-0.15C23.35,32.38,23.32,32.34,23.29,32.33L23.29,32.33L23.29,32.33z"/>
			</g>
			<g>
				<polygon class="st4" points="19.19,1.43 20.09,4.18 22.99,4.17 20.64,5.87 21.54,8.62 19.19,6.91 16.85,8.62 17.75,5.87 
					15.4,4.17 18.3,4.18 				"/>
				<polygon class="st3" points="19.19,1.88 18.41,4.32 15.83,4.31 17.92,5.81 17.12,8.25 19.19,6.74 21.27,8.25 20.47,5.81 
					22.56,4.31 19.99,4.32 				"/>
			</g>
			<g>
				<g>
					<polygon class="st6" points="19.35,16.6 19.35,31.72 16.18,28.39 16.18,20.08 					"/>
					<polygon class="st3" points="19.35,16.6 19.35,31.72 22.52,28.39 22.52,20.08 					"/>
				</g>
				<path class="st1" d="M22.52,25.55l-0.11,0.08c-0.62,0.45-1.28,0.92-0.99,1.52c0.01,0.03,0.03,0.05,0.04,0.05
					c0.05,0.03,0.13,0.01,0.23-0.04c0.13-0.06,0.27-0.17,0.42-0.3c0.15-0.13,0.29-0.27,0.41-0.4v0.35
					c-0.08,0.08-0.16,0.16-0.24,0.23c-0.16,0.14-0.32,0.26-0.47,0.33c-0.18,0.09-0.34,0.11-0.47,0.03c-0.05-0.04-0.1-0.09-0.14-0.16
					c-0.38-0.78,0.36-1.31,1.06-1.83c0.09-0.06,0.18-0.13,0.26-0.19L22.52,25.55L22.52,25.55z M19.35,31.72l-0.07-0.08
					c-0.09-1.64-0.47-3.27-1.13-4.68c-0.5-1.07-1.16-2.01-1.97-2.73v-0.32c0.92,0.76,1.65,1.78,2.2,2.95
					c0.54,1.17,0.9,2.49,1.07,3.84c0.03,0.28-0.08,0.56-0.06,0.84L19.35,31.72L19.35,31.72z M17.99,30.29l-0.24-0.25l0.01-0.49
					c0-0.37-0.12-0.78-0.23-1.15c-0.06-0.19-0.11-0.37-0.15-0.55c-0.12-0.57-0.51-1.02-0.9-1.45c-0.1-0.11-0.2-0.22-0.29-0.34v-0.4
					c0.14,0.2,0.31,0.38,0.48,0.57c0.41,0.46,0.82,0.93,0.96,1.57c0.03,0.16,0.09,0.34,0.14,0.53c0.12,0.39,0.24,0.81,0.24,1.22
					L17.99,30.29z M17.28,29.54l-0.23-0.24c0.02-0.39-0.08-0.74-0.26-1.05c-0.16-0.28-0.37-0.53-0.62-0.75v-0.33
					c0.33,0.27,0.63,0.59,0.83,0.96C17.24,28.55,17.35,29.01,17.28,29.54z M16.18,20.15v-0.08l0.13-0.14
					c0.25,0.2,0.46,0.49,0.64,0.82c0.4,0.76,0.62,1.77,0.62,2.46c0,0.41,0.15,0.75,0.3,1.07l0,0c0.09,0.21,0.19,0.41,0.25,0.64
					c0.1,0.39,0.64,0.68,1.04,0.89c0.07,0.04,0.14,0.08,0.2,0.11v0.28c-0.07-0.05-0.19-0.11-0.32-0.18
					c-0.44-0.23-1.03-0.55-1.16-1.05c-0.05-0.2-0.14-0.4-0.24-0.6l0,0c-0.16-0.35-0.33-0.71-0.33-1.18c0-0.65-0.2-1.62-0.59-2.34
					C16.56,20.58,16.38,20.33,16.18,20.15L16.18,20.15z M19.61,26.13c0.11-0.23,0.26-0.42,0.42-0.63c0.14-0.19,0.3-0.39,0.45-0.65
					c0.39-0.65,0.44-1.44,0.5-2.22c0.08-1.12,0.15-2.23,1.18-2.94l0.17,0.19c-0.95,0.66-1.02,1.7-1.1,2.77
					c-0.06,0.81-0.11,1.63-0.53,2.33c-0.16,0.27-0.32,0.48-0.47,0.68c-0.35,0.47-0.63,0.83-0.63,1.74c0,0.81,0.36,1.4,0.91,1.81
					c0.24,0.18,0.52,0.32,0.82,0.43l-0.18,0.19c-0.29-0.11-0.55-0.25-0.79-0.43c-0.61-0.45-1.01-1.11-1.01-2.01
					c0-0.51,0.08-0.86,0.2-1.14L19.61,26.13L19.61,26.13z M17.23,18.93l0.17-0.18c0.42,0.37,0.54,1.17,0.67,1.98
					c0.17,1.08,0.34,2.19,1.21,2.19c1.15,0,1.17-1.12,1.19-2.19c0.02-0.95,0.04-1.86,0.77-2.05l0.2,0.21
					c-0.68,0.09-0.7,0.95-0.72,1.84c-0.02,1.18-0.05,2.43-1.44,2.43c-1.08,0-1.27-1.22-1.46-2.4C17.7,19.99,17.58,19.24,17.23,18.93
					z M22.52,21.53v0.33c-0.49,0.48-0.61,1.21-0.74,1.97c-0.08,0.49-0.16,0.99-0.34,1.46c-0.07,0.19-0.14,0.36-0.21,0.52
					c-0.26,0.66-0.48,1.2-0.48,1.6l0,0c0,0.54,0.43,0.87,1.76,0.97l-0.22,0.23c-1.35-0.14-1.79-0.54-1.79-1.2l0,0
					c0-0.45,0.23-1.01,0.5-1.69c0.07-0.17,0.14-0.34,0.2-0.52c0.17-0.44,0.25-0.93,0.33-1.41C21.69,22.9,21.83,22.04,22.52,21.53
					L22.52,21.53z M19.35,19.09c-0.15,0.15-0.25,0.31-0.3,0.48c-0.07,0.2-0.09,0.43-0.09,0.71c0,0.2,0.03,0.35,0.08,0.49
					c0.06,0.14,0.15,0.27,0.27,0.43c0.01,0.02,0.03,0.03,0.04,0.04c0.04,0.03,0.08,0.04,0.12,0.04c0.05-0.01,0.1-0.03,0.14-0.07
					c0.03-0.02,0.05-0.04,0.07-0.07c0.04-0.04,0.06-0.1,0.09-0.16c0.1-0.28,0.08-0.68-0.01-1.06
					C19.66,19.55,19.51,19.22,19.35,19.09L19.35,19.09z M18.81,19.49c0.08-0.23,0.21-0.44,0.44-0.64l0.06-0.05l0.07,0.03
					c0.04,0.02,0.09,0.04,0.13,0.08c0.2,0.16,0.39,0.54,0.49,0.96c0.1,0.42,0.13,0.88,0,1.2c-0.03,0.09-0.08,0.16-0.13,0.23
					c-0.03,0.04-0.06,0.07-0.1,0.1c-0.08,0.06-0.17,0.11-0.26,0.12c-0.1,0.01-0.21-0.01-0.31-0.09c-0.03-0.02-0.05-0.05-0.08-0.08
					c-0.14-0.17-0.24-0.32-0.31-0.49c-0.07-0.17-0.1-0.35-0.1-0.58C18.71,19.97,18.74,19.72,18.81,19.49L18.81,19.49z"/>
				<path class="st1" d="M19.47,31.42l2.93-3.08v-8.21l-2.93-3.2V31.42z M19.23,31.42V16.92l-2.93,3.2v8.21L19.23,31.42z
					 M22.61,28.47l-3.17,3.33l-0.09,0.09l-0.09-0.09l-3.17-3.33l-0.03-0.09v-8.31l0.03-0.08l3.17-3.47l0.09-0.1l0.09,0.1l3.17,3.47
					l0.03,0.08v8.31L22.61,28.47L22.61,28.47z"/>
			</g>
			<g>
				<path class="st3" d="M1.93,17.53c1.4,0.08,2.75,0.06,3.91,0.1c-0.59,1.41-0.89,2.83-1.05,4.24c2.3-1.67,4.6-3.24,7.02-4.04
					c-1.14-1.49-2.2-2.9-3.25-4.31C6.16,14.42,3.87,15.83,1.93,17.53L1.93,17.53z"/>
				<path class="st5" d="M2.24,17.43c0.79,0.04,1.56,0.05,2.29,0.06c0.46,0.01,0.9,0.01,1.31,0.03l0.18,0.01l-0.07,0.16
					c-0.55,1.31-0.84,2.62-1.01,3.93c1.07-0.78,2.15-1.53,3.24-2.19c1.12-0.67,2.26-1.25,3.41-1.65c-0.54-0.71-1.05-1.39-1.55-2.05
					c-0.54-0.72-1.04-1.39-1.54-2.05c-1.15,0.43-2.27,0.99-3.34,1.64C4.13,15.94,3.15,16.65,2.24,17.43L2.24,17.43z M4.52,17.73
					c-0.82-0.01-1.71-0.02-2.6-0.08l-0.08-0.21c0.99-0.87,2.06-1.66,3.2-2.35c1.11-0.67,2.27-1.24,3.47-1.69l0.09-0.03l0.06,0.08
					c0.54,0.72,1.07,1.44,1.59,2.12c0.54,0.72,1.09,1.45,1.66,2.19L12,17.9l-0.16,0.05c-1.2,0.39-2.37,0.99-3.53,1.68
					c-1.16,0.7-2.31,1.51-3.45,2.34l-0.23,0.16l0.03-0.28c0.16-1.37,0.44-2.74,0.99-4.11C5.29,17.74,4.92,17.74,4.52,17.73
					L4.52,17.73z"/>
				<path class="st3" d="M36.88,17.53c-1.4,0.08-2.75,0.06-3.91,0.1c0.59,1.41,0.89,2.83,1.05,4.24c-2.3-1.67-4.6-3.24-7.02-4.04
					c1.14-1.49,2.2-2.9,3.25-4.31C32.66,14.42,34.95,15.83,36.88,17.53L36.88,17.53z"/>
				<path class="st5" d="M36.89,17.66c-0.9,0.05-1.78,0.06-2.6,0.08c-0.39,0-0.77,0.01-1.13,0.02c0.56,1.37,0.84,2.74,0.99,4.11
					l0.03,0.28l-0.23-0.16c-1.15-0.83-2.29-1.64-3.45-2.34c-1.16-0.7-2.33-1.29-3.53-1.68l-0.16-0.05l0.1-0.14
					c0.56-0.74,1.11-1.47,1.66-2.19c0.52-0.69,1.05-1.4,1.59-2.12l0.06-0.08l0.09,0.03c1.19,0.45,2.36,1.02,3.47,1.69
					c1.14,0.69,2.21,1.48,3.2,2.35L36.89,17.66L36.89,17.66z M34.29,17.49c0.73-0.01,1.5-0.02,2.29-0.06
					c-0.91-0.78-1.9-1.49-2.93-2.12c-1.07-0.65-2.19-1.2-3.34-1.64c-0.5,0.66-1,1.33-1.54,2.05c-0.5,0.67-1.01,1.35-1.55,2.05
					c1.16,0.4,2.29,0.97,3.41,1.65c1.09,0.66,2.17,1.41,3.24,2.19c-0.17-1.31-0.46-2.62-1.01-3.93l-0.07-0.16l0.18-0.01
					C33.39,17.5,33.83,17.49,34.29,17.49L34.29,17.49z"/>
				<path class="st3" d="M7.63,12.66c8.17-4,15.87-3.59,23.24-0.16c-0.09,0.25,0.18,0.9,0.09,1.15c-0.06,0.18-0.49-0.04-0.55,0.13
					c-0.44,1.24-0.89,2.47-1.34,3.71c-6.52-2.74-13.2-2.52-19.98-0.64C8.6,15.45,8.12,14.05,7.63,12.66L7.63,12.66z"/>
				<path class="st5" d="M7.61,12.6c4.09-2,8.07-2.9,11.95-2.87c3.88,0.03,7.65,0.99,11.34,2.71l0.05,0.02l-0.02,0.05
					c-0.04,0.11,0,0.33,0.05,0.54c0.05,0.23,0.09,0.47,0.04,0.61c-0.05,0.13-0.19,0.12-0.34,0.11c-0.1-0.01-0.2-0.02-0.21,0.03
					l-1.34,3.71l-0.02,0.06l-0.06-0.03c-3.25-1.37-6.54-2-9.87-2.05c-3.33-0.05-6.69,0.47-10.07,1.41l-0.06,0.01l-0.02-0.05
					l-1.46-4.19l0.06-0.02L7.61,12.6L7.61,12.6z M19.55,9.85c-3.84-0.03-7.78,0.86-11.84,2.84l1.42,4.09
					c3.37-0.93,6.73-1.45,10.05-1.4c3.32,0.05,6.61,0.68,9.86,2.03l1.31-3.65c0.05-0.13,0.19-0.12,0.34-0.11
					c0.1,0.01,0.2,0.02,0.21-0.03c0.04-0.11,0-0.33-0.05-0.54c-0.04-0.2-0.08-0.41-0.05-0.56C27.14,10.83,23.39,9.88,19.55,9.85
					L19.55,9.85z"/>
				<path class="st3" d="M7.26,12.31c0.83,0.93,1.51,0.59,2.53-0.3C8.98,11.05,8.3,11.74,7.26,12.31z"/>
				<path class="st5" d="M7.46,12.34c0.34,0.34,0.65,0.45,0.97,0.38c0.35-0.07,0.73-0.34,1.18-0.73c-0.57-0.6-1.1-0.29-1.8,0.13
					C7.7,12.2,7.58,12.27,7.46,12.34L7.46,12.34z M8.48,12.97c-0.44,0.09-0.86-0.07-1.31-0.57l-0.1-0.11l0.14-0.08
					c0.17-0.09,0.33-0.19,0.48-0.28c0.83-0.5,1.45-0.87,2.2,0.01l0.08,0.09L9.87,12.1C9.34,12.57,8.9,12.89,8.48,12.97z"/>
				<path class="st3" d="M9.15,11.44c0.37,0.4,0.74,0.69,1.13,0.64c0.55-0.07,1.03-0.22,1.6-0.73C11.07,10.39,10.2,10.87,9.15,11.44
					L9.15,11.44z"/>
				<path class="st5" d="M9.35,11.47c0.14,0.14,0.28,0.27,0.42,0.35c0.16,0.1,0.33,0.15,0.49,0.13c0.26-0.04,0.51-0.09,0.76-0.19
					c0.22-0.09,0.44-0.23,0.68-0.43c-0.34-0.37-0.7-0.45-1.08-0.4C10.23,11,9.81,11.22,9.35,11.47L9.35,11.47z M9.64,12.04
					c-0.2-0.12-0.39-0.3-0.58-0.51l-0.1-0.11l0.14-0.08c0.53-0.29,1.02-0.56,1.49-0.63c0.49-0.08,0.95,0.05,1.39,0.57l0.08,0.09
					l-0.09,0.08c-0.3,0.26-0.57,0.43-0.84,0.55c-0.27,0.11-0.54,0.17-0.82,0.21C10.07,12.23,9.85,12.17,9.64,12.04L9.64,12.04z"/>
				<path class="st3" d="M10.91,10.8c0.35,0.39,0.72,0.67,1.11,0.65c0.55-0.03,1.08-0.15,1.66-0.57
					C12.87,9.86,11.96,10.23,10.91,10.8L10.91,10.8z"/>
				<path class="st5" d="M11.11,10.84c0.13,0.14,0.27,0.25,0.41,0.34c0.16,0.1,0.33,0.16,0.49,0.15c0.27-0.01,0.53-0.05,0.79-0.13
					c0.23-0.07,0.46-0.18,0.69-0.34c-0.35-0.4-0.71-0.52-1.1-0.49C12,10.4,11.57,10.59,11.11,10.84L11.11,10.84z M11.39,11.38
					c-0.19-0.12-0.38-0.3-0.57-0.5l-0.1-0.11l0.14-0.08c0.54-0.29,1.04-0.54,1.52-0.58c0.5-0.04,0.96,0.13,1.4,0.68l0.08,0.1
					l-0.1,0.08c-0.3,0.22-0.59,0.36-0.87,0.45c-0.29,0.09-0.57,0.13-0.85,0.14C11.81,11.59,11.6,11.51,11.39,11.38L11.39,11.38z"/>
				<path class="st3" d="M12.81,10.17c0.29,0.32,0.56,0.65,0.88,0.69c0.64,0.08,1.38-0.03,1.86-0.38
					C14.96,9.34,13.86,9.59,12.81,10.17z"/>
				<path class="st5" d="M12.79,10.33l-0.07-0.08l-0.1-0.11l0.14-0.08c0.54-0.3,1.1-0.51,1.6-0.5c0.52,0.01,0.99,0.25,1.31,0.86
					l0.05,0.09l-0.09,0.06c-0.24,0.18-0.54,0.29-0.87,0.36c-0.35,0.07-0.73,0.08-1.08,0.04C13.33,10.94,13.06,10.64,12.79,10.33
					L12.79,10.33z M13.01,10.2c0.23,0.26,0.46,0.5,0.7,0.53c0.32,0.04,0.67,0.03,1-0.04c0.25-0.05,0.49-0.14,0.68-0.26
					c-0.27-0.45-0.63-0.63-1.04-0.64C13.93,9.8,13.47,9.96,13.01,10.2L13.01,10.2z"/>
				<path class="st3" d="M7.19,12.46c1.98,0.85,1.47,1.92,1.67,2.77C8.32,14.26,7.18,15.15,7.19,12.46z"/>
				<path class="st5" d="M7.24,12.35c1.61,0.69,1.65,1.52,1.68,2.27c0.01,0.2,0.02,0.4,0.06,0.58l-0.23,0.09
					c-0.16-0.3-0.4-0.4-0.64-0.51c-0.53-0.24-1.06-0.47-1.05-2.32v-0.19L7.24,12.35L7.24,12.35z M8.67,14.64
					c-0.03-0.65-0.06-1.37-1.36-1.98c0.03,1.51,0.47,1.71,0.9,1.9c0.16,0.07,0.32,0.14,0.46,0.26C8.68,14.76,8.67,14.7,8.67,14.64z"
					/>
				<path class="st3" d="M14.83,9.77c0.43,0.63,0.45,0.86,0.94,0.85c0.82-0.01,1.29-0.07,1.74-0.4c-0.31-0.59-0.61-0.83-1.1-0.86
					C15.96,9.34,15.33,9.5,14.83,9.77z"/>
				<path class="st5" d="M15.01,9.82c0.05,0.08,0.1,0.15,0.14,0.22l0,0c0.22,0.34,0.3,0.47,0.62,0.46c0.4-0.01,0.72-0.02,0.99-0.08
					c0.22-0.05,0.41-0.12,0.59-0.24c-0.13-0.23-0.26-0.4-0.4-0.51c-0.15-0.12-0.33-0.18-0.54-0.19c-0.21-0.01-0.48,0.03-0.75,0.09
					C15.44,9.63,15.21,9.72,15.01,9.82z M14.94,10.17L14.94,10.17c-0.06-0.1-0.13-0.21-0.21-0.33l-0.08-0.11l0.12-0.06
					c0.25-0.14,0.54-0.25,0.83-0.32c0.29-0.08,0.58-0.11,0.82-0.1c0.27,0.01,0.49,0.09,0.69,0.24c0.19,0.15,0.35,0.37,0.51,0.68
					l0.05,0.09l-0.08,0.06c-0.24,0.18-0.48,0.28-0.78,0.34c-0.28,0.06-0.62,0.08-1.03,0.08C15.31,10.75,15.21,10.59,14.94,10.17
					L14.94,10.17z"/>
				<path class="st3" d="M16.94,9.56c0.24,0.59,0.47,0.83,0.99,0.87c0.43,0.03,1.16,0.07,1.51-0.19c-0.22-0.43-0.48-0.75-0.85-0.86
					C17.98,9.21,17.18,9.36,16.94,9.56L16.94,9.56z"/>
				<path class="st5" d="M17.1,9.61c0.1,0.23,0.2,0.4,0.32,0.51c0.13,0.12,0.3,0.18,0.53,0.2c0.21,0.02,0.5,0.03,0.77,0.02
					c0.21-0.01,0.42-0.05,0.57-0.13c-0.09-0.16-0.19-0.31-0.3-0.42c-0.12-0.13-0.26-0.23-0.42-0.27c-0.27-0.08-0.58-0.09-0.85-0.06
					C17.45,9.48,17.23,9.54,17.1,9.61L17.1,9.61z M17.25,10.3c-0.17-0.15-0.29-0.38-0.42-0.69l-0.03-0.08l0.07-0.06
					c0.15-0.12,0.46-0.22,0.82-0.26c0.3-0.03,0.64-0.02,0.94,0.06c0.21,0.06,0.38,0.18,0.54,0.34c0.15,0.16,0.27,0.35,0.39,0.58
					l0.05,0.09l-0.08,0.06c-0.2,0.15-0.49,0.21-0.79,0.23c-0.29,0.02-0.58,0-0.8-0.02C17.64,10.54,17.42,10.46,17.25,10.3
					L17.25,10.3z"/>
				<path class="st3" d="M18.83,9.49c0.24,0.59,0.39,0.89,0.91,0.93c0.43,0.03,1.16,0.07,1.51-0.19c-0.22-0.43-0.48-0.75-0.85-0.86
					C19.78,9.2,19.07,9.29,18.83,9.49L18.83,9.49z"/>
				<path class="st5" d="M18.98,9.54c0.1,0.24,0.18,0.42,0.29,0.54c0.11,0.13,0.25,0.2,0.48,0.21c0.21,0.02,0.5,0.03,0.77,0.02
					c0.21-0.01,0.42-0.05,0.57-0.13c-0.09-0.16-0.19-0.31-0.3-0.42c-0.12-0.13-0.26-0.23-0.42-0.27c-0.28-0.08-0.58-0.1-0.84-0.08
					C19.29,9.43,19.1,9.47,18.98,9.54L18.98,9.54z M19.08,10.24c-0.14-0.17-0.25-0.4-0.37-0.71l-0.03-0.08l0.07-0.06
					c0.15-0.12,0.43-0.2,0.75-0.23c0.29-0.02,0.62,0,0.93,0.09c0.21,0.06,0.38,0.18,0.54,0.34c0.15,0.16,0.27,0.35,0.39,0.58
					l0.05,0.09l-0.08,0.06c-0.2,0.15-0.49,0.21-0.79,0.23c-0.29,0.02-0.58,0-0.8-0.01C19.43,10.52,19.24,10.42,19.08,10.24
					L19.08,10.24z"/>
				<path class="st3" d="M20.7,9.49c0.19,0.61,0.44,0.98,0.96,1.06c0.43,0.07,1.14,0.08,1.51-0.04c-0.19-0.44-0.42-0.79-0.78-0.92
					C21.79,9.38,20.96,9.32,20.7,9.49L20.7,9.49z"/>
				<path class="st5" d="M20.85,9.56c0.08,0.24,0.18,0.44,0.3,0.59c0.13,0.16,0.3,0.26,0.53,0.29s0.53,0.06,0.83,0.05
					c0.18,0,0.35-0.02,0.49-0.05c-0.08-0.16-0.15-0.3-0.25-0.42c-0.11-0.14-0.24-0.25-0.4-0.3l0,0c-0.29-0.11-0.65-0.18-0.96-0.2
					C21.17,9.51,20.97,9.52,20.85,9.56z M20.96,10.3c-0.16-0.19-0.28-0.45-0.38-0.77l-0.03-0.09l0.07-0.05
					c0.15-0.1,0.44-0.14,0.78-0.12c0.33,0.02,0.71,0.1,1.03,0.21l0,0c0.2,0.08,0.37,0.21,0.51,0.38c0.13,0.17,0.24,0.37,0.34,0.61
					l0.05,0.12l-0.13,0.04c-0.18,0.06-0.43,0.09-0.69,0.09c-0.31,0.01-0.63-0.01-0.87-0.05C21.35,10.63,21.13,10.5,20.96,10.3
					L20.96,10.3z"/>
				<path class="st3" d="M22.55,9.71c0.13,0.4,0.21,0.6,0.58,0.83c0.5,0.31,1.34,0.57,1.91,0.38c-0.13-0.3-0.23-0.76-0.54-0.99
					C23.97,9.55,23.17,9.43,22.55,9.71z"/>
				<path class="st5" d="M22.7,9.78c0.05,0.14,0.09,0.25,0.15,0.34c0.07,0.11,0.18,0.21,0.34,0.31c0.26,0.16,0.62,0.31,0.97,0.38
					c0.25,0.05,0.49,0.06,0.71,0.02l-0.03-0.09c-0.09-0.26-0.2-0.56-0.42-0.72c-0.25-0.18-0.57-0.3-0.9-0.33
					C23.24,9.66,22.95,9.68,22.7,9.78L22.7,9.78z M22.64,10.25c-0.09-0.14-0.15-0.3-0.21-0.51l-0.03-0.1l0.1-0.04
					c0.32-0.15,0.69-0.19,1.05-0.15c0.37,0.04,0.73,0.18,1.02,0.38c0.28,0.2,0.4,0.54,0.51,0.83c0.03,0.08,0.06,0.16,0.08,0.21
					l0.05,0.12l-0.13,0.04c-0.28,0.09-0.62,0.09-0.96,0.02c-0.39-0.08-0.78-0.24-1.06-0.41C22.86,10.51,22.74,10.39,22.64,10.25z"/>
				<path class="st3" d="M24.49,9.92c0.13,0.4,0.18,0.76,0.54,0.99c0.5,0.31,1.23,0.59,1.8,0.4c-0.13-0.3-0.23-0.76-0.54-0.99
					C25.77,9.95,25.14,9.83,24.49,9.92z"/>
				<path class="st5" d="M24.65,10.03l0.01,0.03c0.09,0.31,0.17,0.58,0.44,0.76c0.27,0.17,0.6,0.32,0.94,0.4
					c0.22,0.05,0.43,0.06,0.63,0.03c-0.01-0.03-0.02-0.06-0.03-0.09l0,0c-0.09-0.26-0.2-0.56-0.42-0.72
					c-0.24-0.18-0.51-0.29-0.79-0.36C25.18,10.01,24.92,10,24.65,10.03z M24.42,10.12c-0.02-0.06-0.04-0.12-0.05-0.16l-0.04-0.14
					l0.14-0.02c0.35-0.05,0.68-0.04,1.01,0.03c0.32,0.07,0.61,0.2,0.88,0.4c0.28,0.2,0.4,0.54,0.51,0.83l0,0
					c0.03,0.08,0.06,0.16,0.08,0.21L27,11.4l-0.13,0.04c-0.28,0.09-0.59,0.08-0.89,0.01c-0.37-0.08-0.73-0.25-1.01-0.43
					C24.62,10.8,24.53,10.48,24.42,10.12L24.42,10.12z"/>
				<path class="st3" d="M26.33,10.42c0.13,0.4,0.18,0.76,0.54,0.99c0.5,0.31,1.23,0.75,1.8,0.56c-0.13-0.3-0.28-0.78-0.59-1.01
					C27.56,10.59,26.97,10.36,26.33,10.42L26.33,10.42z"/>
				<path class="st5" d="M26.49,10.53l0.01,0.02c0.09,0.31,0.17,0.58,0.44,0.76c0.25,0.15,0.55,0.34,0.86,0.46
					c0.24,0.1,0.49,0.15,0.71,0.12l-0.01-0.02c-0.11-0.28-0.25-0.63-0.49-0.8c-0.26-0.19-0.54-0.34-0.84-0.43
					C26.95,10.56,26.73,10.53,26.49,10.53L26.49,10.53z M26.26,10.62c-0.02-0.06-0.04-0.13-0.05-0.16l-0.04-0.14l0.15-0.01
					c0.32-0.03,0.63,0.01,0.93,0.1c0.32,0.1,0.63,0.26,0.91,0.47c0.3,0.21,0.45,0.61,0.57,0.91c0.03,0.06,0.05,0.12,0.06,0.15
					l0.05,0.12l-0.13,0.04c-0.32,0.1-0.67,0.04-1.01-0.1c-0.33-0.13-0.64-0.32-0.9-0.48C26.46,11.29,26.37,10.98,26.26,10.62
					L26.26,10.62z"/>
				<path class="st3" d="M28.18,10.98c0.13,0.4,0.34,0.75,0.69,1.09c0.42,0.41,1.69,1.16,2.29,1.34c0.02-0.42-0.49-1.43-0.86-1.68
					C29.78,11.37,28.82,10.92,28.18,10.98L28.18,10.98z"/>
				<path class="st5" d="M28.35,11.1c0.05,0.13,0.12,0.26,0.19,0.39c0.11,0.17,0.24,0.34,0.41,0.5c0.21,0.2,0.63,0.49,1.08,0.75
					c0.35,0.2,0.71,0.39,0.99,0.49c-0.04-0.19-0.14-0.44-0.26-0.68c-0.16-0.32-0.36-0.61-0.52-0.72c-0.29-0.19-0.71-0.42-1.13-0.57
					C28.84,11.17,28.58,11.11,28.35,11.1z M28.33,11.61c-0.12-0.19-0.21-0.39-0.28-0.6l-0.04-0.14l0.15-0.01
					c0.3-0.03,0.66,0.05,1.02,0.17c0.45,0.16,0.89,0.39,1.19,0.59c0.2,0.13,0.43,0.46,0.61,0.81c0.18,0.36,0.32,0.75,0.3,0.98
					l-0.01,0.16l-0.15-0.04c-0.3-0.09-0.77-0.32-1.22-0.58c-0.46-0.27-0.9-0.57-1.12-0.79C28.6,11.98,28.45,11.8,28.33,11.61
					L28.33,11.61z"/>
				<path class="st3" d="M27.7,16.88c0.7-0.49,1.35-0.9,1.97-1.26c-0.15,0.7-0.24,1.14-0.38,1.84c-0.13-0.07-0.31,0.12-0.44,0.05
					C28.47,17.31,28.09,17.09,27.7,16.88L27.7,16.88z"/>
				<path class="st5" d="M27.63,16.78c0.35-0.24,0.69-0.47,1.02-0.68c0.34-0.21,0.66-0.41,0.96-0.58l0.24-0.14l-0.06,0.27
					l-0.38,1.84l-0.18,0.08c-0.01-0.01-0.05,0.06-0.1,0.08c-0.1,0.04-0.22,0.04-0.33-0.03l-1.15-0.64l0.06-0.11L27.63,16.78
					L27.63,16.78z M28.78,16.31c-0.27,0.17-0.56,0.36-0.85,0.56l0.98,0.54c0.01,0.01,0.06-0.01,0.11-0.03
					c0.06-0.02,0.11-0.04,0.17-0.05l0.3-1.46C29.26,16.01,29.02,16.16,28.78,16.31L28.78,16.31z"/>
				<path class="st3" d="M30.15,14.81c-0.77,0.16-1.01,0.85-1.16,1.56c-0.08,0.37,0.13,0.81,0.23,1.14c0.55-0.18,0.99-0.83,1.1-1.78
					C30.35,15.41,30.31,15.11,30.15,14.81L30.15,14.81z"/>
				<path class="st5" d="M30.08,14.95c-0.3,0.09-0.5,0.27-0.64,0.49c-0.16,0.27-0.26,0.6-0.33,0.94l0,0
					c-0.05,0.25,0.05,0.56,0.14,0.83c0.01,0.04,0.03,0.08,0.04,0.12c0.2-0.1,0.39-0.28,0.54-0.52c0.18-0.29,0.31-0.66,0.36-1.11
					c0.02-0.15,0.02-0.29-0.01-0.42C30.16,15.17,30.13,15.06,30.08,14.95L30.08,14.95z M29.23,15.31c0.19-0.31,0.47-0.54,0.89-0.63
					l0.09-0.02l0.04,0.08c0.09,0.16,0.14,0.33,0.17,0.49c0.03,0.16,0.03,0.33,0.01,0.49c-0.06,0.48-0.2,0.89-0.4,1.21
					c-0.21,0.34-0.49,0.57-0.79,0.67l-0.12,0.04l-0.04-0.12c-0.02-0.07-0.05-0.15-0.08-0.24c-0.1-0.3-0.22-0.64-0.15-0.96l0,0
					C28.94,15.97,29.04,15.61,29.23,15.31L29.23,15.31z"/>
				<path class="st3" d="M31.15,13.26c-0.77,0.16-1.01,0.85-1.16,1.56c-0.08,0.37,0.13,0.81,0.23,1.14c0.55-0.18,0.99-0.83,1.1-1.78
					C31.36,13.86,31.31,13.56,31.15,13.26L31.15,13.26z"/>
				<path class="st5" d="M31.08,13.4c-0.3,0.09-0.5,0.27-0.64,0.49c-0.16,0.27-0.26,0.6-0.33,0.94l0,0
					c-0.05,0.25,0.05,0.56,0.14,0.83c0.01,0.04,0.03,0.08,0.04,0.12c0.2-0.1,0.39-0.28,0.54-0.52c0.18-0.29,0.31-0.66,0.36-1.11
					c0.02-0.15,0.02-0.29-0.01-0.42C31.17,13.62,31.13,13.51,31.08,13.4L31.08,13.4z M30.23,13.76c0.19-0.31,0.47-0.54,0.89-0.63
					l0.09-0.02l0.04,0.08c0.09,0.16,0.14,0.33,0.17,0.49c0.03,0.16,0.03,0.33,0.01,0.49c-0.06,0.48-0.2,0.89-0.4,1.21
					c-0.21,0.34-0.49,0.57-0.79,0.67l-0.12,0.04l-0.04-0.12c-0.02-0.07-0.05-0.15-0.08-0.24c-0.1-0.3-0.22-0.64-0.15-0.96l0,0
					C29.94,14.42,30.04,14.06,30.23,13.76L30.23,13.76z"/>
				<path class="st3" d="M7.62,14.23c1.98,0.85,1.42,1.91,1.62,2.76c-0.1-0.18-0.23-0.14-0.35-0.23
					C8.34,16.33,7.62,16.44,7.62,14.23z"/>
				<path class="st5" d="M7.67,14.12c1.59,0.68,1.62,1.5,1.64,2.25c0.01,0.21,0.01,0.41,0.06,0.59l-0.23,0.09
					C9.1,16.98,9.05,16.97,9,16.95c-0.06-0.02-0.12-0.04-0.18-0.09c-0.1-0.08-0.2-0.14-0.31-0.19C8,16.38,7.49,16.1,7.5,14.23v-0.19
					L7.67,14.12z M9.07,16.38c-0.02-0.64-0.04-1.35-1.32-1.95c0.03,1.55,0.45,1.79,0.88,2.03c0.11,0.06,0.23,0.13,0.34,0.21
					c0.03,0.02,0.07,0.04,0.1,0.05l0.01,0C9.07,16.6,9.07,16.49,9.07,16.38L9.07,16.38z"/>
				<path class="st3" d="M8.63,16.64c0.94-0.5,1.91-0.61,2.49-0.39c0.42,0.16,0.39,0.32,0.63,0.67
					C11.31,17.26,10.16,17.99,8.63,16.64L8.63,16.64z"/>
				<path class="st5" d="M8.57,16.53c0.47-0.25,0.95-0.4,1.38-0.47c0.47-0.07,0.89-0.04,1.21,0.08c0.35,0.14,0.43,0.27,0.55,0.49
					l0,0c0.04,0.06,0.08,0.14,0.14,0.23l0.06,0.09l-0.09,0.07c-0.23,0.18-0.64,0.47-1.21,0.52c-0.56,0.06-1.27-0.1-2.07-0.81
					l-0.13-0.12L8.57,16.53L8.57,16.53z M9.99,16.3c-0.36,0.06-0.75,0.18-1.14,0.36c0.68,0.55,1.26,0.68,1.74,0.63
					c0.44-0.05,0.78-0.24,0.99-0.4c-0.03-0.05-0.06-0.1-0.09-0.15l0,0c-0.09-0.17-0.15-0.27-0.42-0.38
					C10.79,16.26,10.41,16.23,9.99,16.3L9.99,16.3z"/>
				<path class="st3" d="M10.77,16.16c0.94-0.53,1.49-0.63,2.12-0.63c0.45,0,0.4,0.56,0.97,0.91c-0.49,0.37-0.82,0.31-1.86,0.4
					C11.61,16.88,11.03,16.51,10.77,16.16z"/>
				<path class="st5" d="M10.71,16.06c0.48-0.27,0.86-0.43,1.2-0.53c0.35-0.09,0.65-0.12,0.98-0.12c0.31,0,0.42,0.18,0.57,0.42
					c0.1,0.17,0.23,0.36,0.47,0.51l0.15,0.09l-0.14,0.11c-0.43,0.32-0.73,0.34-1.41,0.39c-0.16,0.01-0.34,0.03-0.52,0.04
					c-0.21,0.02-0.46-0.06-0.7-0.19c-0.26-0.14-0.5-0.34-0.65-0.54l-0.08-0.11L10.71,16.06L10.71,16.06z M11.98,15.77
					c-0.29,0.08-0.62,0.21-1.02,0.43c0.13,0.14,0.3,0.27,0.48,0.37c0.2,0.11,0.4,0.18,0.56,0.16c0.22-0.02,0.38-0.03,0.52-0.04
					c0.55-0.04,0.83-0.06,1.14-0.24c-0.19-0.16-0.3-0.33-0.4-0.48c-0.1-0.17-0.19-0.3-0.36-0.3C12.58,15.65,12.29,15.68,11.98,15.77
					z"/>
				<path class="st3" d="M13.06,15.57c0.94-0.47,1.27-0.48,1.81-0.46c0.45,0.01,0.59,0.55,0.97,0.91c-0.49,0.37-0.82,0.31-1.86,0.4
					C13.59,16.45,13.19,15.93,13.06,15.57z"/>
				<path class="st5" d="M13,15.45c0.48-0.24,0.81-0.37,1.08-0.43c0.28-0.06,0.51-0.06,0.79-0.05c0.36,0.01,0.54,0.27,0.74,0.56
					c0.09,0.13,0.19,0.27,0.32,0.39l0.1,0.1l-0.11,0.09c-0.43,0.32-0.73,0.34-1.41,0.39c-0.16,0.01-0.34,0.03-0.52,0.04
					c-0.21,0.02-0.42-0.09-0.59-0.25c-0.21-0.19-0.38-0.47-0.46-0.68l-0.04-0.1L13,15.45L13,15.45z M14.14,15.27
					c-0.24,0.05-0.52,0.16-0.92,0.35c0.08,0.17,0.2,0.35,0.35,0.49c0.13,0.12,0.27,0.2,0.4,0.19c0.22-0.02,0.38-0.03,0.52-0.04
					c0.56-0.04,0.85-0.06,1.16-0.26c-0.09-0.1-0.17-0.21-0.24-0.32c-0.16-0.23-0.31-0.44-0.55-0.45
					C14.6,15.22,14.39,15.21,14.14,15.27L14.14,15.27z"/>
				<path class="st3" d="M14.72,15.07c0.94-0.21,1.74-0.19,2.2-0.11c0.44,0.08,0.51,0.54,0.83,0.92c-0.49,0.37-0.93,0.21-1.91,0.14
					C15.45,15.98,15.32,15.35,14.72,15.07L14.72,15.07z"/>
				<path class="st5" d="M14.69,14.95c0.43-0.1,0.83-0.15,1.18-0.16c0.44-0.02,0.81,0.01,1.07,0.05c0.35,0.06,0.49,0.31,0.65,0.59
					c0.07,0.13,0.15,0.26,0.25,0.37l0.08,0.1l-0.1,0.08c-0.43,0.32-0.8,0.28-1.45,0.21c-0.16-0.02-0.33-0.04-0.54-0.05
					c-0.25-0.02-0.4-0.2-0.57-0.42c-0.15-0.19-0.32-0.4-0.59-0.53L14.69,14.95L14.69,14.95z M15.89,15.03
					c-0.26,0.01-0.54,0.04-0.84,0.1c0.17,0.14,0.3,0.29,0.41,0.43c0.14,0.17,0.25,0.32,0.39,0.33c0.2,0.01,0.38,0.03,0.55,0.05
					c0.53,0.05,0.86,0.09,1.17-0.09c-0.07-0.1-0.13-0.2-0.19-0.3c-0.13-0.23-0.24-0.42-0.48-0.47
					C16.66,15.04,16.31,15.01,15.89,15.03L15.89,15.03z"/>
				<path class="st3" d="M25.95,15.9c2.05-0.04,2.68,1.01,3.12,1.83C27.46,18.19,26.85,16.32,25.95,15.9z"/>
				<path class="st1" d="M25.94,15.78c1.06-0.02,1.75,0.24,2.24,0.62c0.49,0.38,0.65,0.71,0.87,1.13l0.07,0.13l-0.15,0.04
					c-1.13,0.32-1.67-0.26-2.25-0.93c-0.28-0.32-0.55-0.62-0.83-0.76L25.94,15.78L25.94,15.78z M28.04,16.59
					c-0.38-0.29-0.91-0.52-1.67-0.56c0.19,0.16,0.37,0.37,0.55,0.58c0.51,0.58,0.95,1.07,1.85,0.89
					C28.57,17.14,28.43,16.9,28.04,16.59z"/>
				<path class="st3" d="M24,15.27c2.05-0.04,2.68,1.01,3.12,1.83C25.51,17.56,24.91,15.69,24,15.27z"/>
				<path class="st1" d="M24,15.15c1.06-0.02,1.75,0.24,2.24,0.62s0.76,0.86,0.99,1.28l0.07,0.13l-0.15,0.04
					c-1.13,0.32-1.78-0.42-2.37-1.08c-0.28-0.32-0.55-0.62-0.83-0.76L24,15.15L24,15.15z M26.09,15.96
					c-0.38-0.29-0.91-0.52-1.67-0.56c0.19,0.16,0.37,0.37,0.55,0.58c0.51,0.58,1.07,1.22,1.96,1.04
					C26.74,16.66,26.49,16.27,26.09,15.96z"/>
				<path class="st3" d="M22.18,15.01c1.97-0.16,2.64,0.82,3.1,1.58C23.76,17.12,23.08,15.35,22.18,15.01z"/>
				<path class="st1" d="M22.17,14.88c1.01-0.08,1.7,0.13,2.19,0.47c0.49,0.33,0.79,0.78,1.02,1.17l0.08,0.13l-0.14,0.05
					c-1.07,0.38-1.74-0.3-2.34-0.9c-0.29-0.29-0.56-0.57-0.85-0.68L22.17,14.88z M24.23,15.55c-0.38-0.26-0.9-0.44-1.62-0.44
					c0.19,0.14,0.37,0.33,0.55,0.51c0.52,0.52,1.09,1.1,1.94,0.89C24.88,16.18,24.62,15.82,24.23,15.55L24.23,15.55z"/>
				<path class="st3" d="M20.33,14.87c1.94-0.35,2.71,0.55,3.25,1.26C22.12,16.82,21.25,15.13,20.33,14.87z"/>
				<path class="st1" d="M20.3,14.75c1-0.18,1.71-0.04,2.23,0.24s0.86,0.7,1.14,1.06l0.09,0.12l-0.14,0.06
					c-1.03,0.48-1.76-0.12-2.42-0.66c-0.32-0.26-0.62-0.51-0.91-0.59L20.3,14.75z M22.42,15.21c-0.41-0.22-0.94-0.35-1.66-0.28
					c0.2,0.12,0.4,0.29,0.6,0.45c0.57,0.47,1.2,0.99,2.02,0.69C23.14,15.77,22.84,15.44,22.42,15.21z"/>
				<path class="st3" d="M18.4,14.91c1.94-0.35,2.9,0.3,3.44,1.01C19.46,16.6,19.32,15.16,18.4,14.91z"/>
				<path class="st1" d="M18.38,14.79c0.99-0.18,1.74-0.1,2.31,0.11c0.58,0.22,0.97,0.57,1.25,0.94l0.11,0.14l-0.17,0.05
					c-1.7,0.49-2.3-0.06-2.82-0.55c-0.22-0.2-0.42-0.39-0.68-0.46L18.38,14.79L18.38,14.79z M20.6,15.12
					c-0.45-0.17-1.04-0.25-1.79-0.16c0.14,0.1,0.27,0.21,0.4,0.34c0.46,0.42,0.98,0.9,2.41,0.54C21.38,15.56,21.05,15.3,20.6,15.12
					L20.6,15.12z"/>
				<path class="st3" d="M16.32,14.9c1.94-0.35,2.9,0.3,3.44,1.01C17.38,16.59,17.25,15.15,16.32,14.9z"/>
				<path class="st1" d="M16.3,14.78c0.99-0.18,1.74-0.1,2.31,0.11c0.58,0.22,0.97,0.57,1.25,0.94l0.11,0.14l-0.17,0.05
					c-1.7,0.49-2.3-0.06-2.82-0.55c-0.22-0.2-0.42-0.39-0.68-0.46L16.3,14.78L16.3,14.78z M18.52,15.11
					c-0.45-0.17-1.04-0.25-1.79-0.16c0.14,0.1,0.27,0.21,0.4,0.34c0.46,0.42,0.98,0.9,2.41,0.54C19.3,15.55,18.98,15.29,18.52,15.11
					L18.52,15.11z"/>
			</g>
			<path class="st5" d="M9.99,14.67l-0.35-1l0.2-0.07L10,14.05l0.26-0.58l0.27-0.09l-0.24,0.52l0.61,0.47l-0.26,0.09l-0.44-0.38
				l-0.11,0.22l0.1,0.3L9.99,14.67L9.99,14.67z M12.14,14l-0.23,0.06l-0.16-0.21l-0.41,0.12l-0.02,0.25l-0.22,0.06l0.1-1.13
				l0.22-0.06L12.14,14z M11.65,13.71l-0.25-0.34l-0.03,0.42L11.65,13.71z M12.49,13.9l-0.24-1.02l0.21-0.05l0.2,0.85l0.52-0.12
				l0.04,0.17L12.49,13.9L12.49,13.9z M13.59,13.66l-0.2-1.04l0.21-0.04l0.2,1.04L13.59,13.66z M14.22,13.53l-0.15-1.05l0.32-0.04
				l0.29,0.69l0.09-0.74l0.32-0.04l0.15,1.05l-0.2,0.03l-0.12-0.82l-0.09,0.85l-0.2,0.03l-0.33-0.8l0.12,0.82L14.22,13.53
				L14.22,13.53z M16.64,13.23l-0.23,0.02l-0.11-0.23l-0.42,0.04L15.8,13.3l-0.23,0.02l0.32-1.09l0.23-0.02L16.64,13.23L16.64,13.23
				z M16.21,12.85l-0.18-0.38l-0.11,0.4L16.21,12.85L16.21,12.85z M16.97,13.18l-0.04-1.06l0.21-0.01l0.46,0.69l-0.03-0.71l0.2-0.01
				l0.04,1.06l-0.21,0.01l-0.45-0.67l0.03,0.69L16.97,13.18L16.97,13.18z M18.52,13.12l-0.01-0.88l-0.32,0.01l0-0.18l0.85-0.01
				l0,0.18l-0.32,0.01l0.01,0.88L18.52,13.12L18.52,13.12z M20.27,13.15l-0.23,0l-0.09-0.24l-0.43-0.01l-0.09,0.24l-0.23,0
				l0.43-1.05l0.23,0L20.27,13.15z M19.88,12.72l-0.14-0.39l-0.15,0.39L19.88,12.72z M20.61,13.18l0.08-1.06l0.21,0.01l0.38,0.73
				l0.05-0.71l0.2,0.01l-0.08,1.06l-0.21-0.01l-0.38-0.72l-0.05,0.69L20.61,13.18z M22.34,13.07l0.03-0.2l0.4,0.05l-0.03,0.2
				L22.34,13.07z M23.69,13.56l0.15-0.87l-0.31-0.05l0.03-0.18l0.83,0.15l-0.03,0.18l-0.31-0.05L23.9,13.6L23.69,13.56z
				 M24.56,13.74l0.24-1.03l0.21,0.05l-0.24,1.03L24.56,13.74z M25.19,13.89l0.26-1.03l0.31,0.08l0.01,0.75l0.36-0.66l0.31,0.08
				l-0.26,1.03l-0.19-0.05l0.2-0.81l-0.41,0.76l-0.2-0.05l0-0.86l-0.2,0.81L25.19,13.89L25.19,13.89z M26.96,13.27l0.2,0.07
				l-0.19,0.54c-0.03,0.09-0.05,0.14-0.05,0.17c-0.01,0.04,0,0.08,0.03,0.12c0.03,0.04,0.06,0.06,0.12,0.08
				c0.06,0.02,0.1,0.02,0.14,0.01c0.04-0.01,0.06-0.04,0.08-0.07c0.02-0.03,0.04-0.09,0.07-0.17l0.19-0.55l0.2,0.07l-0.18,0.53
				c-0.04,0.12-0.08,0.2-0.1,0.25c-0.03,0.05-0.06,0.08-0.1,0.1c-0.04,0.02-0.09,0.04-0.15,0.04c-0.06,0-0.13-0.01-0.2-0.04
				c-0.1-0.03-0.16-0.07-0.21-0.11c-0.04-0.04-0.07-0.08-0.09-0.13c-0.02-0.05-0.02-0.09-0.02-0.13c0.01-0.06,0.03-0.15,0.07-0.26
				L26.96,13.27L26.96,13.27z M27.85,14.71l0.4-0.98l0.42,0.17c0.1,0.04,0.18,0.08,0.22,0.12c0.04,0.04,0.07,0.08,0.08,0.14
				c0.01,0.06,0,0.11-0.02,0.17c-0.03,0.07-0.08,0.13-0.14,0.16c-0.06,0.03-0.14,0.04-0.23,0.01c0.03,0.04,0.06,0.08,0.07,0.13
				c0.02,0.04,0.03,0.11,0.05,0.2l0.04,0.24l-0.24-0.1l-0.06-0.27c-0.02-0.1-0.04-0.16-0.05-0.19c-0.01-0.03-0.03-0.05-0.04-0.06
				c-0.02-0.02-0.05-0.03-0.1-0.05l-0.04-0.02l-0.17,0.41L27.85,14.71L27.85,14.71z M28.28,14.22l0.15,0.06
				c0.1,0.04,0.16,0.06,0.18,0.06c0.03,0,0.05,0,0.07-0.02s0.04-0.04,0.05-0.06c0.01-0.03,0.01-0.06,0.01-0.09
				c-0.01-0.03-0.03-0.05-0.06-0.07c-0.01-0.01-0.06-0.03-0.14-0.06l-0.15-0.06L28.28,14.22L28.28,14.22z"/>
			<path class="st2" d="M16.97,39.61c-3.04-0.33-5.82-1.5-8.38-3.37c-0.28,0.16-0.6,0.26-0.95,0.26c-1.02,0-1.86-0.83-1.86-1.85
				s0.83-1.85,1.86-1.85c0.54,0,0.68,0.08,1.02,0.39c2.18,1.97,4.79,3.5,8.52,3.91c1.69,0.18,3.43,0.15,5.1-0.14
				c3.2-0.55,5.54-1.98,7.52-3.77c0.34-0.31,0.48-0.39,1.02-0.39c1.02,0,1.86,0.83,1.86,1.85s-0.83,1.85-1.86,1.85
				c-0.35,0-0.67-0.09-0.95-0.26c-2.26,1.66-4.69,2.76-7.33,3.22C20.75,39.77,18.79,39.81,16.97,39.61L16.97,39.61z"/>
			<path class="st5" d="M16.96,39.73c-1.53-0.17-3-0.54-4.41-1.12c-1.38-0.56-2.7-1.31-3.97-2.23c-0.13,0.07-0.27,0.13-0.42,0.16
				C8,36.59,7.82,36.62,7.64,36.62c-0.55,0-1.04-0.22-1.4-0.58c-0.36-0.36-0.58-0.85-0.58-1.39s0.22-1.04,0.58-1.39
				c0.36-0.36,0.85-0.58,1.4-0.58c0.29,0,0.47,0.02,0.63,0.09c0.16,0.06,0.29,0.17,0.47,0.33c1.08,0.98,2.27,1.84,3.65,2.52
				c1.38,0.67,2.95,1.16,4.8,1.36c0.85,0.09,1.71,0.13,2.57,0.11c0.84-0.02,1.68-0.1,2.5-0.24c1.59-0.27,2.96-0.77,4.18-1.41
				c1.22-0.64,2.29-1.44,3.28-2.33c0.18-0.16,0.31-0.27,0.47-0.33c0.16-0.06,0.34-0.09,0.63-0.09c0.55,0,1.04,0.22,1.4,0.58
				c0.36,0.36,0.58,0.85,0.58,1.39s-0.22,1.04-0.58,1.39c-0.36,0.36-0.85,0.58-1.4,0.58c-0.18,0-0.36-0.03-0.52-0.07
				c-0.15-0.04-0.28-0.1-0.42-0.16c-1.12,0.81-2.27,1.49-3.48,2.03c-1.23,0.54-2.51,0.94-3.83,1.17c-0.89,0.16-1.81,0.24-2.74,0.27
				C18.86,39.88,17.89,39.84,16.96,39.73L16.96,39.73z M12.64,38.39c1.38,0.56,2.83,0.93,4.34,1.1c0.92,0.1,1.88,0.14,2.84,0.12
				c0.92-0.03,1.83-0.11,2.71-0.27c1.31-0.23,2.56-0.62,3.78-1.16c1.21-0.54,2.38-1.22,3.5-2.05l0.07-0.05l0.07,0.04
				c0.13,0.08,0.28,0.14,0.43,0.18c0.15,0.04,0.3,0.06,0.46,0.06c0.48,0,0.91-0.19,1.23-0.51s0.51-0.74,0.51-1.22
				c0-0.48-0.19-0.91-0.51-1.22c-0.31-0.31-0.75-0.51-1.23-0.51c-0.26,0-0.41,0.02-0.54,0.07c-0.13,0.05-0.24,0.14-0.4,0.29
				c-1,0.9-2.09,1.71-3.33,2.36c-1.24,0.66-2.64,1.16-4.25,1.43c-0.83,0.14-1.68,0.23-2.53,0.25c-0.87,0.02-1.75-0.01-2.6-0.11
				c-1.88-0.2-3.47-0.69-4.88-1.38s-2.61-1.57-3.71-2.56c-0.16-0.14-0.27-0.23-0.4-0.29c-0.13-0.05-0.28-0.07-0.54-0.07
				c-0.48,0-0.91,0.19-1.23,0.51c-0.31,0.31-0.51,0.74-0.51,1.22c0,0.48,0.19,0.91,0.51,1.22c0.31,0.31,0.75,0.51,1.23,0.51
				c0.16,0,0.32-0.02,0.46-0.06c0.15-0.04,0.29-0.1,0.43-0.18l0.07-0.04l0.07,0.05C9.94,37.07,11.26,37.82,12.64,38.39L12.64,38.39z
				"/>
			<path class="st1" d="M9.73,36.1l-0.2-0.13l0.54-0.8l0.18,0.12l-0.08,0.11c0.07-0.03,0.12-0.05,0.16-0.05
				c0.04,0,0.07,0.01,0.1,0.03c0.05,0.03,0.08,0.07,0.1,0.13l-0.19,0.14c-0.02-0.04-0.04-0.08-0.07-0.1
				c-0.03-0.02-0.06-0.03-0.09-0.02c-0.03,0-0.06,0.02-0.1,0.06s-0.11,0.12-0.2,0.25L9.73,36.1L9.73,36.1z M11.31,37.12L11.38,37
				c-0.05,0.03-0.11,0.04-0.17,0.04c-0.06,0-0.12-0.02-0.17-0.05c-0.05-0.03-0.09-0.07-0.12-0.12c-0.03-0.05-0.04-0.1-0.03-0.15
				s0.04-0.12,0.08-0.2L11.3,36l0.2,0.12l-0.23,0.38c-0.07,0.11-0.11,0.19-0.12,0.22c-0.01,0.03-0.01,0.06,0,0.09
				c0.01,0.03,0.03,0.05,0.06,0.07c0.04,0.02,0.07,0.03,0.11,0.03c0.04,0,0.07-0.02,0.1-0.04c0.03-0.03,0.08-0.1,0.15-0.21
				l0.21-0.35l0.2,0.12l-0.5,0.82L11.31,37.12L11.31,37.12z M13.22,36.64l-0.19,0.45c0.11-0.06,0.21-0.07,0.31-0.03
				c0.05,0.02,0.09,0.05,0.12,0.09s0.05,0.08,0.06,0.11s0.01,0.08,0,0.12c-0.01,0.04-0.03,0.1-0.06,0.18l-0.22,0.52l-0.22-0.09
				l0.2-0.47c0.04-0.09,0.06-0.15,0.06-0.18c0-0.03,0-0.05-0.02-0.08s-0.04-0.04-0.07-0.06c-0.04-0.01-0.07-0.02-0.11-0.01
				c-0.04,0.01-0.07,0.03-0.1,0.06c-0.03,0.03-0.06,0.09-0.09,0.16l-0.19,0.44l-0.22-0.09L13,36.55L13.22,36.64L13.22,36.64z
				 M14.84,38.57l0.04-0.14c-0.04,0.04-0.1,0.07-0.15,0.09c-0.06,0.01-0.12,0.02-0.17,0c-0.06-0.01-0.11-0.04-0.15-0.08
				c-0.04-0.04-0.06-0.09-0.07-0.14c-0.01-0.05,0-0.13,0.02-0.21l0.15-0.59l0.23,0.06l-0.11,0.43c-0.03,0.13-0.05,0.21-0.05,0.24
				c0,0.03,0.01,0.06,0.03,0.08c0.02,0.02,0.04,0.04,0.08,0.05c0.04,0.01,0.08,0.01,0.11-0.01c0.04-0.01,0.06-0.04,0.09-0.07
				c0.02-0.03,0.05-0.11,0.08-0.25l0.1-0.39l0.23,0.06l-0.23,0.93L14.84,38.57L14.84,38.57z M16.25,37.74l0.03-0.23l0.24,0.03
				l-0.03,0.23L16.25,37.74z M16.14,38.82l0.1-0.95l0.24,0.03l-0.1,0.95L16.14,38.82z M17.94,38.6l0-0.25l0.47,0.01l0,0.25
				L17.94,38.6z M20.1,38.92l-0.24,0.01l-0.05-0.96l0.22-0.01l0.01,0.14c0.03-0.07,0.07-0.11,0.09-0.13
				c0.03-0.02,0.06-0.03,0.1-0.04c0.05,0,0.11,0.01,0.16,0.04l-0.06,0.23c-0.04-0.03-0.08-0.04-0.11-0.04s-0.06,0.01-0.08,0.03
				c-0.02,0.02-0.04,0.06-0.05,0.11c-0.01,0.05-0.01,0.16,0,0.32L20.1,38.92L20.1,38.92z M21.49,38.11l-0.22-0.01
				c0.01-0.1,0.04-0.17,0.09-0.22c0.05-0.05,0.14-0.09,0.25-0.1c0.1-0.01,0.18-0.01,0.24,0.01c0.05,0.02,0.1,0.05,0.12,0.09
				s0.05,0.11,0.06,0.22l0.04,0.29c0.01,0.08,0.03,0.14,0.04,0.18c0.01,0.04,0.03,0.08,0.06,0.12l-0.23,0.03
				c-0.01-0.02-0.02-0.04-0.03-0.07c-0.01-0.01-0.01-0.02-0.01-0.03c-0.03,0.05-0.07,0.08-0.11,0.11c-0.04,0.03-0.09,0.04-0.14,0.05
				c-0.09,0.01-0.17,0-0.23-0.05c-0.06-0.05-0.1-0.11-0.11-0.19c-0.01-0.05,0-0.1,0.02-0.15c0.02-0.05,0.05-0.08,0.09-0.11
				c0.04-0.03,0.1-0.06,0.18-0.09c0.11-0.04,0.18-0.07,0.22-0.09l0-0.03c-0.01-0.05-0.02-0.08-0.05-0.1s-0.07-0.02-0.13-0.01
				c-0.04,0.01-0.07,0.02-0.09,0.04S21.5,38.06,21.49,38.11L21.49,38.11z M21.83,38.27c-0.03,0.01-0.08,0.03-0.14,0.06
				c-0.06,0.03-0.1,0.04-0.12,0.06c-0.03,0.03-0.04,0.06-0.03,0.09c0,0.04,0.02,0.06,0.05,0.09c0.03,0.02,0.06,0.03,0.1,0.03
				c0.04-0.01,0.08-0.03,0.11-0.06c0.03-0.03,0.04-0.06,0.04-0.09c0-0.02,0-0.06-0.01-0.12L21.83,38.27L21.83,38.27z M23.1,37.12
				l0.12,0.47c0.05-0.11,0.13-0.18,0.23-0.2c0.05-0.01,0.1-0.01,0.15,0c0.05,0.01,0.09,0.03,0.12,0.06c0.03,0.03,0.05,0.06,0.07,0.1
				c0.02,0.04,0.04,0.1,0.06,0.18l0.14,0.54l-0.23,0.06l-0.12-0.49c-0.03-0.1-0.04-0.16-0.06-0.18c-0.01-0.03-0.04-0.04-0.06-0.05
				c-0.03-0.01-0.06-0.01-0.09,0c-0.04,0.01-0.07,0.03-0.09,0.05c-0.03,0.03-0.04,0.06-0.04,0.11c0,0.04,0,0.1,0.02,0.18l0.12,0.47
				l-0.23,0.06l-0.32-1.28L23.1,37.12L23.1,37.12z M24.93,37.19l-0.21,0.04c-0.01-0.1,0-0.17,0.04-0.24
				c0.04-0.06,0.11-0.12,0.22-0.16c0.1-0.04,0.18-0.06,0.23-0.05c0.06,0.01,0.1,0.02,0.14,0.05c0.04,0.03,0.07,0.1,0.11,0.2
				l0.11,0.28c0.03,0.08,0.06,0.13,0.08,0.17c0.02,0.03,0.05,0.07,0.09,0.1l-0.22,0.09c-0.01-0.01-0.03-0.03-0.05-0.06
				c-0.01-0.01-0.01-0.02-0.02-0.03c-0.02,0.05-0.05,0.1-0.09,0.14c-0.04,0.04-0.08,0.06-0.13,0.08c-0.09,0.03-0.16,0.04-0.23,0.01
				c-0.07-0.03-0.12-0.08-0.15-0.16c-0.02-0.05-0.03-0.1-0.02-0.15c0.01-0.05,0.03-0.09,0.06-0.13c0.03-0.04,0.08-0.08,0.15-0.13
				c0.09-0.06,0.16-0.11,0.19-0.14l-0.01-0.02c-0.02-0.05-0.04-0.07-0.07-0.08c-0.03-0.01-0.07,0-0.13,0.02
				c-0.04,0.02-0.07,0.04-0.08,0.06C24.93,37.11,24.93,37.15,24.93,37.19L24.93,37.19z M25.3,37.27c-0.02,0.02-0.06,0.05-0.12,0.09
				c-0.05,0.04-0.09,0.07-0.1,0.09c-0.02,0.03-0.02,0.07-0.01,0.1c0.01,0.03,0.04,0.06,0.07,0.07s0.07,0.01,0.1,0
				c0.04-0.02,0.07-0.05,0.1-0.09c0.02-0.03,0.03-0.06,0.02-0.1c0-0.02-0.01-0.06-0.04-0.12L25.3,37.27z M26.11,36.31l0.22-0.12
				l0.51,0.5L26.71,36l0.22-0.11l0.16,0.96l0.03,0.17c0.01,0.06,0.01,0.11,0.01,0.14s-0.01,0.07-0.02,0.09
				c-0.01,0.03-0.03,0.05-0.06,0.08c-0.03,0.03-0.06,0.05-0.1,0.07s-0.08,0.04-0.13,0.05l-0.11-0.16c0.04-0.01,0.07-0.02,0.09-0.04
				c0.05-0.03,0.08-0.06,0.08-0.1s0-0.09-0.01-0.15L26.11,36.31L26.11,36.31z M28.74,35.88l-0.08-0.12c0,0.06-0.01,0.12-0.04,0.17
				c-0.03,0.05-0.07,0.1-0.12,0.13c-0.05,0.03-0.1,0.05-0.16,0.05c-0.06,0-0.11-0.01-0.15-0.05c-0.05-0.03-0.09-0.09-0.14-0.16
				l-0.32-0.51l0.2-0.13l0.23,0.37c0.07,0.11,0.12,0.18,0.14,0.2c0.02,0.02,0.05,0.03,0.08,0.04s0.06,0,0.09-0.02
				c0.03-0.02,0.06-0.05,0.07-0.09c0.01-0.04,0.02-0.07,0.01-0.11c-0.01-0.04-0.05-0.11-0.12-0.23l-0.21-0.34l0.2-0.13l0.51,0.81
				L28.74,35.88L28.74,35.88z"/>
		</g>
	</g>
</g>
<text transform="matrix(1 0 0 1 39.6211 34.6182)" class="st7 st8 st9">DKP PROV. KALTIM</text>
</svg>
