<?xml version="1.0" encoding="utf-8"?>
<!-- Generator: Adobe Illustrator 27.9.0, SVG Export Plug-In . SVG Version: 6.00 Build 0)  -->
<svg version="1.1" id="Layer_1" xmlns="http://www.w3.org/2000/svg" xmlns:xlink="http://www.w3.org/1999/xlink" x="0px" y="0px"
	 viewBox="0 0 154 32" style="enable-background:new 0 0 154 32;" xml:space="preserve">
<style type="text/css">
	.st0{fill-rule:evenodd;clip-rule:evenodd;fill:#00A959;}
	.st1{fill:#201E1E;}
	.st2{fill-rule:evenodd;clip-rule:evenodd;fill:#FFFFFF;}
	.st3{fill-rule:evenodd;clip-rule:evenodd;fill:#F7D837;}
	.st4{fill-rule:evenodd;clip-rule:evenodd;fill:#201E1E;}
	.st5{fill:#383535;}
	.st6{fill-rule:evenodd;clip-rule:evenodd;fill:#ED3438;}
	.st7{fill:#101828;}
	.st8{font-family:'UrbanShadow-SansSerif';}
	.st9{font-size:20.506px;}
</style>
<g id="Layer_x0020_1">
	<g id="_180098296">
		<path class="st0" d="M12.94,31.87C3.32,27.65-0.65,22.38,0.25,6.5c2.03-0.55,3.39-1.77,4.24-3.49C4.82,2.33,4.79,2.15,5.48,1.8
			c4.5-2.24,10.41-2.24,14.91,0c0.69,0.34,0.66,0.53,0.99,1.21c0.86,1.72,2.21,2.94,4.24,3.49C26.53,22.38,22.55,27.65,12.94,31.87z
			"/>
		<path class="st1" d="M12.89,31.98c-4.83-2.12-8.25-4.5-10.35-8.36c-2.09-3.85-2.87-9.16-2.42-17.12l0.01-0.09l0.09-0.02
			c1-0.27,1.83-0.7,2.51-1.28c0.69-0.58,1.23-1.3,1.65-2.15c0.06-0.12,0.11-0.23,0.15-0.32c0.21-0.45,0.3-0.64,0.9-0.94
			C7.7,0.56,10.32,0,12.94,0s5.24,0.56,7.51,1.69c0.6,0.3,0.69,0.49,0.9,0.94c0.04,0.09,0.09,0.19,0.15,0.32
			c0.42,0.84,0.96,1.57,1.65,2.15c0.69,0.58,1.52,1.01,2.51,1.28l0.09,0.02l0.01,0.09c0.45,7.96-0.32,13.27-2.42,17.12
			c-2.1,3.86-5.52,6.25-10.35,8.36L12.94,32L12.89,31.98z M2.76,23.5c2.06,3.79,5.42,6.14,10.18,8.23
			c4.76-2.09,8.12-4.44,10.18-8.23c2.06-3.8,2.83-9.04,2.39-16.9c-1-0.28-1.83-0.72-2.52-1.31c-0.71-0.6-1.28-1.35-1.71-2.22
			c-0.06-0.12-0.11-0.23-0.15-0.33c-0.18-0.4-0.26-0.56-0.78-0.83c-2.23-1.11-4.82-1.67-7.4-1.67c-2.58,0-5.17,0.56-7.4,1.67
			c-0.53,0.26-0.6,0.43-0.78,0.83C4.71,2.83,4.66,2.94,4.6,3.06c-0.44,0.87-1,1.62-1.71,2.22C2.2,5.87,1.36,6.32,0.37,6.6
			C-0.07,14.46,0.69,19.71,2.76,23.5z"/>
		<g>
			<g>
				<path class="st2" d="M9.66,12.18c-0.45-0.3-1.09-0.22-1.36,0.13c-0.41,0.53,0.38,0.95,0.46,0.74
					C8.89,12.68,9.29,12.32,9.66,12.18L9.66,12.18z"/>
				<path class="st1" d="M9.48,12.17c-0.17-0.08-0.37-0.11-0.55-0.09c-0.23,0.02-0.45,0.12-0.57,0.28
					c-0.13,0.17-0.12,0.33-0.04,0.45c0.04,0.06,0.09,0.11,0.15,0.15c0.06,0.04,0.11,0.06,0.16,0.07c0.03,0,0.04,0,0.04,0
					c0.08-0.2,0.21-0.39,0.38-0.55l0,0C9.18,12.36,9.32,12.25,9.48,12.17z M8.91,11.92c0.26-0.03,0.55,0.03,0.79,0.19l0.13,0.09
					l-0.15,0.06c-0.18,0.07-0.37,0.19-0.52,0.34c-0.15,0.14-0.27,0.31-0.34,0.49c-0.03,0.09-0.12,0.12-0.22,0.1
					c-0.07-0.01-0.15-0.04-0.22-0.09c-0.07-0.05-0.14-0.11-0.2-0.19c-0.11-0.17-0.14-0.4,0.05-0.64
					C8.38,12.07,8.64,11.94,8.91,11.92L8.91,11.92z"/>
				<path class="st2" d="M8.71,13.09c-0.58-0.06-1.22,0.18-1.32,0.66c-0.14,0.68,0.62,0.9,0.67,0.58
					C8.13,13.77,8.38,13.42,8.71,13.09L8.71,13.09z"/>
				<path class="st1" d="M8.53,13.16c-0.23,0-0.47,0.05-0.66,0.14c-0.21,0.1-0.36,0.26-0.4,0.45c-0.05,0.27,0.05,0.45,0.18,0.55
					c0.04,0.03,0.09,0.05,0.13,0.07c0.04,0.01,0.08,0.01,0.11,0.01c0.04-0.01,0.07-0.03,0.08-0.08c0.04-0.29,0.12-0.52,0.24-0.73
					C8.3,13.43,8.41,13.29,8.53,13.16z M7.8,13.16c0.27-0.13,0.6-0.19,0.92-0.15l0.17,0.02l-0.12,0.12
					c-0.16,0.16-0.3,0.32-0.41,0.51c-0.11,0.19-0.19,0.41-0.22,0.67c-0.02,0.12-0.1,0.19-0.21,0.21c-0.06,0.01-0.12,0.01-0.19-0.01
					c-0.06-0.02-0.13-0.05-0.19-0.09c-0.18-0.13-0.31-0.37-0.24-0.72C7.36,13.48,7.55,13.28,7.8,13.16L7.8,13.16z"/>
				<path class="st2" d="M8.08,14.45c-0.58-0.06-1.17,0.43-1.27,0.91c-0.1,0.5,0.39,0.66,0.68,0.58
					C7.85,15.85,7.84,14.82,8.08,14.45z"/>
				<path class="st1" d="M7.95,14.53c-0.22,0.01-0.43,0.09-0.61,0.22c-0.23,0.17-0.4,0.4-0.45,0.63c-0.02,0.08-0.02,0.16,0,0.22
					c0.02,0.08,0.06,0.14,0.12,0.18c0.06,0.05,0.13,0.08,0.21,0.09c0.09,0.02,0.18,0.02,0.25,0c0.16-0.04,0.24-0.4,0.32-0.76
					C7.84,14.9,7.88,14.69,7.95,14.53L7.95,14.53z M7.25,14.62c0.24-0.17,0.54-0.28,0.84-0.25l0.13,0.01L8.15,14.5
					c-0.09,0.14-0.14,0.39-0.2,0.64c-0.09,0.4-0.18,0.81-0.44,0.88c-0.1,0.03-0.21,0.03-0.33,0.01c-0.1-0.02-0.2-0.06-0.28-0.12
					c-0.08-0.07-0.15-0.15-0.18-0.27c-0.02-0.08-0.03-0.18,0-0.29C6.79,15.08,6.98,14.81,7.25,14.62z"/>
				<path class="st2" d="M7.9,15.78c-0.57,0.14-0.96,0.85-0.89,1.36c0.07,0.54,0.59,0.53,0.84,0.34C8.16,17.26,7.8,16.23,7.9,15.78
					L7.9,15.78z"/>
				<path class="st1" d="M7.81,15.9c-0.2,0.08-0.37,0.24-0.5,0.44c-0.16,0.25-0.24,0.55-0.21,0.8c0.01,0.1,0.05,0.18,0.09,0.24
					c0.04,0.06,0.1,0.1,0.17,0.12l0,0c0.07,0.02,0.14,0.03,0.21,0.02c0.09-0.01,0.18-0.05,0.24-0.09c0.14-0.1,0.09-0.5,0.04-0.88
					C7.82,16.31,7.79,16.08,7.81,15.9L7.81,15.9z M7.17,16.25c0.17-0.26,0.42-0.47,0.71-0.55l0.13-0.03L7.99,15.8
					c-0.04,0.17,0,0.45,0.03,0.72c0.05,0.43,0.11,0.87-0.11,1.04c-0.09,0.06-0.2,0.11-0.32,0.13c-0.09,0.01-0.19,0.01-0.28-0.03l0,0
					c-0.09-0.03-0.18-0.09-0.25-0.18c-0.06-0.08-0.1-0.19-0.12-0.32C6.9,16.87,6.99,16.53,7.17,16.25L7.17,16.25z"/>
				<path class="st2" d="M8.04,17.22c-0.37,0.27-0.59,1.08-0.4,1.58c0.2,0.51,0.73,0.31,0.9,0.06C8.77,18.54,8.1,17.69,8.04,17.22
					L8.04,17.22z"/>
				<path class="st1" d="M7.99,17.38c-0.13,0.14-0.23,0.35-0.28,0.58c-0.07,0.28-0.08,0.59,0.01,0.81c0.04,0.1,0.09,0.17,0.15,0.21
					l0,0c0.05,0.03,0.11,0.05,0.17,0.05c0.06,0,0.13-0.01,0.19-0.03c0.11-0.04,0.2-0.11,0.26-0.19c0.1-0.14-0.07-0.5-0.24-0.85
					C8.14,17.76,8.04,17.55,7.99,17.38L7.99,17.38z M7.55,17.91c0.08-0.32,0.24-0.61,0.45-0.76l0.11-0.08l0.02,0.14
					c0.02,0.17,0.14,0.42,0.26,0.67c0.19,0.39,0.39,0.79,0.23,1.01c-0.07,0.1-0.19,0.2-0.33,0.25C8.2,19.18,8.12,19.2,8.03,19.2
					c-0.09,0-0.18-0.03-0.25-0.08l0,0c-0.08-0.06-0.16-0.15-0.21-0.29C7.47,18.57,7.47,18.23,7.55,17.91L7.55,17.91z"/>
				<path class="st2" d="M8.72,18.61c-0.32,0.53-0.31,1.32-0.04,1.75c0.38,0.62,0.92,0.36,0.96-0.08
					C9.67,19.9,8.87,19.05,8.72,18.61z"/>
				<path class="st1" d="M8.71,18.8c-0.1,0.22-0.14,0.46-0.15,0.7c-0.01,0.31,0.06,0.61,0.18,0.81c0.1,0.16,0.2,0.25,0.31,0.3
					c0.07,0.03,0.15,0.04,0.21,0.02c0.07-0.02,0.13-0.05,0.17-0.1c0.06-0.07,0.1-0.16,0.11-0.26c0.02-0.19-0.24-0.56-0.48-0.92
					C8.93,19.15,8.8,18.96,8.71,18.8L8.71,18.8z M8.4,19.49c0.01-0.32,0.09-0.66,0.25-0.93l0.09-0.15l0.06,0.17
					C8.85,18.75,9.03,19,9.2,19.26c0.26,0.38,0.53,0.77,0.51,1.03c-0.01,0.14-0.07,0.26-0.15,0.36c-0.07,0.08-0.16,0.13-0.25,0.15
					c-0.1,0.02-0.21,0.02-0.31-0.03c-0.13-0.06-0.27-0.17-0.38-0.36C8.46,20.16,8.39,19.83,8.4,19.49L8.4,19.49z"/>
				<path class="st2" d="M9.82,20.02c-0.34,0.57-0.33,1.42-0.04,1.88c0.41,0.67,0.98,0.38,1.03-0.08
					C10.84,21.4,9.99,20.49,9.82,20.02z"/>
				<path class="st1" d="M9.81,20.2c-0.11,0.24-0.16,0.51-0.17,0.77c-0.01,0.33,0.06,0.66,0.2,0.88c0.11,0.17,0.22,0.28,0.33,0.32
					c0.08,0.03,0.16,0.04,0.23,0.02l0,0c0.07-0.02,0.14-0.06,0.19-0.11c0.07-0.07,0.11-0.17,0.12-0.28
					c0.02-0.21-0.25-0.61-0.52-0.99C10.05,20.6,9.91,20.38,9.81,20.2L9.81,20.2z M9.48,20.97c0.01-0.35,0.09-0.7,0.27-0.99
					l0.09-0.15l0.06,0.17c0.06,0.19,0.25,0.45,0.44,0.73c0.28,0.41,0.57,0.83,0.55,1.1c-0.01,0.15-0.07,0.28-0.17,0.38
					c-0.07,0.08-0.17,0.14-0.27,0.16l0,0c-0.1,0.03-0.22,0.02-0.34-0.03c-0.14-0.06-0.28-0.18-0.41-0.39
					C9.55,21.68,9.47,21.33,9.48,20.97L9.48,20.97z"/>
				<path class="st2" d="M11.02,21.1c-0.28,0.62-0.17,1.48,0.17,1.92c0.5,0.63,1.05,0.28,1.04-0.21
					C12.22,22.4,11.25,21.57,11.02,21.1z"/>
				<path class="st1" d="M11.04,21.29c-0.08,0.25-0.11,0.54-0.08,0.81c0.03,0.34,0.14,0.66,0.31,0.88c0.13,0.16,0.26,0.26,0.38,0.29
					c0.09,0.03,0.17,0.02,0.24,0c0.07-0.03,0.13-0.07,0.18-0.14c0.06-0.08,0.09-0.19,0.09-0.3c-0.01-0.22-0.33-0.59-0.65-0.95
					C11.33,21.67,11.15,21.47,11.04,21.29L11.04,21.29z M10.79,22.12c-0.03-0.35,0.01-0.73,0.16-1.05l0.07-0.16l0.08,0.16
					c0.09,0.18,0.31,0.44,0.53,0.7c0.33,0.38,0.68,0.78,0.69,1.06c0,0.15-0.04,0.29-0.12,0.4c-0.07,0.09-0.15,0.16-0.26,0.19
					c-0.1,0.04-0.22,0.04-0.34,0.01c-0.15-0.04-0.31-0.15-0.46-0.35C10.94,22.84,10.82,22.49,10.79,22.12L10.79,22.12z"/>
				<path class="st3" d="M16.36,12.18c0.45-0.3,1.09-0.22,1.36,0.13c0.41,0.53-0.38,0.95-0.46,0.74
					C17.12,12.68,16.73,12.32,16.36,12.18L16.36,12.18z"/>
				<path class="st1" d="M16.31,12.12c0.24-0.16,0.52-0.22,0.79-0.19c0.28,0.03,0.53,0.15,0.69,0.35c0.19,0.24,0.16,0.47,0.05,0.64
					c-0.05,0.08-0.12,0.15-0.2,0.19c-0.08,0.05-0.16,0.08-0.22,0.09c-0.1,0.02-0.19-0.02-0.22-0.1c-0.07-0.17-0.19-0.34-0.34-0.49
					c-0.16-0.15-0.34-0.27-0.52-0.34l-0.15-0.06L16.31,12.12L16.31,12.12z M17.09,12.08c-0.18-0.02-0.37,0.01-0.55,0.09
					c0.15,0.08,0.3,0.18,0.43,0.31l0,0c0.16,0.16,0.3,0.35,0.38,0.55c0,0,0.02,0,0.04,0c0.05-0.01,0.1-0.03,0.16-0.07
					c0.06-0.04,0.11-0.09,0.15-0.15c0.08-0.12,0.1-0.28-0.04-0.45C17.53,12.21,17.32,12.11,17.09,12.08z"/>
				<path class="st3" d="M17.3,13.09c0.58-0.06,1.22,0.18,1.32,0.66c0.14,0.68-0.62,0.9-0.67,0.58
					C17.88,13.77,17.63,13.42,17.3,13.09L17.3,13.09z"/>
				<path class="st1" d="M17.29,13.01c0.32-0.03,0.66,0.02,0.92,0.15c0.25,0.12,0.44,0.32,0.49,0.57c0.07,0.35-0.07,0.59-0.24,0.72
					c-0.06,0.04-0.12,0.07-0.19,0.09c-0.07,0.02-0.13,0.02-0.19,0.01c-0.11-0.02-0.19-0.09-0.21-0.21
					c-0.03-0.26-0.11-0.48-0.22-0.67c-0.11-0.19-0.25-0.36-0.41-0.51l-0.12-0.12L17.29,13.01L17.29,13.01z M18.14,13.31
					c-0.19-0.09-0.42-0.14-0.66-0.14c0.12,0.13,0.22,0.27,0.31,0.42c0.12,0.21,0.2,0.44,0.24,0.73c0.01,0.04,0.04,0.07,0.08,0.08
					c0.03,0.01,0.07,0,0.11-0.01c0.04-0.01,0.09-0.03,0.13-0.07c0.13-0.1,0.23-0.28,0.18-0.55C18.5,13.56,18.35,13.41,18.14,13.31z"
					/>
				<path class="st3" d="M17.93,14.45c0.58-0.06,1.17,0.43,1.27,0.91c0.1,0.5-0.39,0.66-0.68,0.58
					C18.16,15.85,18.17,14.82,17.93,14.45z"/>
				<path class="st1" d="M17.92,14.37c0.3-0.03,0.6,0.07,0.84,0.25c0.26,0.19,0.46,0.46,0.51,0.73c0.02,0.11,0.02,0.21,0,0.29
					c-0.03,0.11-0.09,0.2-0.18,0.27c-0.08,0.06-0.18,0.1-0.28,0.12c-0.11,0.02-0.23,0.02-0.33-0.01c-0.26-0.07-0.35-0.48-0.44-0.88
					c-0.05-0.25-0.11-0.51-0.2-0.64l-0.07-0.11L17.92,14.37L17.92,14.37z M18.67,14.75c-0.18-0.13-0.39-0.21-0.61-0.22
					c0.07,0.16,0.11,0.37,0.16,0.58c0.08,0.36,0.15,0.72,0.32,0.76c0.08,0.02,0.16,0.02,0.25,0c0.08-0.02,0.15-0.04,0.21-0.09
					c0.06-0.04,0.1-0.1,0.12-0.18c0.02-0.06,0.02-0.13,0-0.22C19.07,15.15,18.9,14.92,18.67,14.75L18.67,14.75z"/>
				<path class="st3" d="M18.11,15.78c0.57,0.14,0.96,0.85,0.89,1.36c-0.07,0.54-0.59,0.53-0.84,0.34
					C17.85,17.26,18.21,16.23,18.11,15.78L18.11,15.78z"/>
				<path class="st1" d="M18.13,15.7c0.29,0.07,0.54,0.29,0.71,0.55c0.18,0.28,0.28,0.62,0.24,0.91c-0.02,0.13-0.06,0.24-0.12,0.32
					c-0.07,0.09-0.15,0.15-0.25,0.18l0,0c-0.09,0.03-0.19,0.04-0.28,0.03c-0.12-0.02-0.23-0.06-0.32-0.13
					c-0.22-0.16-0.16-0.6-0.11-1.04c0.03-0.28,0.07-0.55,0.03-0.72L18,15.67L18.13,15.7L18.13,15.7z M18.7,16.33
					c-0.13-0.19-0.3-0.35-0.5-0.44c0.01,0.18-0.02,0.41-0.05,0.64c-0.05,0.39-0.1,0.78,0.04,0.88c0.07,0.05,0.15,0.08,0.24,0.09
					c0.07,0.01,0.14,0.01,0.21-0.02l0,0c0.06-0.02,0.12-0.06,0.17-0.12c0.04-0.06,0.08-0.14,0.09-0.24
					C18.95,16.88,18.86,16.58,18.7,16.33L18.7,16.33z"/>
				<path class="st3" d="M17.97,17.22c0.37,0.27,0.59,1.08,0.4,1.58c-0.2,0.51-0.73,0.31-0.9,0.06
					C17.25,18.54,17.92,17.69,17.97,17.22L17.97,17.22z"/>
				<path class="st1" d="M18.02,17.15c0.2,0.15,0.36,0.44,0.45,0.76c0.08,0.31,0.08,0.65-0.02,0.91c-0.05,0.13-0.13,0.23-0.21,0.29
					l0,0c-0.08,0.05-0.17,0.08-0.25,0.08c-0.08,0-0.17-0.01-0.25-0.04C17.59,19.1,17.47,19,17.4,18.9
					c-0.16-0.22,0.04-0.62,0.23-1.01c0.12-0.25,0.24-0.5,0.26-0.67l0.02-0.14L18.02,17.15L18.02,17.15z M18.3,17.95
					c-0.06-0.23-0.16-0.44-0.28-0.58c-0.05,0.17-0.15,0.38-0.25,0.58c-0.17,0.35-0.34,0.71-0.24,0.85c0.06,0.08,0.15,0.15,0.26,0.19
					c0.06,0.02,0.12,0.04,0.19,0.03c0.06,0,0.12-0.02,0.17-0.05l0,0c0.06-0.04,0.11-0.11,0.15-0.21
					C18.38,18.54,18.37,18.23,18.3,17.95L18.3,17.95z"/>
				<path class="st3" d="M17.3,18.61c0.32,0.53,0.31,1.32,0.04,1.75c-0.38,0.62-0.92,0.36-0.96-0.08
					C16.35,19.9,17.14,19.05,17.3,18.61z"/>
				<path class="st1" d="M17.37,18.56c0.16,0.27,0.24,0.61,0.25,0.93c0.01,0.34-0.06,0.67-0.21,0.9c-0.12,0.19-0.25,0.31-0.38,0.36
					c-0.11,0.05-0.22,0.05-0.31,0.03c-0.1-0.02-0.19-0.08-0.25-0.15c-0.08-0.09-0.14-0.22-0.15-0.36c-0.02-0.25,0.25-0.65,0.51-1.03
					c0.18-0.26,0.35-0.51,0.41-0.68l0.06-0.17L17.37,18.56L17.37,18.56z M17.45,19.5c-0.01-0.24-0.05-0.49-0.15-0.7
					c-0.09,0.17-0.22,0.36-0.35,0.56c-0.24,0.35-0.5,0.72-0.48,0.92c0.01,0.1,0.05,0.19,0.11,0.26c0.05,0.05,0.11,0.09,0.17,0.1
					c0.07,0.02,0.14,0.01,0.21-0.02c0.1-0.04,0.21-0.14,0.31-0.3C17.4,20.11,17.46,19.81,17.45,19.5L17.45,19.5z"/>
				<path class="st3" d="M16.19,20.02c0.34,0.57,0.33,1.42,0.04,1.88c-0.41,0.67-0.98,0.38-1.03-0.08
					C15.17,21.4,16.03,20.49,16.19,20.02z"/>
				<path class="st1" d="M16.26,19.97c0.17,0.29,0.26,0.65,0.27,0.99c0.01,0.36-0.07,0.72-0.22,0.97c-0.13,0.2-0.27,0.33-0.41,0.39
					c-0.12,0.05-0.23,0.06-0.34,0.03l0,0c-0.1-0.03-0.2-0.08-0.27-0.16c-0.09-0.1-0.15-0.23-0.17-0.38
					c-0.03-0.27,0.27-0.69,0.55-1.1c0.19-0.28,0.38-0.54,0.44-0.73l0.06-0.17L16.26,19.97L16.26,19.97z M16.37,20.97
					c-0.01-0.26-0.06-0.53-0.17-0.77c-0.09,0.18-0.24,0.39-0.39,0.61c-0.26,0.38-0.54,0.78-0.52,0.99c0.01,0.11,0.06,0.21,0.12,0.28
					c0.05,0.06,0.12,0.1,0.19,0.11l0,0c0.07,0.02,0.15,0.01,0.23-0.02c0.11-0.05,0.23-0.15,0.33-0.32
					C16.3,21.63,16.37,21.31,16.37,20.97L16.37,20.97z"/>
				<path class="st3" d="M14.99,21.1c0.28,0.62,0.17,1.48-0.17,1.92c-0.5,0.63-1.05,0.28-1.04-0.21
					C13.79,22.4,14.77,21.57,14.99,21.1z"/>
				<path class="st1" d="M15.07,21.07c0.14,0.32,0.19,0.69,0.16,1.05c-0.03,0.37-0.15,0.72-0.34,0.96c-0.15,0.19-0.31,0.3-0.46,0.35
					c-0.12,0.04-0.24,0.03-0.34-0.01c-0.1-0.04-0.19-0.11-0.26-0.19c-0.08-0.11-0.13-0.25-0.12-0.4c0.01-0.28,0.35-0.67,0.69-1.06
					c0.23-0.26,0.45-0.51,0.53-0.7l0.08-0.16L15.07,21.07L15.07,21.07z M15.06,22.1c0.03-0.27,0-0.56-0.08-0.81
					c-0.12,0.17-0.29,0.37-0.47,0.58c-0.31,0.36-0.64,0.74-0.65,0.95c0,0.12,0.03,0.22,0.09,0.3c0.05,0.06,0.11,0.11,0.18,0.14
					c0.07,0.03,0.15,0.03,0.24,0c0.12-0.04,0.25-0.13,0.38-0.29C14.92,22.76,15.03,22.44,15.06,22.1L15.06,22.1z"/>
				<path class="st4" d="M12.95,21.42c-0.21,0.74-0.73,1.33-0.7,1.72c0.08,1.12,1.52,0.84,1.52,0.04
					C13.76,22.62,13.13,22.15,12.95,21.42z"/>
				<path class="st3" d="M12.95,21.84c-0.09,0.22-0.2,0.43-0.32,0.64c-0.08,0.16-0.26,0.47-0.24,0.65c0.07,0.94,1.24,0.68,1.24,0.05
					c0-0.03,0-0.05-0.01-0.08c-0.03-0.25-0.21-0.51-0.35-0.71C13.16,22.2,13.04,22.03,12.95,21.84L12.95,21.84z"/>
			</g>
			<g>
				<polygon class="st2" points="16.28,11.47 15.13,12.01 15.11,12.7 8.6,22.96 8.9,23.2 15.43,12.88 16.06,12.61 				"/>
				<path class="st5" d="M16.17,11.61l-0.96,0.45l-0.02,0.65l-0.01,0.04l-6.47,10.2l0.17,0.14l6.48-10.24l0.04-0.03l0.59-0.25
					L16.17,11.61L16.17,11.61z M15.1,11.93l1.15-0.54l0.15-0.07l-0.03,0.16l-0.23,1.15l-0.01,0.04l-0.04,0.02l-0.61,0.26l-6.51,10.3
					l-0.05,0.08l-0.07-0.06l-0.3-0.24l-0.06-0.05l0.04-0.06l6.5-10.24L15.05,12l0-0.05L15.1,11.93z"/>
				<path class="st2" d="M15.61,23.84c0.32-0.39,0.64-0.78,0.95-1.18c0.2-0.25,0.21-0.22,0.53-0.2c0.13,0.01,0.26,0.02,0.4,0.02
					c0.13-0.15,0.16-0.24,0.08-0.39c-0.22-0.09-0.44-0.21-0.64-0.31c-0.31-0.16-0.38-0.32-0.58-0.61c-0.28-0.41-0.55-0.83-0.83-1.25
					c-1.33-2.16-2.61-4.48-3.94-6.64c-0.46-0.75-0.97-1.52-1.44-2.11c-0.37,0.99,0.43,1.79,0.99,2.7c1.55,2.58,3.11,5.16,4.66,7.74
					c0.19,0.32,0.15,0.48,0.05,0.85c-0.12,0.42-0.32,0.8-0.57,1.15C15.3,23.77,15.4,23.85,15.61,23.84L15.61,23.84z"/>
				<path class="st5" d="M15.57,23.76l0.93-1.15c0.21-0.25,0.24-0.25,0.51-0.23l0,0c0.03,0,0.06,0,0.09,0.01l0.36,0.02
					c0.04-0.05,0.07-0.09,0.08-0.13c0.01-0.03,0-0.07-0.02-0.12c-0.19-0.08-0.38-0.18-0.55-0.27l-0.07-0.04l0,0
					c-0.29-0.15-0.39-0.3-0.54-0.54c-0.02-0.03-0.04-0.06-0.07-0.1l-0.83-1.25l0,0c-0.67-1.08-1.32-2.2-1.97-3.32
					c-0.65-1.12-1.3-2.24-1.97-3.32c-0.23-0.38-0.47-0.76-0.71-1.11c-0.21-0.31-0.42-0.6-0.62-0.86c-0.18,0.7,0.25,1.32,0.69,1.98
					c0.11,0.17,0.23,0.34,0.34,0.51v0l4.66,7.74c0.1,0.17,0.14,0.31,0.14,0.45c0,0.14-0.04,0.28-0.09,0.47
					c-0.06,0.22-0.14,0.42-0.24,0.62c-0.09,0.18-0.2,0.36-0.32,0.53c0.01,0.04,0.03,0.07,0.06,0.09l0,0
					C15.46,23.75,15.5,23.76,15.57,23.76L15.57,23.76z M16.63,22.71l-0.95,1.18l-0.02,0.03l-0.04,0c-0.12,0.01-0.22-0.01-0.29-0.06
					l0,0c-0.07-0.05-0.12-0.13-0.14-0.23l-0.01-0.04l0.02-0.03c0.13-0.17,0.24-0.35,0.33-0.54c0.09-0.19,0.17-0.38,0.23-0.59
					c0.05-0.18,0.08-0.31,0.08-0.42c0-0.11-0.03-0.22-0.12-0.37l-4.66-7.73l0,0c-0.11-0.17-0.22-0.34-0.34-0.5
					c-0.5-0.73-0.98-1.43-0.67-2.27l0.05-0.13l0.09,0.11c0.24,0.29,0.48,0.63,0.73,0.99c0.24,0.36,0.49,0.74,0.72,1.12
					c0.67,1.08,1.32,2.2,1.97,3.32c0.65,1.12,1.3,2.24,1.97,3.32l0.83,1.25c0.02,0.03,0.04,0.07,0.07,0.1
					c0.14,0.22,0.23,0.35,0.48,0.49l0,0l0.07,0.04c0.18,0.09,0.37,0.19,0.56,0.27l0.04,0.04c0.05,0.09,0.07,0.17,0.05,0.25
					c-0.02,0.08-0.06,0.15-0.14,0.23l-0.03,0.03l-0.04,0l-0.4-0.02c-0.04,0-0.06,0-0.09-0.01l0,0
					C16.79,22.52,16.77,22.52,16.63,22.71L16.63,22.71z"/>
				<path class="st2" d="M15,20.3c0.18-0.11,0.34-0.26,0.51-0.37c0.19-0.14,0.43,0.19,0.22,0.33c-0.18,0.13-0.31,0.26-0.48,0.39
					C15.09,20.71,14.87,20.46,15,20.3L15,20.3z"/>
				<path class="st5" d="M14.96,20.23c0.08-0.05,0.17-0.12,0.25-0.18c0.08-0.06,0.17-0.13,0.26-0.19l0,0c0.1-0.07,0.21-0.06,0.3,0
					c0.03,0.02,0.06,0.05,0.08,0.08c0.02,0.03,0.04,0.07,0.05,0.11c0.02,0.1-0.01,0.2-0.11,0.28l0,0c-0.08,0.06-0.16,0.12-0.24,0.19
					c-0.08,0.07-0.16,0.13-0.25,0.2l-0.01,0.01c-0.07,0.03-0.15,0.03-0.21-0.01c-0.05-0.02-0.09-0.06-0.12-0.1
					c-0.03-0.04-0.06-0.09-0.07-0.14c-0.01-0.07,0-0.15,0.06-0.21L14.96,20.23L14.96,20.23z M15.31,20.18
					c-0.08,0.06-0.16,0.13-0.25,0.18c-0.02,0.02-0.02,0.05-0.02,0.07c0,0.03,0.02,0.05,0.03,0.07c0.02,0.02,0.04,0.04,0.06,0.05
					c0.02,0.01,0.05,0.02,0.07,0.01c0.08-0.06,0.16-0.12,0.23-0.18c0.08-0.07,0.16-0.13,0.25-0.2l0,0c0.04-0.03,0.05-0.07,0.04-0.1
					c0-0.02-0.01-0.03-0.02-0.05c-0.01-0.02-0.02-0.03-0.04-0.04c-0.03-0.02-0.07-0.03-0.11,0l0,0
					C15.48,20.05,15.39,20.11,15.31,20.18L15.31,20.18z"/>
				<path class="st2" d="M14.89,20.41c0.09,0.01,0.18,0.18,0.16,0.27c-0.01,0.03-0.04,0.05-0.07,0.08
					c-0.04,0.03-0.06,0.05-0.11,0.05c-0.15,0-0.24-0.2-0.17-0.3C14.73,20.46,14.85,20.41,14.89,20.41L14.89,20.41z"/>
				<path class="st5" d="M14.9,20.33c0.01,0,0.01,0,0.02,0l0,0c0.06,0.02,0.12,0.07,0.16,0.14c0.04,0.06,0.06,0.14,0.05,0.2l0,0
					c0,0.01,0,0.02-0.01,0.03l0,0c-0.01,0.03-0.02,0.05-0.04,0.07c-0.02,0.02-0.03,0.03-0.05,0.05l0,0l0,0
					c-0.05,0.04-0.08,0.06-0.15,0.06c-0.05,0-0.1-0.02-0.13-0.04l0,0c-0.05-0.03-0.08-0.07-0.11-0.12c-0.03-0.05-0.04-0.1-0.04-0.15
					c0-0.04,0.01-0.08,0.03-0.12l0,0c0.02-0.03,0.07-0.07,0.12-0.09C14.81,20.34,14.87,20.33,14.9,20.33L14.9,20.33z M14.88,20.49
					L14.88,20.49c-0.01,0-0.03,0.01-0.06,0.02c-0.03,0.01-0.05,0.03-0.06,0.04l0,0c-0.01,0.01-0.01,0.02-0.01,0.04
					c0,0.02,0.01,0.05,0.02,0.07c0.01,0.02,0.03,0.04,0.05,0.05l0,0c0.01,0.01,0.03,0.02,0.05,0.02c0.02,0,0.03-0.01,0.05-0.03l0,0
					l0,0c0.01-0.01,0.02-0.02,0.03-0.03c0,0,0.01,0,0.01,0l0,0l0-0.01l0,0c0-0.03-0.01-0.07-0.03-0.1
					C14.92,20.52,14.9,20.5,14.88,20.49L14.88,20.49L14.88,20.49z"/>
				<path class="st2" d="M15.19,20.66c0.18-0.11,0.34-0.26,0.51-0.37c0.19-0.14,0.43,0.19,0.22,0.33c-0.18,0.13-0.31,0.26-0.48,0.39
					C15.27,21.07,15.05,20.82,15.19,20.66L15.19,20.66z"/>
				<path class="st5" d="M15.14,20.59c0.08-0.05,0.17-0.12,0.25-0.18c0.08-0.06,0.17-0.13,0.26-0.19l0,0c0.1-0.07,0.21-0.06,0.3,0
					c0.03,0.02,0.06,0.05,0.08,0.08c0.02,0.03,0.04,0.07,0.05,0.11c0.02,0.1-0.01,0.2-0.11,0.28l0,0c-0.08,0.06-0.16,0.12-0.24,0.19
					c-0.08,0.07-0.16,0.13-0.25,0.2l-0.01,0.01c-0.07,0.03-0.15,0.03-0.21-0.01c-0.05-0.02-0.09-0.06-0.12-0.1
					c-0.03-0.04-0.06-0.09-0.07-0.14c-0.01-0.07,0-0.15,0.06-0.21L15.14,20.59L15.14,20.59z M15.49,20.53
					c-0.08,0.06-0.16,0.13-0.25,0.18c-0.02,0.02-0.02,0.05-0.02,0.07c0,0.03,0.02,0.05,0.03,0.07c0.02,0.02,0.04,0.04,0.06,0.05
					c0.02,0.01,0.05,0.02,0.07,0.01c0.08-0.06,0.16-0.12,0.23-0.18c0.08-0.07,0.16-0.13,0.25-0.2l0,0c0.04-0.03,0.05-0.07,0.04-0.1
					c0-0.02-0.01-0.03-0.02-0.05c-0.01-0.02-0.02-0.03-0.04-0.04c-0.03-0.02-0.07-0.03-0.11,0l0,0
					C15.66,20.4,15.57,20.47,15.49,20.53L15.49,20.53z"/>
				<path class="st2" d="M15.07,20.77c0.09,0.01,0.18,0.18,0.16,0.27c-0.01,0.03-0.04,0.05-0.07,0.08
					c-0.04,0.03-0.06,0.05-0.11,0.05c-0.15,0-0.24-0.2-0.17-0.3C14.91,20.82,15.03,20.76,15.07,20.77L15.07,20.77z"/>
				<path class="st5" d="M15.09,20.69c0.01,0,0.01,0,0.02,0l0,0c0.06,0.02,0.12,0.07,0.16,0.14c0.04,0.06,0.06,0.14,0.05,0.2l0,0
					c0,0.01,0,0.02-0.01,0.03l0,0c-0.01,0.03-0.02,0.05-0.04,0.07c-0.02,0.02-0.03,0.03-0.05,0.05l0,0l0,0
					c-0.05,0.04-0.08,0.06-0.15,0.06c-0.05,0-0.1-0.02-0.13-0.04l0,0c-0.05-0.03-0.08-0.07-0.11-0.12c-0.03-0.05-0.04-0.1-0.04-0.15
					c0-0.04,0.01-0.08,0.03-0.12l0,0c0.02-0.03,0.07-0.07,0.12-0.09C14.99,20.7,15.05,20.68,15.09,20.69L15.09,20.69z M15.06,20.85
					L15.06,20.85c-0.01,0-0.03,0.01-0.06,0.02c-0.03,0.01-0.05,0.03-0.06,0.04l0,0c-0.01,0.01-0.01,0.02-0.01,0.04
					c0,0.02,0.01,0.05,0.02,0.07c0.01,0.02,0.03,0.04,0.05,0.05l0,0c0.01,0.01,0.03,0.02,0.05,0.02s0.03-0.01,0.05-0.03l0,0l0,0
					c0.01-0.01,0.02-0.02,0.03-0.03c0,0,0.01,0,0.01,0l0,0l0-0.01l0,0c0-0.03-0.01-0.07-0.03-0.1
					C15.1,20.88,15.08,20.86,15.06,20.85L15.06,20.85L15.06,20.85z"/>
				<path class="st2" d="M15.44,20.98c0.18-0.11,0.34-0.26,0.51-0.37c0.19-0.14,0.43,0.19,0.22,0.33c-0.18,0.13-0.31,0.26-0.49,0.39
					C15.52,21.39,15.3,21.14,15.44,20.98L15.44,20.98z"/>
				<path class="st5" d="M15.39,20.91c0.08-0.05,0.17-0.12,0.25-0.18c0.08-0.06,0.17-0.13,0.26-0.19l0,0c0.1-0.07,0.21-0.06,0.3,0
					c0.03,0.02,0.06,0.05,0.08,0.08c0.02,0.03,0.04,0.07,0.05,0.11c0.02,0.1-0.01,0.2-0.11,0.28l0,0c-0.08,0.06-0.16,0.12-0.24,0.19
					c-0.08,0.07-0.16,0.13-0.25,0.2l-0.01,0.01c-0.07,0.03-0.15,0.03-0.21-0.01c-0.05-0.02-0.09-0.06-0.12-0.1
					c-0.03-0.04-0.06-0.09-0.07-0.14c-0.01-0.07,0-0.15,0.06-0.21L15.39,20.91L15.39,20.91z M15.75,20.86
					c-0.08,0.06-0.16,0.13-0.25,0.18c-0.02,0.02-0.02,0.05-0.02,0.07c0,0.03,0.02,0.05,0.03,0.07c0.02,0.02,0.04,0.04,0.06,0.05
					c0.02,0.01,0.05,0.02,0.07,0.01c0.08-0.06,0.16-0.12,0.23-0.18c0.08-0.07,0.16-0.13,0.25-0.2l0,0c0.04-0.03,0.05-0.07,0.04-0.1
					c0-0.02-0.01-0.03-0.02-0.05s-0.02-0.03-0.04-0.04c-0.03-0.02-0.07-0.03-0.11,0l0,0C15.91,20.73,15.83,20.79,15.75,20.86
					L15.75,20.86z"/>
				<path class="st2" d="M15.33,21.1c0.09,0.01,0.18,0.18,0.16,0.27c-0.01,0.03-0.04,0.05-0.07,0.08c-0.04,0.03-0.06,0.05-0.11,0.05
					c-0.15,0-0.24-0.2-0.17-0.3C15.16,21.15,15.28,21.09,15.33,21.1L15.33,21.1z"/>
				<path class="st5" d="M15.34,21.02c0.01,0,0.01,0,0.02,0l0,0c0.06,0.02,0.12,0.07,0.16,0.14c0.04,0.06,0.06,0.14,0.05,0.2l0,0
					c0,0.01,0,0.02-0.01,0.03l0,0c-0.01,0.03-0.02,0.05-0.04,0.07c-0.02,0.02-0.03,0.03-0.05,0.05l0,0l0,0
					c-0.05,0.04-0.08,0.06-0.15,0.06c-0.05,0-0.1-0.02-0.13-0.04l0,0c-0.05-0.03-0.08-0.07-0.11-0.12c-0.03-0.05-0.04-0.1-0.04-0.15
					c0-0.04,0.01-0.08,0.03-0.12l0,0c0.02-0.03,0.07-0.07,0.12-0.09C15.24,21.03,15.3,21.01,15.34,21.02L15.34,21.02z M15.32,21.18
					L15.32,21.18c-0.01,0-0.03,0.01-0.06,0.02c-0.03,0.01-0.05,0.03-0.06,0.04l0,0c-0.01,0.01-0.01,0.02-0.01,0.04
					c0,0.02,0.01,0.05,0.02,0.07c0.01,0.02,0.03,0.04,0.05,0.05l0,0c0.01,0.01,0.03,0.02,0.05,0.02s0.03-0.01,0.05-0.03l0,0l0,0
					c0.01-0.01,0.02-0.02,0.03-0.03c0,0,0.01,0,0.01,0l0,0l0-0.01l0,0c0-0.03-0.01-0.07-0.03-0.1
					C15.36,21.21,15.34,21.18,15.32,21.18L15.32,21.18L15.32,21.18z"/>
				<path class="st2" d="M15.65,21.36c0.18-0.11,0.34-0.26,0.51-0.37c0.19-0.14,0.43,0.19,0.22,0.33c-0.18,0.13-0.31,0.26-0.49,0.39
					C15.73,21.77,15.51,21.52,15.65,21.36L15.65,21.36z"/>
				<path class="st5" d="M15.61,21.29c0.08-0.05,0.17-0.12,0.25-0.18c0.08-0.06,0.17-0.13,0.26-0.19l0,0c0.1-0.07,0.21-0.06,0.3,0
					c0.03,0.02,0.06,0.05,0.08,0.08c0.02,0.03,0.04,0.07,0.05,0.11c0.02,0.1-0.01,0.2-0.11,0.28l0,0c-0.08,0.06-0.16,0.12-0.24,0.19
					c-0.08,0.07-0.16,0.13-0.25,0.2l-0.01,0.01c-0.07,0.03-0.15,0.03-0.21-0.01c-0.05-0.02-0.09-0.06-0.12-0.1
					c-0.03-0.04-0.06-0.09-0.07-0.14c-0.01-0.07,0-0.15,0.06-0.21L15.61,21.29L15.61,21.29z M15.96,21.24
					c-0.08,0.06-0.16,0.13-0.25,0.18c-0.02,0.02-0.02,0.05-0.02,0.07s0.02,0.05,0.03,0.07c0.02,0.02,0.04,0.04,0.06,0.05
					c0.02,0.01,0.05,0.02,0.07,0.01c0.08-0.06,0.16-0.12,0.23-0.18c0.08-0.07,0.16-0.13,0.25-0.2l0,0c0.04-0.03,0.05-0.07,0.04-0.1
					c0-0.02-0.01-0.03-0.02-0.05c-0.01-0.02-0.02-0.03-0.04-0.04c-0.03-0.02-0.07-0.03-0.11,0l0,0
					C16.12,21.11,16.04,21.17,15.96,21.24L15.96,21.24z"/>
				<path class="st2" d="M15.54,21.47c0.09,0.01,0.18,0.18,0.16,0.27c-0.01,0.03-0.04,0.05-0.07,0.08
					c-0.04,0.03-0.06,0.05-0.11,0.05c-0.15,0-0.24-0.2-0.17-0.3C15.37,21.53,15.49,21.47,15.54,21.47L15.54,21.47z"/>
				<path class="st5" d="M15.55,21.39c0.01,0,0.01,0,0.02,0l0,0c0.06,0.02,0.12,0.07,0.16,0.14c0.04,0.06,0.06,0.14,0.05,0.2l0,0
					c0,0.01,0,0.02-0.01,0.03l0,0c-0.01,0.03-0.02,0.05-0.04,0.07c-0.02,0.02-0.03,0.03-0.05,0.05l0,0l0,0
					c-0.05,0.04-0.08,0.06-0.15,0.06c-0.05,0-0.1-0.02-0.13-0.04l0,0c-0.05-0.03-0.08-0.07-0.11-0.12c-0.03-0.05-0.04-0.1-0.04-0.15
					c0-0.04,0.01-0.08,0.03-0.12l0,0c0.02-0.03,0.07-0.07,0.12-0.09C15.45,21.4,15.51,21.39,15.55,21.39L15.55,21.39z M15.53,21.56
					L15.53,21.56c-0.01,0-0.03,0.01-0.06,0.02c-0.03,0.01-0.05,0.03-0.06,0.04l0,0c-0.01,0.01-0.01,0.02-0.01,0.04
					c0,0.02,0.01,0.05,0.02,0.07c0.01,0.02,0.03,0.04,0.05,0.05l0,0c0.01,0.01,0.03,0.02,0.05,0.02c0.02,0,0.03-0.01,0.05-0.03l0,0
					l0,0c0.01-0.01,0.02-0.02,0.03-0.03c0,0,0.01,0,0.01,0l0,0l0-0.01l0,0c0-0.03-0.01-0.07-0.03-0.1
					C15.57,21.59,15.55,21.56,15.53,21.56L15.53,21.56L15.53,21.56z"/>
			</g>
			<g>
				<polygon class="st4" points="12.8,0.95 13.39,2.79 15.33,2.78 13.76,3.91 14.36,5.74 12.8,4.61 11.23,5.74 11.83,3.91 
					10.27,2.78 12.2,2.79 				"/>
				<polygon class="st3" points="12.8,1.25 12.27,2.88 10.55,2.87 11.94,3.88 11.41,5.5 12.8,4.49 14.18,5.5 13.65,3.88 15.04,2.87 
					13.32,2.88 				"/>
			</g>
			<g>
				<g>
					<polygon class="st6" points="12.9,11.07 12.9,21.15 10.79,18.93 10.79,13.38 					"/>
					<polygon class="st3" points="12.9,11.07 12.9,21.15 15.01,18.93 15.01,13.38 					"/>
				</g>
				<path class="st1" d="M15.01,17.03l-0.08,0.05c-0.42,0.3-0.85,0.61-0.66,1.01c0.01,0.02,0.02,0.03,0.03,0.04
					c0.03,0.02,0.09,0.01,0.15-0.03c0.08-0.04,0.18-0.11,0.28-0.2c0.1-0.08,0.19-0.18,0.27-0.27v0.24
					c-0.05,0.05-0.11,0.11-0.16,0.16c-0.11,0.09-0.22,0.17-0.32,0.22c-0.12,0.06-0.23,0.07-0.31,0.02c-0.04-0.02-0.07-0.06-0.09-0.1
					c-0.25-0.52,0.24-0.88,0.71-1.22c0.06-0.04,0.12-0.08,0.17-0.13L15.01,17.03L15.01,17.03z M12.9,21.15l-0.05-0.05
					c-0.06-1.1-0.31-2.18-0.75-3.12c-0.33-0.71-0.77-1.34-1.32-1.82v-0.22c0.61,0.51,1.1,1.19,1.47,1.96
					c0.36,0.78,0.6,1.66,0.71,2.56c0.02,0.19-0.05,0.37-0.04,0.56L12.9,21.15L12.9,21.15z M11.99,20.19l-0.16-0.17l0-0.33
					c0-0.25-0.08-0.52-0.15-0.76c-0.04-0.13-0.08-0.25-0.1-0.36c-0.08-0.38-0.34-0.68-0.6-0.97c-0.07-0.08-0.13-0.15-0.2-0.23V17.1
					c0.1,0.13,0.21,0.26,0.32,0.38c0.27,0.31,0.55,0.62,0.64,1.04c0.02,0.1,0.06,0.22,0.1,0.35c0.08,0.26,0.16,0.54,0.16,0.81
					L11.99,20.19z M11.52,19.69l-0.15-0.16c0.01-0.26-0.06-0.49-0.17-0.7c-0.1-0.19-0.25-0.35-0.41-0.5v-0.22
					c0.22,0.18,0.42,0.39,0.56,0.64C11.49,19.03,11.57,19.34,11.52,19.69z M10.78,13.44v-0.05l0.08-0.09
					c0.17,0.13,0.31,0.32,0.43,0.55c0.27,0.51,0.41,1.18,0.41,1.64c0,0.28,0.1,0.5,0.2,0.72l0,0c0.06,0.14,0.13,0.27,0.17,0.43
					c0.07,0.26,0.43,0.45,0.69,0.59c0.05,0.03,0.09,0.05,0.13,0.07v0.19c-0.05-0.03-0.13-0.07-0.21-0.12
					c-0.29-0.16-0.69-0.37-0.77-0.7c-0.04-0.14-0.1-0.27-0.16-0.4l0,0c-0.11-0.24-0.22-0.47-0.22-0.78c0-0.44-0.13-1.08-0.39-1.56
					C11.04,13.72,10.92,13.55,10.78,13.44L10.78,13.44z M13.08,17.42c0.08-0.15,0.17-0.28,0.28-0.42c0.09-0.13,0.2-0.26,0.3-0.44
					c0.26-0.44,0.29-0.96,0.33-1.48c0.05-0.75,0.1-1.48,0.78-1.96l0.11,0.12c-0.63,0.44-0.68,1.14-0.73,1.85
					c-0.04,0.54-0.08,1.09-0.35,1.55c-0.11,0.18-0.21,0.32-0.31,0.45c-0.24,0.31-0.42,0.56-0.42,1.16c0,0.54,0.24,0.94,0.61,1.21
					c0.16,0.12,0.35,0.21,0.55,0.29l-0.12,0.13c-0.19-0.08-0.37-0.17-0.53-0.29c-0.41-0.3-0.67-0.74-0.67-1.34
					c0-0.34,0.05-0.57,0.14-0.76L13.08,17.42L13.08,17.42z M11.48,12.62l0.11-0.12c0.28,0.25,0.36,0.78,0.45,1.32
					c0.11,0.72,0.23,1.46,0.81,1.46c0.77,0,0.78-0.75,0.8-1.46c0.01-0.63,0.03-1.24,0.51-1.37l0.13,0.14
					c-0.46,0.06-0.47,0.63-0.48,1.23c-0.02,0.79-0.03,1.62-0.96,1.62c-0.72,0-0.85-0.81-0.97-1.6
					C11.8,13.33,11.72,12.83,11.48,12.62z M15.01,14.36v0.22c-0.33,0.32-0.41,0.81-0.49,1.32c-0.05,0.33-0.11,0.66-0.23,0.97
					c-0.05,0.12-0.09,0.24-0.14,0.35c-0.18,0.44-0.32,0.8-0.32,1.07l0,0c0,0.36,0.29,0.58,1.17,0.65l-0.14,0.15
					c-0.9-0.09-1.19-0.36-1.19-0.8l0,0c0-0.3,0.15-0.68,0.33-1.13c0.04-0.11,0.09-0.23,0.14-0.35c0.11-0.29,0.17-0.62,0.22-0.94
					C14.46,15.27,14.55,14.69,15.01,14.36L15.01,14.36z M12.9,12.73c-0.1,0.1-0.16,0.2-0.2,0.32c-0.04,0.13-0.06,0.29-0.06,0.47
					c0,0.13,0.02,0.23,0.05,0.32c0.04,0.09,0.1,0.18,0.18,0.29c0.01,0.01,0.02,0.02,0.03,0.03c0.03,0.02,0.05,0.03,0.08,0.02
					c0.03,0,0.06-0.02,0.09-0.04c0.02-0.01,0.03-0.03,0.04-0.04c0.02-0.03,0.04-0.07,0.06-0.11c0.07-0.18,0.05-0.45-0.01-0.7
					C13.11,13.03,13.01,12.81,12.9,12.73L12.9,12.73z M12.54,12.99c0.05-0.16,0.14-0.29,0.29-0.43l0.04-0.03l0.05,0.02
					c0.03,0.01,0.06,0.03,0.08,0.05c0.13,0.11,0.26,0.36,0.33,0.64c0.07,0.28,0.08,0.58,0,0.8c-0.02,0.06-0.05,0.11-0.08,0.15
					c-0.02,0.03-0.04,0.05-0.07,0.07c-0.05,0.04-0.11,0.07-0.18,0.08c-0.07,0.01-0.14-0.01-0.2-0.06c-0.02-0.01-0.03-0.03-0.05-0.05
					c-0.09-0.12-0.16-0.22-0.21-0.33c-0.05-0.11-0.07-0.23-0.07-0.39C12.48,13.31,12.49,13.15,12.54,12.99L12.54,12.99z"/>
				<path class="st1" d="M12.98,20.94l1.95-2.05v-5.48l-1.95-2.14V20.94z M12.82,20.94v-9.66l-1.95,2.14v5.48L12.82,20.94z
					 M15.07,18.98l-2.11,2.22l-0.06,0.06l-0.06-0.06l-2.11-2.22l-0.02-0.06v-5.54l0.02-0.06l2.11-2.31l0.06-0.07l0.06,0.07
					l2.11,2.31l0.02,0.06v5.54L15.07,18.98L15.07,18.98z"/>
			</g>
			<g>
				<path class="st3" d="M1.29,11.69c0.93,0.06,1.83,0.04,2.61,0.07c-0.4,0.94-0.59,1.88-0.7,2.83c1.53-1.11,3.07-2.16,4.68-2.69
					C7.11,10.89,6.4,9.95,5.7,9.01C4.1,9.61,2.58,10.55,1.29,11.69L1.29,11.69z"/>
				<path class="st5" d="M1.49,11.62c0.53,0.03,1.04,0.03,1.52,0.04c0.31,0,0.6,0.01,0.88,0.02l0.12,0l-0.05,0.11
					c-0.37,0.87-0.56,1.74-0.67,2.62c0.72-0.52,1.43-1.02,2.16-1.46c0.75-0.45,1.5-0.83,2.28-1.1c-0.36-0.47-0.7-0.92-1.04-1.37
					C6.34,10,6,9.56,5.67,9.11C4.91,9.4,4.16,9.77,3.45,10.21C2.76,10.62,2.1,11.1,1.49,11.62L1.49,11.62z M3.02,11.82
					c-0.55-0.01-1.14-0.01-1.74-0.05l-0.05-0.14c0.66-0.58,1.37-1.11,2.13-1.56C4.1,9.62,4.88,9.23,5.67,8.94l0.06-0.02l0.04,0.05
					c0.36,0.48,0.72,0.96,1.06,1.42c0.36,0.48,0.73,0.97,1.1,1.46L8,11.93l-0.11,0.04c-0.8,0.26-1.58,0.66-2.35,1.12
					c-0.77,0.47-1.54,1.01-2.3,1.56l-0.15,0.11l0.02-0.19c0.1-0.91,0.29-1.83,0.66-2.74C3.53,11.83,3.28,11.83,3.02,11.82
					L3.02,11.82z"/>
				<path class="st3" d="M24.59,11.69c-0.93,0.06-1.83,0.04-2.61,0.07c0.4,0.94,0.59,1.88,0.7,2.83c-1.53-1.11-3.07-2.16-4.68-2.69
					c0.76-0.99,1.46-1.94,2.16-2.87C21.77,9.61,23.3,10.55,24.59,11.69L24.59,11.69z"/>
				<path class="st5" d="M24.6,11.77c-0.6,0.04-1.19,0.04-1.74,0.05c-0.26,0-0.51,0.01-0.75,0.01c0.37,0.91,0.56,1.83,0.66,2.74
					l0.02,0.19l-0.15-0.11c-0.76-0.55-1.53-1.09-2.3-1.56c-0.77-0.46-1.55-0.86-2.35-1.12l-0.11-0.04l0.07-0.09
					c0.38-0.49,0.74-0.98,1.1-1.46c0.34-0.46,0.7-0.94,1.06-1.42l0.04-0.05l0.06,0.02c0.8,0.3,1.57,0.68,2.31,1.13
					c0.76,0.46,1.47,0.99,2.13,1.56L24.6,11.77L24.6,11.77z M22.86,11.66c0.48-0.01,1-0.01,1.52-0.04c-0.61-0.52-1.26-1-1.95-1.42
					c-0.71-0.43-1.46-0.8-2.23-1.09c-0.33,0.44-0.67,0.89-1.02,1.37c-0.33,0.44-0.68,0.9-1.04,1.37c0.77,0.27,1.53,0.65,2.28,1.1
					c0.73,0.44,1.45,0.94,2.16,1.46c-0.11-0.87-0.31-1.75-0.67-2.62l-0.05-0.11l0.12,0C22.26,11.66,22.55,11.66,22.86,11.66
					L22.86,11.66z"/>
				<path class="st3" d="M5.09,8.44c5.45-2.67,10.58-2.39,15.49-0.11c-0.06,0.17,0.12,0.6,0.06,0.77c-0.04,0.12-0.32-0.03-0.37,0.09
					c-0.3,0.83-0.59,1.65-0.89,2.47c-4.35-1.83-8.8-1.68-13.32-0.43C5.74,10.3,5.41,9.37,5.09,8.44L5.09,8.44z"/>
				<path class="st5" d="M5.07,8.4c2.73-1.34,5.38-1.94,7.96-1.91c2.58,0.02,5.1,0.66,7.56,1.81l0.03,0.02l-0.01,0.03
					c-0.03,0.07,0,0.22,0.03,0.36c0.03,0.16,0.06,0.31,0.03,0.41c-0.03,0.09-0.13,0.08-0.23,0.07c-0.07-0.01-0.13-0.01-0.14,0.02
					l-0.89,2.47l-0.02,0.04l-0.04-0.02c-2.17-0.91-4.36-1.33-6.58-1.37c-2.22-0.03-4.46,0.31-6.71,0.94l-0.04,0.01l-0.01-0.04
					l-0.97-2.8l0.04-0.01L5.07,8.4L5.07,8.4z M13.04,6.57c-2.56-0.02-5.19,0.57-7.89,1.89l0.95,2.73c2.25-0.62,4.49-0.97,6.7-0.93
					c2.21,0.03,4.41,0.45,6.57,1.36l0.88-2.43c0.03-0.09,0.13-0.08,0.23-0.07c0.07,0.01,0.13,0.01,0.14-0.02
					c0.03-0.07,0-0.22-0.03-0.36c-0.03-0.14-0.05-0.27-0.04-0.37C18.09,7.22,15.6,6.59,13.04,6.57L13.04,6.57z"/>
				<path class="st3" d="M4.84,8.21c0.56,0.62,1.01,0.4,1.68-0.2C5.98,7.37,5.54,7.83,4.84,8.21z"/>
				<path class="st5" d="M4.97,8.23C5.2,8.46,5.4,8.53,5.62,8.48C5.85,8.44,6.1,8.26,6.41,8c-0.38-0.4-0.73-0.19-1.2,0.09
					C5.13,8.14,5.05,8.18,4.97,8.23L4.97,8.23z M5.65,8.65C5.35,8.7,5.08,8.6,4.78,8.26L4.71,8.19L4.8,8.14
					c0.11-0.06,0.22-0.13,0.32-0.19c0.56-0.34,0.97-0.58,1.47,0.01l0.05,0.06L6.58,8.07C6.23,8.38,5.93,8.59,5.65,8.65z"/>
				<path class="st3" d="M6.1,7.63C6.34,7.9,6.59,8.09,6.85,8.05c0.36-0.05,0.68-0.15,1.07-0.49C7.38,6.93,6.8,7.25,6.1,7.63
					L6.1,7.63z"/>
				<path class="st5" d="M6.23,7.65c0.09,0.1,0.19,0.18,0.28,0.24c0.11,0.07,0.22,0.1,0.33,0.09c0.18-0.02,0.34-0.06,0.51-0.13
					c0.15-0.06,0.3-0.15,0.45-0.28c-0.23-0.24-0.47-0.3-0.72-0.26C6.82,7.34,6.54,7.48,6.23,7.65L6.23,7.65z M6.43,8.03
					c-0.13-0.08-0.26-0.2-0.39-0.34L5.97,7.61l0.09-0.05c0.36-0.19,0.68-0.37,1-0.42c0.33-0.05,0.63,0.03,0.93,0.38l0.05,0.06
					L7.97,7.63C7.77,7.8,7.59,7.92,7.41,7.99C7.23,8.07,7.05,8.11,6.86,8.13C6.71,8.15,6.57,8.11,6.43,8.03L6.43,8.03z"/>
				<path class="st3" d="M7.28,7.2c0.24,0.26,0.48,0.44,0.74,0.43c0.37-0.02,0.72-0.1,1.1-0.38C8.58,6.57,7.98,6.82,7.28,7.2
					L7.28,7.2z"/>
				<path class="st5" d="M7.41,7.22C7.5,7.32,7.59,7.39,7.68,7.45c0.11,0.07,0.22,0.11,0.33,0.1c0.18-0.01,0.35-0.03,0.52-0.09
					C8.69,7.42,8.84,7.34,9,7.24C8.77,6.97,8.52,6.89,8.26,6.91C8,6.93,7.71,7.06,7.41,7.22L7.41,7.22z M7.59,7.59
					c-0.13-0.08-0.25-0.2-0.38-0.33L7.15,7.18l0.09-0.05c0.36-0.2,0.69-0.36,1.01-0.38C8.58,6.72,8.89,6.84,9.18,7.2l0.05,0.07
					L9.17,7.32c-0.2,0.15-0.39,0.24-0.58,0.3C8.4,7.68,8.21,7.71,8.02,7.72C7.87,7.72,7.73,7.68,7.59,7.59L7.59,7.59z"/>
				<path class="st3" d="M8.54,6.78c0.19,0.21,0.37,0.43,0.59,0.46c0.42,0.05,0.92-0.02,1.24-0.25C9.97,6.23,9.24,6.4,8.54,6.78z"/>
				<path class="st5" d="M8.53,6.89L8.48,6.83L8.41,6.76L8.5,6.7c0.36-0.2,0.73-0.34,1.07-0.33c0.35,0.01,0.66,0.17,0.87,0.58
					l0.03,0.06l-0.06,0.04c-0.16,0.12-0.36,0.2-0.58,0.24C9.6,7.34,9.35,7.35,9.11,7.32C8.89,7.29,8.71,7.09,8.53,6.89L8.53,6.89z
					 M8.67,6.8c0.15,0.17,0.31,0.34,0.46,0.35C9.35,7.18,9.59,7.18,9.8,7.13c0.17-0.03,0.32-0.09,0.45-0.17
					c-0.18-0.3-0.42-0.42-0.69-0.42C9.29,6.53,8.98,6.64,8.67,6.8L8.67,6.8z"/>
				<path class="st3" d="M4.79,8.31c1.32,0.56,0.98,1.28,1.11,1.85C5.55,9.51,4.79,10.1,4.79,8.31z"/>
				<path class="st5" d="M4.82,8.23c1.07,0.46,1.1,1.01,1.12,1.52c0.01,0.13,0.01,0.27,0.04,0.39L5.83,10.2
					C5.72,10,5.57,9.93,5.41,9.86C5.06,9.7,4.7,9.54,4.71,8.31V8.19L4.82,8.23L4.82,8.23z M5.78,9.76c-0.02-0.44-0.04-0.92-0.9-1.32
					c0.02,1.01,0.31,1.14,0.6,1.27c0.11,0.05,0.21,0.1,0.31,0.18C5.78,9.84,5.78,9.8,5.78,9.76z"/>
				<path class="st3" d="M9.89,6.51c0.29,0.42,0.3,0.57,0.63,0.57c0.55-0.01,0.86-0.05,1.16-0.27c-0.21-0.4-0.4-0.56-0.73-0.57
					C10.64,6.23,10.22,6.33,9.89,6.51z"/>
				<path class="st5" d="M10.01,6.54c0.04,0.05,0.07,0.1,0.09,0.14l0,0C10.24,6.92,10.3,7,10.51,7c0.27,0,0.48-0.02,0.66-0.05
					c0.15-0.03,0.28-0.08,0.4-0.16c-0.09-0.15-0.17-0.27-0.26-0.34c-0.1-0.08-0.22-0.12-0.36-0.12c-0.14-0.01-0.32,0.02-0.5,0.06
					C10.29,6.42,10.14,6.48,10.01,6.54z M9.96,6.78L9.96,6.78C9.92,6.71,9.87,6.64,9.82,6.56L9.77,6.49l0.08-0.04
					c0.17-0.09,0.36-0.17,0.55-0.22c0.19-0.05,0.39-0.08,0.55-0.07c0.18,0.01,0.33,0.06,0.46,0.16c0.13,0.1,0.23,0.25,0.34,0.45
					l0.03,0.06l-0.06,0.04C11.56,7,11.4,7.07,11.2,7.11c-0.19,0.04-0.41,0.05-0.69,0.06C10.21,7.17,10.14,7.06,9.96,6.78L9.96,6.78z
					"/>
				<path class="st3" d="M11.3,6.37c0.16,0.4,0.31,0.56,0.66,0.58c0.29,0.02,0.78,0.05,1.01-0.13c-0.15-0.29-0.32-0.5-0.56-0.57
					C11.98,6.14,11.46,6.24,11.3,6.37L11.3,6.37z"/>
				<path class="st5" d="M11.4,6.4c0.07,0.15,0.13,0.26,0.21,0.34c0.09,0.08,0.2,0.12,0.35,0.13c0.14,0.01,0.33,0.02,0.51,0.01
					c0.14-0.01,0.28-0.03,0.38-0.08c-0.06-0.11-0.13-0.2-0.2-0.28c-0.08-0.09-0.17-0.15-0.28-0.18c-0.18-0.05-0.38-0.06-0.57-0.04
					C11.64,6.32,11.49,6.36,11.4,6.4L11.4,6.4z M11.5,6.86c-0.11-0.1-0.2-0.25-0.28-0.46L11.2,6.35l0.05-0.04
					c0.1-0.08,0.31-0.15,0.55-0.17c0.2-0.02,0.43-0.01,0.63,0.04c0.14,0.04,0.26,0.12,0.36,0.23c0.1,0.1,0.18,0.24,0.26,0.38
					l0.03,0.06l-0.05,0.04c-0.13,0.1-0.33,0.14-0.53,0.16c-0.19,0.01-0.39,0-0.54-0.01C11.76,7.02,11.62,6.97,11.5,6.86L11.5,6.86z"
					/>
				<path class="st3" d="M12.55,6.33c0.16,0.4,0.26,0.59,0.61,0.62c0.29,0.02,0.78,0.05,1.01-0.13c-0.15-0.29-0.32-0.5-0.56-0.57
					C13.18,6.13,12.71,6.19,12.55,6.33L12.55,6.33z"/>
				<path class="st5" d="M12.65,6.36c0.07,0.16,0.12,0.28,0.19,0.36c0.07,0.08,0.17,0.13,0.32,0.14c0.14,0.01,0.33,0.02,0.51,0.01
					c0.14-0.01,0.28-0.03,0.38-0.08c-0.06-0.11-0.13-0.2-0.2-0.28c-0.08-0.09-0.17-0.15-0.28-0.18c-0.19-0.05-0.39-0.07-0.56-0.05
					C12.86,6.28,12.74,6.32,12.65,6.36L12.65,6.36z M12.72,6.83c-0.1-0.11-0.16-0.27-0.25-0.47L12.45,6.3l0.05-0.04
					c0.1-0.08,0.28-0.14,0.5-0.15c0.19-0.01,0.41,0,0.62,0.06c0.14,0.04,0.26,0.12,0.36,0.23c0.1,0.1,0.18,0.24,0.26,0.38l0.03,0.06
					l-0.05,0.04c-0.13,0.1-0.33,0.14-0.53,0.16c-0.19,0.01-0.39,0-0.54-0.01C12.95,7.01,12.82,6.95,12.72,6.83L12.72,6.83z"/>
				<path class="st3" d="M13.8,6.33c0.13,0.41,0.3,0.66,0.64,0.71c0.29,0.04,0.76,0.06,1.01-0.03c-0.13-0.29-0.28-0.53-0.52-0.61
					C14.53,6.25,13.97,6.21,13.8,6.33L13.8,6.33z"/>
				<path class="st5" d="M13.9,6.37c0.05,0.16,0.12,0.29,0.2,0.39c0.09,0.1,0.2,0.17,0.35,0.19C14.6,6.98,14.81,7,15,6.99
					c0.12,0,0.23-0.01,0.33-0.03c-0.05-0.11-0.1-0.2-0.17-0.28c-0.07-0.09-0.16-0.16-0.27-0.2l0,0c-0.2-0.07-0.43-0.12-0.64-0.13
					C14.11,6.34,13.98,6.35,13.9,6.37z M13.97,6.87c-0.11-0.13-0.19-0.3-0.25-0.52L13.7,6.3l0.05-0.03c0.1-0.07,0.3-0.09,0.52-0.08
					c0.22,0.01,0.47,0.06,0.68,0.14l0,0c0.13,0.05,0.24,0.14,0.34,0.25c0.09,0.11,0.16,0.25,0.23,0.4l0.03,0.08l-0.08,0.03
					c-0.12,0.04-0.29,0.06-0.46,0.06c-0.2,0.01-0.42-0.01-0.58-0.03C14.23,7.09,14.09,7,13.97,6.87L13.97,6.87z"/>
				<path class="st3" d="M15.03,6.47c0.08,0.27,0.14,0.4,0.39,0.55c0.33,0.21,0.9,0.38,1.27,0.26c-0.08-0.2-0.15-0.51-0.36-0.66
					C15.98,6.36,15.44,6.29,15.03,6.47z"/>
				<path class="st5" d="M15.13,6.52c0.03,0.09,0.06,0.17,0.1,0.23c0.05,0.08,0.12,0.14,0.23,0.21c0.17,0.11,0.41,0.21,0.65,0.25
					c0.16,0.03,0.33,0.04,0.47,0.02l-0.02-0.06c-0.06-0.17-0.13-0.37-0.28-0.48c-0.17-0.12-0.38-0.2-0.6-0.22
					C15.49,6.44,15.3,6.46,15.13,6.52L15.13,6.52z M15.09,6.83c-0.06-0.09-0.1-0.2-0.14-0.34l-0.02-0.07L15,6.4
					c0.22-0.1,0.46-0.13,0.7-0.1c0.25,0.03,0.49,0.12,0.68,0.25c0.19,0.13,0.27,0.36,0.34,0.56c0.02,0.05,0.04,0.1,0.05,0.14
					l0.03,0.08l-0.08,0.03c-0.19,0.06-0.41,0.06-0.64,0.01c-0.26-0.05-0.52-0.16-0.71-0.28C15.24,7.01,15.16,6.93,15.09,6.83z"/>
				<path class="st3" d="M16.33,6.62c0.08,0.27,0.12,0.51,0.36,0.66c0.33,0.21,0.82,0.39,1.2,0.27c-0.08-0.2-0.15-0.51-0.36-0.66
					C17.18,6.63,16.76,6.55,16.33,6.62z"/>
				<path class="st5" d="M16.43,6.69l0.01,0.02c0.06,0.21,0.11,0.39,0.29,0.5c0.18,0.11,0.4,0.22,0.62,0.27
					c0.14,0.03,0.29,0.04,0.42,0.02c-0.01-0.02-0.02-0.04-0.02-0.06l0,0c-0.06-0.17-0.13-0.37-0.28-0.48
					c-0.16-0.12-0.34-0.2-0.53-0.24C16.79,6.68,16.61,6.67,16.43,6.69z M16.28,6.75c-0.01-0.04-0.02-0.08-0.03-0.11l-0.03-0.09
					l0.09-0.01c0.23-0.03,0.46-0.03,0.67,0.02c0.21,0.05,0.41,0.13,0.59,0.27c0.19,0.13,0.27,0.36,0.34,0.56l0,0
					c0.02,0.05,0.04,0.1,0.05,0.14L18,7.6l-0.08,0.03c-0.19,0.06-0.39,0.05-0.59,0.01c-0.24-0.05-0.48-0.17-0.68-0.29
					C16.41,7.2,16.35,6.99,16.28,6.75L16.28,6.75z"/>
				<path class="st3" d="M17.55,6.95c0.08,0.27,0.12,0.51,0.36,0.66c0.33,0.21,0.82,0.5,1.2,0.38c-0.08-0.2-0.18-0.52-0.4-0.67
					C18.37,7.06,17.98,6.91,17.55,6.95L17.55,6.95z"/>
				<path class="st5" d="M17.66,7.02l0,0.01c0.06,0.21,0.11,0.39,0.29,0.5c0.16,0.1,0.37,0.23,0.57,0.31
					c0.16,0.06,0.33,0.1,0.47,0.08L19,7.91c-0.07-0.18-0.17-0.42-0.33-0.53c-0.18-0.13-0.36-0.23-0.56-0.29
					C17.97,7.04,17.82,7.02,17.66,7.02L17.66,7.02z M17.51,7.08c-0.01-0.04-0.03-0.09-0.03-0.11l-0.03-0.1l0.1-0.01
					c0.21-0.02,0.42,0.01,0.62,0.07c0.21,0.07,0.42,0.18,0.61,0.31c0.2,0.14,0.3,0.4,0.38,0.61c0.02,0.04,0.03,0.08,0.04,0.1
					l0.03,0.08l-0.08,0.03C18.93,8.13,18.7,8.09,18.47,8c-0.22-0.09-0.43-0.21-0.6-0.32C17.64,7.53,17.58,7.32,17.51,7.08
					L17.51,7.08z"/>
				<path class="st3" d="M18.78,7.32c0.08,0.27,0.23,0.5,0.46,0.73c0.28,0.28,1.13,0.78,1.53,0.89c0.01-0.28-0.33-0.96-0.57-1.12
					C19.85,7.58,19.21,7.28,18.78,7.32L18.78,7.32z"/>
				<path class="st5" d="M18.9,7.4c0.03,0.09,0.08,0.18,0.13,0.26c0.07,0.11,0.16,0.22,0.27,0.33c0.14,0.13,0.42,0.33,0.72,0.5
					c0.23,0.14,0.47,0.26,0.66,0.33c-0.03-0.13-0.09-0.29-0.17-0.46c-0.11-0.21-0.24-0.4-0.35-0.48c-0.19-0.13-0.47-0.28-0.76-0.38
					C19.23,7.45,19.05,7.4,18.9,7.4z M18.89,7.74c-0.08-0.13-0.14-0.26-0.18-0.4l-0.03-0.1l0.1-0.01c0.2-0.02,0.44,0.03,0.68,0.12
					c0.3,0.1,0.59,0.26,0.79,0.4c0.13,0.09,0.29,0.31,0.4,0.54c0.12,0.24,0.21,0.5,0.2,0.65l0,0.1l-0.1-0.03
					c-0.2-0.06-0.52-0.21-0.81-0.38c-0.31-0.18-0.6-0.38-0.75-0.53C19.07,7.99,18.97,7.87,18.89,7.74L18.89,7.74z"/>
				<path class="st3" d="M18.47,11.25c0.47-0.33,0.9-0.6,1.31-0.84c-0.1,0.47-0.16,0.76-0.25,1.23c-0.08-0.05-0.21,0.08-0.29,0.03
					C18.98,11.54,18.72,11.39,18.47,11.25L18.47,11.25z"/>
				<path class="st5" d="M18.42,11.19c0.23-0.16,0.46-0.31,0.68-0.45c0.22-0.14,0.44-0.27,0.64-0.39l0.16-0.09l-0.04,0.18
					l-0.25,1.23l-0.12,0.06c-0.01,0-0.04,0.04-0.07,0.05c-0.07,0.03-0.15,0.03-0.22-0.02l-0.77-0.43l0.04-0.07L18.42,11.19
					L18.42,11.19z M19.19,10.87c-0.18,0.12-0.37,0.24-0.57,0.38l0.65,0.36c0.01,0,0.04-0.01,0.08-0.02
					c0.04-0.02,0.07-0.03,0.11-0.03l0.2-0.97C19.51,10.67,19.35,10.77,19.19,10.87L19.19,10.87z"/>
				<path class="st3" d="M20.1,9.87c-0.51,0.11-0.67,0.56-0.77,1.04c-0.05,0.25,0.09,0.54,0.15,0.76c0.36-0.12,0.66-0.56,0.74-1.19
					C20.23,10.27,20.2,10.08,20.1,9.87L20.1,9.87z"/>
				<path class="st5" d="M20.05,9.97c-0.2,0.06-0.33,0.18-0.43,0.33c-0.11,0.18-0.17,0.4-0.22,0.63l0,0
					c-0.03,0.17,0.03,0.37,0.09,0.55c0.01,0.03,0.02,0.05,0.03,0.08c0.14-0.07,0.26-0.19,0.36-0.35c0.12-0.19,0.2-0.44,0.24-0.74
					c0.01-0.1,0.01-0.19-0.01-0.28C20.11,10.11,20.09,10.04,20.05,9.97L20.05,9.97z M19.48,10.21c0.13-0.2,0.31-0.36,0.6-0.42
					l0.06-0.01l0.03,0.06c0.06,0.11,0.09,0.22,0.11,0.33c0.02,0.11,0.02,0.22,0.01,0.33c-0.04,0.32-0.13,0.59-0.26,0.81
					c-0.14,0.23-0.32,0.38-0.53,0.45l-0.08,0.03l-0.02-0.08c-0.01-0.05-0.03-0.1-0.05-0.16c-0.07-0.2-0.14-0.42-0.1-0.64l0,0
					C19.29,10.65,19.36,10.41,19.48,10.21L19.48,10.21z"/>
				<path class="st3" d="M20.77,8.84c-0.51,0.11-0.67,0.56-0.77,1.04c-0.05,0.25,0.09,0.54,0.15,0.76c0.36-0.12,0.66-0.56,0.74-1.19
					C20.9,9.24,20.87,9.04,20.77,8.84L20.77,8.84z"/>
				<path class="st5" d="M20.72,8.93c-0.2,0.06-0.33,0.18-0.43,0.33c-0.11,0.18-0.17,0.4-0.22,0.63l0,0
					c-0.03,0.17,0.03,0.37,0.09,0.55c0.01,0.03,0.02,0.05,0.03,0.08c0.14-0.07,0.26-0.19,0.36-0.35c0.12-0.19,0.2-0.44,0.24-0.74
					c0.01-0.1,0.01-0.19-0.01-0.28C20.78,9.08,20.75,9.01,20.72,8.93L20.72,8.93z M20.15,9.18c0.13-0.2,0.31-0.36,0.6-0.42
					l0.06-0.01l0.03,0.06c0.06,0.11,0.09,0.22,0.11,0.33c0.02,0.11,0.02,0.22,0.01,0.33c-0.04,0.32-0.13,0.59-0.26,0.81
					c-0.14,0.23-0.32,0.38-0.53,0.45l-0.08,0.03l-0.02-0.08c-0.01-0.05-0.03-0.1-0.05-0.16c-0.07-0.2-0.14-0.42-0.1-0.64l0,0
					C19.96,9.61,20.03,9.37,20.15,9.18L20.15,9.18z"/>
				<path class="st3" d="M5.08,9.49c1.32,0.56,0.95,1.27,1.08,1.84c-0.06-0.12-0.16-0.09-0.24-0.15C5.56,10.89,5.08,10.96,5.08,9.49
					z"/>
				<path class="st5" d="M5.11,9.41c1.06,0.45,1.08,1,1.09,1.5c0,0.14,0.01,0.27,0.04,0.4l-0.15,0.06C6.07,11.32,6.03,11.31,6,11.3
					c-0.04-0.01-0.08-0.03-0.12-0.06c-0.07-0.05-0.13-0.09-0.21-0.13C5.33,10.92,5,10.73,5,9.49V9.37L5.11,9.41z M6.04,10.92
					c-0.01-0.43-0.03-0.9-0.88-1.3c0.02,1.03,0.3,1.19,0.59,1.35c0.08,0.04,0.15,0.09,0.23,0.14c0.02,0.02,0.05,0.02,0.07,0.03l0,0
					C6.05,11.07,6.05,10.99,6.04,10.92L6.04,10.92z"/>
				<path class="st3" d="M5.75,11.09c0.63-0.33,1.27-0.41,1.66-0.26c0.28,0.11,0.26,0.21,0.42,0.44
					C7.54,11.51,6.77,11.99,5.75,11.09L5.75,11.09z"/>
				<path class="st5" d="M5.71,11.02c0.31-0.17,0.63-0.27,0.92-0.31c0.31-0.05,0.6-0.03,0.81,0.05c0.24,0.09,0.28,0.18,0.37,0.32
					l0,0c0.02,0.04,0.05,0.09,0.09,0.15l0.04,0.06l-0.06,0.05c-0.15,0.12-0.43,0.31-0.81,0.35c-0.38,0.04-0.84-0.07-1.38-0.54
					l-0.09-0.08L5.71,11.02L5.71,11.02z M6.66,10.87c-0.24,0.04-0.5,0.12-0.76,0.24c0.45,0.37,0.84,0.45,1.16,0.42
					c0.29-0.03,0.52-0.16,0.66-0.27c-0.02-0.04-0.04-0.07-0.06-0.1l0,0c-0.06-0.11-0.1-0.18-0.28-0.25
					C7.2,10.84,6.94,10.82,6.66,10.87L6.66,10.87z"/>
				<path class="st3" d="M7.18,10.78c0.63-0.36,0.99-0.42,1.42-0.42c0.3,0,0.27,0.37,0.65,0.61C8.92,11.21,8.7,11.17,8,11.23
					C7.74,11.26,7.35,11.01,7.18,10.78z"/>
				<path class="st5" d="M7.14,10.71c0.32-0.18,0.57-0.29,0.8-0.35c0.23-0.06,0.43-0.08,0.65-0.08c0.21,0,0.28,0.12,0.38,0.28
					c0.07,0.11,0.15,0.24,0.31,0.34l0.1,0.06l-0.1,0.07c-0.28,0.21-0.48,0.23-0.94,0.26c-0.11,0.01-0.23,0.02-0.34,0.03
					c-0.14,0.01-0.31-0.04-0.47-0.13c-0.17-0.09-0.33-0.23-0.43-0.36l-0.06-0.07L7.14,10.71L7.14,10.71z M7.98,10.51
					c-0.19,0.05-0.41,0.14-0.68,0.29c0.08,0.09,0.2,0.18,0.32,0.24c0.13,0.07,0.27,0.12,0.37,0.11c0.14-0.01,0.25-0.02,0.35-0.03
					c0.36-0.03,0.55-0.04,0.76-0.16c-0.13-0.1-0.2-0.22-0.27-0.32c-0.07-0.11-0.13-0.2-0.24-0.2C8.39,10.44,8.2,10.45,7.98,10.51z"
					/>
				<path class="st3" d="M8.71,10.38c0.63-0.32,0.84-0.32,1.21-0.31c0.3,0.01,0.4,0.36,0.65,0.61c-0.33,0.24-0.54,0.21-1.24,0.27
					C9.06,10.97,8.79,10.62,8.71,10.38z"/>
				<path class="st5" d="M8.67,10.3c0.32-0.16,0.54-0.24,0.72-0.28c0.19-0.04,0.34-0.04,0.52-0.03c0.24,0.01,0.36,0.18,0.49,0.37
					c0.06,0.09,0.13,0.18,0.21,0.26l0.07,0.07l-0.08,0.06c-0.28,0.21-0.48,0.23-0.94,0.26c-0.11,0.01-0.23,0.02-0.35,0.03
					c-0.14,0.01-0.28-0.06-0.4-0.17c-0.14-0.13-0.25-0.31-0.3-0.46L8.6,10.34L8.67,10.3L8.67,10.3z M9.43,10.18
					c-0.16,0.03-0.35,0.1-0.61,0.24c0.05,0.11,0.13,0.23,0.23,0.33c0.08,0.08,0.18,0.13,0.27,0.12c0.14-0.01,0.25-0.02,0.35-0.03
					c0.38-0.03,0.56-0.04,0.77-0.17c-0.06-0.07-0.11-0.14-0.16-0.21c-0.11-0.16-0.21-0.29-0.36-0.3
					C9.73,10.14,9.59,10.14,9.43,10.18L9.43,10.18z"/>
				<path class="st3" d="M9.81,10.04c0.63-0.14,1.16-0.13,1.47-0.07c0.3,0.05,0.34,0.36,0.55,0.61c-0.33,0.24-0.62,0.14-1.27,0.09
					C10.3,10.65,10.21,10.23,9.81,10.04L9.81,10.04z"/>
				<path class="st5" d="M9.8,9.96c0.28-0.06,0.55-0.1,0.79-0.11c0.29-0.02,0.54,0,0.71,0.04c0.23,0.04,0.33,0.21,0.44,0.39
					c0.05,0.08,0.1,0.17,0.16,0.25l0.06,0.07l-0.07,0.05c-0.28,0.21-0.53,0.19-0.97,0.14c-0.11-0.01-0.22-0.02-0.36-0.03
					c-0.17-0.01-0.26-0.13-0.38-0.28c-0.1-0.13-0.21-0.27-0.4-0.36L9.8,9.96L9.8,9.96z M10.59,10.02c-0.17,0.01-0.36,0.03-0.56,0.07
					c0.11,0.09,0.2,0.19,0.27,0.29c0.09,0.12,0.17,0.21,0.26,0.22c0.13,0.01,0.25,0.02,0.37,0.03c0.35,0.04,0.57,0.06,0.78-0.06
					c-0.05-0.07-0.09-0.14-0.13-0.2c-0.09-0.15-0.16-0.28-0.32-0.31C11.1,10.02,10.87,10.01,10.59,10.02L10.59,10.02z"/>
				<path class="st3" d="M17.3,10.6c1.36-0.03,1.79,0.68,2.08,1.22C18.3,12.13,17.9,10.88,17.3,10.6z"/>
				<path class="st1" d="M17.3,10.52c0.7-0.01,1.17,0.16,1.49,0.41c0.33,0.25,0.43,0.47,0.58,0.75l0.05,0.09l-0.1,0.03
					c-0.76,0.22-1.11-0.18-1.5-0.62c-0.19-0.21-0.36-0.42-0.56-0.5L17.3,10.52L17.3,10.52z M18.69,11.06
					c-0.26-0.2-0.61-0.34-1.11-0.37c0.13,0.11,0.24,0.24,0.37,0.38c0.34,0.39,0.64,0.71,1.23,0.59
					C19.05,11.42,18.95,11.26,18.69,11.06z"/>
				<path class="st3" d="M16,10.18c1.36-0.03,1.79,0.68,2.08,1.22C17.01,11.71,16.61,10.46,16,10.18z"/>
				<path class="st1" d="M16,10.1c0.7-0.01,1.17,0.16,1.49,0.41c0.33,0.25,0.51,0.57,0.66,0.85l0.05,0.09l-0.1,0.03
					c-0.76,0.22-1.19-0.28-1.58-0.72c-0.19-0.21-0.36-0.42-0.56-0.5L16,10.1L16,10.1z M17.39,10.64c-0.26-0.2-0.61-0.34-1.11-0.37
					c0.13,0.11,0.24,0.24,0.37,0.38c0.34,0.39,0.71,0.81,1.31,0.7C17.82,11.11,17.66,10.84,17.39,10.64z"/>
				<path class="st3" d="M14.79,10c1.31-0.11,1.76,0.55,2.07,1.05C15.84,11.41,15.38,10.24,14.79,10z"/>
				<path class="st1" d="M14.78,9.92c0.68-0.05,1.13,0.09,1.46,0.31c0.33,0.22,0.52,0.52,0.68,0.78l0.05,0.09l-0.1,0.03
					c-0.72,0.25-1.16-0.2-1.56-0.6c-0.19-0.19-0.37-0.38-0.56-0.45L14.78,9.92z M16.15,10.37c-0.25-0.17-0.6-0.29-1.08-0.29
					c0.12,0.09,0.24,0.22,0.37,0.34c0.35,0.35,0.73,0.74,1.29,0.59C16.59,10.79,16.41,10.55,16.15,10.37L16.15,10.37z"/>
				<path class="st3" d="M13.55,9.92c1.29-0.24,1.81,0.36,2.16,0.84C14.75,11.21,14.17,10.09,13.55,9.92z"/>
				<path class="st1" d="M13.54,9.84c0.67-0.12,1.14-0.03,1.49,0.16c0.35,0.19,0.57,0.46,0.76,0.71l0.06,0.08l-0.09,0.04
					c-0.69,0.32-1.18-0.08-1.62-0.44c-0.21-0.17-0.41-0.34-0.61-0.39L13.54,9.84z M14.94,10.14c-0.27-0.15-0.62-0.23-1.11-0.18
					c0.13,0.08,0.27,0.19,0.4,0.3c0.38,0.31,0.8,0.66,1.35,0.46C15.42,10.51,15.23,10.29,14.94,10.14z"/>
				<path class="st3" d="M12.26,9.94c1.29-0.24,1.93,0.2,2.29,0.67C12.97,11.07,12.88,10.11,12.26,9.94z"/>
				<path class="st1" d="M12.25,9.86c0.66-0.12,1.16-0.07,1.54,0.07c0.38,0.14,0.65,0.38,0.83,0.63l0.07,0.09l-0.12,0.03
					c-1.13,0.33-1.53-0.04-1.88-0.36c-0.14-0.13-0.28-0.26-0.45-0.31L12.25,9.86L12.25,9.86z M13.73,10.08
					c-0.3-0.11-0.69-0.17-1.19-0.1c0.09,0.06,0.18,0.14,0.27,0.22c0.3,0.28,0.65,0.6,1.61,0.36C14.25,10.37,14.03,10.2,13.73,10.08
					L13.73,10.08z"/>
				<path class="st3" d="M10.88,9.93c1.29-0.24,1.93,0.2,2.29,0.67C11.59,11.06,11.5,10.1,10.88,9.93z"/>
				<path class="st1" d="M10.87,9.85c0.66-0.12,1.16-0.07,1.54,0.07c0.38,0.14,0.65,0.38,0.83,0.63l0.07,0.09l-0.12,0.03
					c-1.13,0.33-1.53-0.04-1.88-0.36c-0.14-0.13-0.28-0.26-0.45-0.31L10.87,9.85L10.87,9.85z M12.35,10.08
					c-0.3-0.11-0.69-0.17-1.19-0.1c0.09,0.06,0.18,0.14,0.27,0.22c0.3,0.28,0.65,0.6,1.61,0.36C12.87,10.37,12.65,10.19,12.35,10.08
					L12.35,10.08z"/>
			</g>
			<path class="st5" d="M6.66,9.78L6.43,9.11l0.13-0.05l0.1,0.3l0.17-0.39l0.18-0.06L6.86,9.26l0.41,0.32L7.09,9.64L6.8,9.38
				L6.73,9.53l0.07,0.2L6.66,9.78L6.66,9.78z M8.1,9.34L7.94,9.38l-0.1-0.14L7.57,9.32L7.56,9.49L7.41,9.53l0.07-0.75l0.15-0.04
				L8.1,9.34z M7.76,9.14L7.6,8.91L7.58,9.19L7.76,9.14z M8.32,9.27L8.17,8.59l0.14-0.03l0.13,0.57l0.35-0.08l0.03,0.12L8.32,9.27
				L8.32,9.27z M9.06,9.11L8.92,8.41l0.14-0.03L9.2,9.08L9.06,9.11z M9.48,9.02l-0.1-0.7l0.21-0.03l0.19,0.46l0.06-0.49l0.21-0.03
				l0.1,0.7l-0.13,0.02L9.95,8.39L9.89,8.96L9.75,8.98L9.53,8.45L9.61,9L9.48,9.02L9.48,9.02z M11.09,8.82l-0.16,0.01l-0.08-0.15
				L10.58,8.7l-0.04,0.16l-0.15,0.01l0.21-0.73l0.15-0.01L11.09,8.82L11.09,8.82z M10.8,8.56l-0.12-0.25l-0.07,0.27L10.8,8.56
				L10.8,8.56z M11.32,8.79l-0.03-0.71l0.14,0l0.31,0.46l-0.02-0.47l0.13,0l0.03,0.71l-0.14,0.01l-0.3-0.45l0.02,0.46L11.32,8.79
				L11.32,8.79z M12.34,8.75l-0.01-0.59l-0.21,0l0-0.12l0.56-0.01l0,0.12l-0.21,0l0.01,0.59L12.34,8.75L12.34,8.75z M13.51,8.77
				l-0.16,0L13.3,8.6L13.01,8.6l-0.06,0.16l-0.15,0l0.29-0.7l0.15,0L13.51,8.77z M13.25,8.48l-0.09-0.26l-0.1,0.26L13.25,8.48z
				 M13.74,8.79l0.05-0.7l0.14,0.01l0.26,0.49l0.03-0.47l0.13,0.01l-0.05,0.7l-0.14-0.01l-0.25-0.48L13.87,8.8L13.74,8.79z
				 M14.89,8.71l0.02-0.13l0.26,0.03l-0.02,0.13L14.89,8.71z M15.79,9.04l0.1-0.58l-0.21-0.04l0.02-0.12l0.56,0.1l-0.02,0.12
				l-0.21-0.04l-0.1,0.58L15.79,9.04z M16.37,9.16l0.16-0.69l0.14,0.03l-0.16,0.69L16.37,9.16z M16.79,9.26l0.17-0.68l0.21,0.05
				l0.01,0.5l0.24-0.44l0.21,0.05l-0.17,0.68l-0.13-0.03l0.13-0.54l-0.27,0.51l-0.13-0.03l0-0.57l-0.13,0.54L16.79,9.26L16.79,9.26z
				 M17.97,8.85l0.13,0.05l-0.13,0.36c-0.02,0.06-0.03,0.09-0.03,0.11c0,0.03,0,0.06,0.02,0.08c0.02,0.02,0.04,0.04,0.08,0.06
				c0.04,0.01,0.07,0.02,0.09,0.01c0.03-0.01,0.04-0.02,0.06-0.05c0.01-0.02,0.03-0.06,0.04-0.11l0.13-0.37l0.13,0.05l-0.12,0.35
				c-0.03,0.08-0.05,0.13-0.07,0.17c-0.02,0.03-0.04,0.05-0.07,0.07c-0.03,0.02-0.06,0.03-0.1,0.03c-0.04,0-0.08-0.01-0.14-0.02
				c-0.06-0.02-0.11-0.05-0.14-0.07c-0.03-0.03-0.05-0.05-0.06-0.08C17.81,9.43,17.8,9.4,17.8,9.38c0-0.04,0.02-0.1,0.05-0.17
				L17.97,8.85L17.97,8.85z M18.56,9.8l0.27-0.65l0.28,0.11c0.07,0.03,0.12,0.05,0.15,0.08c0.03,0.03,0.04,0.06,0.05,0.09
				c0.01,0.04,0,0.08-0.01,0.11c-0.02,0.05-0.05,0.08-0.09,0.1c-0.04,0.02-0.09,0.02-0.15,0.01c0.02,0.03,0.04,0.06,0.05,0.08
				c0.01,0.03,0.02,0.07,0.03,0.14l0.03,0.16L19,9.98L18.96,9.8c-0.01-0.06-0.02-0.11-0.03-0.12c-0.01-0.02-0.02-0.03-0.03-0.04
				c-0.01-0.01-0.03-0.02-0.06-0.03l-0.03-0.01L18.7,9.86L18.56,9.8L18.56,9.8z M18.85,9.48l0.1,0.04c0.06,0.03,0.1,0.04,0.12,0.04
				s0.03,0,0.05-0.01c0.01-0.01,0.03-0.02,0.03-0.04c0.01-0.02,0.01-0.04,0-0.06c-0.01-0.02-0.02-0.03-0.04-0.05
				c-0.01-0.01-0.04-0.02-0.1-0.04l-0.1-0.04L18.85,9.48L18.85,9.48z"/>
			<path class="st2" d="M11.31,26.41c-2.03-0.22-3.88-1-5.59-2.25c-0.19,0.11-0.4,0.17-0.63,0.17c-0.68,0-1.24-0.55-1.24-1.23
				c0-0.68,0.55-1.23,1.24-1.23c0.36,0,0.45,0.05,0.68,0.26c1.46,1.31,3.2,2.33,5.68,2.6c1.12,0.12,2.29,0.1,3.4-0.09
				c2.13-0.37,3.69-1.32,5.01-2.51c0.23-0.2,0.32-0.26,0.68-0.26c0.68,0,1.24,0.55,1.24,1.23c0,0.68-0.55,1.23-1.24,1.23
				c-0.23,0-0.45-0.06-0.63-0.17c-1.51,1.11-3.13,1.84-4.89,2.15C13.83,26.52,12.53,26.54,11.31,26.41L11.31,26.41z"/>
			<path class="st5" d="M11.3,26.49c-1.02-0.11-2-0.36-2.94-0.74c-0.92-0.37-1.8-0.87-2.65-1.49c-0.09,0.05-0.18,0.08-0.28,0.11
				c-0.11,0.03-0.23,0.05-0.35,0.05c-0.36,0-0.69-0.15-0.93-0.39c-0.24-0.24-0.39-0.57-0.39-0.93s0.15-0.69,0.39-0.93
				s0.57-0.39,0.93-0.39c0.19,0,0.31,0.02,0.42,0.06c0.11,0.04,0.19,0.11,0.31,0.22c0.72,0.65,1.52,1.23,2.44,1.68
				c0.92,0.45,1.97,0.77,3.2,0.9c0.57,0.06,1.14,0.09,1.71,0.07c0.56-0.02,1.12-0.07,1.66-0.16c1.06-0.18,1.97-0.51,2.79-0.94
				c0.82-0.43,1.53-0.96,2.19-1.55c0.12-0.11,0.21-0.18,0.31-0.22c0.11-0.04,0.23-0.06,0.42-0.06c0.36,0,0.69,0.15,0.93,0.39
				s0.39,0.57,0.39,0.93s-0.15,0.69-0.39,0.93c-0.24,0.24-0.57,0.39-0.93,0.39c-0.12,0-0.24-0.02-0.35-0.05
				c-0.1-0.03-0.19-0.06-0.28-0.11c-0.74,0.54-1.52,0.99-2.32,1.35c-0.82,0.36-1.67,0.63-2.56,0.78c-0.59,0.1-1.21,0.16-1.83,0.18
				C12.57,26.58,11.92,26.56,11.3,26.49L11.3,26.49z M8.43,25.59c0.92,0.38,1.89,0.62,2.89,0.73c0.61,0.07,1.26,0.09,1.89,0.08
				c0.61-0.02,1.22-0.07,1.81-0.18c0.87-0.15,1.71-0.41,2.52-0.77c0.81-0.36,1.58-0.82,2.33-1.36l0.04-0.03l0.05,0.03
				c0.09,0.05,0.18,0.09,0.28,0.12c0.1,0.03,0.2,0.04,0.31,0.04c0.32,0,0.61-0.13,0.82-0.34c0.21-0.21,0.34-0.5,0.34-0.81
				c0-0.32-0.13-0.61-0.34-0.81c-0.21-0.21-0.5-0.34-0.82-0.34c-0.17,0-0.28,0.01-0.36,0.05c-0.08,0.03-0.16,0.09-0.26,0.19
				c-0.67,0.6-1.39,1.14-2.22,1.58c-0.83,0.44-1.76,0.77-2.84,0.96c-0.55,0.1-1.12,0.15-1.69,0.17c-0.58,0.02-1.16-0.01-1.74-0.07
				c-1.25-0.14-2.32-0.46-3.25-0.92c-0.93-0.46-1.74-1.04-2.47-1.71c-0.11-0.1-0.18-0.16-0.26-0.19c-0.08-0.03-0.19-0.05-0.36-0.05
				c-0.32,0-0.61,0.13-0.82,0.34c-0.21,0.21-0.34,0.5-0.34,0.81c0,0.32,0.13,0.61,0.34,0.81c0.21,0.21,0.5,0.34,0.82,0.34
				c0.11,0,0.21-0.01,0.31-0.04c0.1-0.03,0.2-0.07,0.28-0.12l0.05-0.03l0.04,0.03C6.62,24.71,7.51,25.22,8.43,25.59L8.43,25.59z"/>
			<path class="st1" d="M6.49,24.07l-0.13-0.09l0.36-0.53l0.12,0.08l-0.05,0.08c0.04-0.02,0.08-0.03,0.1-0.03
				c0.02,0,0.05,0.01,0.07,0.02c0.03,0.02,0.05,0.05,0.07,0.08L6.9,23.77c-0.01-0.03-0.03-0.05-0.05-0.06
				c-0.02-0.01-0.04-0.02-0.06-0.02c-0.02,0-0.04,0.02-0.07,0.04S6.66,23.81,6.6,23.9L6.49,24.07L6.49,24.07z M7.54,24.75l0.05-0.08
				c-0.04,0.02-0.08,0.03-0.12,0.03c-0.04,0-0.08-0.01-0.11-0.03c-0.03-0.02-0.06-0.05-0.08-0.08c-0.02-0.03-0.02-0.07-0.02-0.1
				c0.01-0.04,0.02-0.08,0.06-0.13L7.53,24l0.13,0.08l-0.15,0.25c-0.05,0.08-0.07,0.13-0.08,0.15c-0.01,0.02,0,0.04,0,0.06
				c0.01,0.02,0.02,0.03,0.04,0.04c0.02,0.01,0.05,0.02,0.07,0.02s0.05-0.01,0.07-0.03c0.02-0.02,0.05-0.06,0.1-0.14l0.14-0.23
				L8,24.27l-0.33,0.55L7.54,24.75L7.54,24.75z M8.81,24.43l-0.13,0.3c0.07-0.04,0.14-0.04,0.21-0.02c0.03,0.01,0.06,0.03,0.08,0.06
				c0.02,0.03,0.03,0.05,0.04,0.08s0,0.05,0,0.08c-0.01,0.03-0.02,0.07-0.04,0.12l-0.15,0.35l-0.14-0.06l0.13-0.31
				c0.03-0.06,0.04-0.1,0.04-0.12s0-0.04-0.01-0.05c-0.01-0.02-0.03-0.03-0.05-0.04c-0.02-0.01-0.05-0.01-0.07-0.01
				c-0.03,0-0.05,0.02-0.07,0.04c-0.02,0.02-0.04,0.06-0.06,0.11l-0.13,0.29l-0.15-0.06l0.35-0.81L8.81,24.43L8.81,24.43z
				 M9.89,25.72l0.02-0.09c-0.03,0.03-0.06,0.05-0.1,0.06c-0.04,0.01-0.08,0.01-0.12,0c-0.04-0.01-0.07-0.03-0.1-0.05
				c-0.03-0.03-0.04-0.06-0.05-0.09c-0.01-0.04,0-0.08,0.01-0.14L9.67,25l0.15,0.04l-0.07,0.29c-0.02,0.09-0.03,0.14-0.03,0.16
				c0,0.02,0.01,0.04,0.02,0.05c0.01,0.02,0.03,0.03,0.05,0.03c0.03,0.01,0.05,0,0.08-0.01s0.04-0.03,0.06-0.05
				c0.01-0.02,0.03-0.08,0.05-0.16l0.07-0.26l0.15,0.04l-0.16,0.62L9.89,25.72L9.89,25.72z M10.83,25.16L10.85,25l0.16,0.02
				l-0.02,0.16L10.83,25.16z M10.76,25.88l0.07-0.64l0.16,0.02l-0.07,0.64L10.76,25.88z M11.96,25.74l0-0.17l0.31,0.01l0,0.17
				L11.96,25.74z M13.4,25.95l-0.16,0.01l-0.03-0.64l0.15-0.01l0,0.09c0.02-0.04,0.04-0.07,0.06-0.09c0.02-0.01,0.04-0.02,0.07-0.02
				c0.04,0,0.07,0.01,0.11,0.03l-0.04,0.15c-0.03-0.02-0.05-0.03-0.08-0.02c-0.02,0-0.04,0.01-0.06,0.02
				c-0.02,0.01-0.03,0.04-0.03,0.07c-0.01,0.03-0.01,0.11,0,0.21L13.4,25.95L13.4,25.95z M14.33,25.4l-0.15-0.01
				c0.01-0.06,0.03-0.11,0.06-0.15c0.03-0.03,0.09-0.06,0.17-0.07c0.07-0.01,0.12-0.01,0.16,0c0.04,0.01,0.06,0.03,0.08,0.06
				c0.02,0.03,0.03,0.07,0.04,0.15l0.03,0.2c0.01,0.06,0.02,0.1,0.03,0.12c0.01,0.03,0.02,0.05,0.04,0.08l-0.15,0.02
				c-0.01-0.01-0.01-0.03-0.02-0.05c0-0.01-0.01-0.02-0.01-0.02c-0.02,0.03-0.05,0.06-0.08,0.08c-0.03,0.02-0.06,0.03-0.09,0.03
				c-0.06,0.01-0.11,0-0.15-0.03c-0.04-0.03-0.06-0.07-0.07-0.13c-0.01-0.04,0-0.07,0.01-0.1c0.01-0.03,0.03-0.05,0.06-0.07
				c0.03-0.02,0.07-0.04,0.12-0.06c0.07-0.03,0.12-0.05,0.15-0.06l0-0.02c0-0.03-0.02-0.05-0.03-0.07s-0.05-0.01-0.09-0.01
				c-0.03,0-0.05,0.01-0.06,0.03C14.35,25.35,14.34,25.38,14.33,25.4L14.33,25.4z M14.56,25.51c-0.02,0.01-0.05,0.02-0.09,0.04
				c-0.04,0.02-0.07,0.03-0.08,0.04c-0.02,0.02-0.03,0.04-0.02,0.06c0,0.02,0.01,0.04,0.03,0.06c0.02,0.02,0.04,0.02,0.07,0.02
				c0.03,0,0.05-0.02,0.08-0.04c0.02-0.02,0.03-0.04,0.03-0.06c0-0.02,0-0.04-0.01-0.08L14.56,25.51L14.56,25.51z M15.4,24.75
				l0.08,0.31c0.03-0.07,0.08-0.12,0.15-0.14c0.03-0.01,0.07-0.01,0.1,0c0.03,0.01,0.06,0.02,0.08,0.04
				c0.02,0.02,0.04,0.04,0.05,0.07c0.01,0.03,0.03,0.07,0.04,0.12l0.09,0.36l-0.15,0.04l-0.08-0.33c-0.02-0.07-0.03-0.11-0.04-0.12
				c-0.01-0.02-0.02-0.03-0.04-0.03c-0.02-0.01-0.04-0.01-0.06,0c-0.03,0.01-0.05,0.02-0.06,0.04c-0.02,0.02-0.03,0.04-0.03,0.07
				s0,0.07,0.02,0.12l0.08,0.31l-0.15,0.04l-0.21-0.86L15.4,24.75L15.4,24.75z M16.62,24.8l-0.14,0.03c-0.01-0.06,0-0.12,0.03-0.16
				c0.03-0.04,0.07-0.08,0.15-0.11c0.07-0.03,0.12-0.04,0.16-0.03c0.04,0,0.07,0.02,0.09,0.04c0.02,0.02,0.05,0.06,0.08,0.13
				l0.07,0.18c0.02,0.05,0.04,0.09,0.05,0.11c0.01,0.02,0.03,0.05,0.06,0.07l-0.14,0.06c-0.01-0.01-0.02-0.02-0.03-0.04
				c-0.01-0.01-0.01-0.01-0.01-0.02c-0.01,0.04-0.03,0.07-0.06,0.09c-0.02,0.03-0.05,0.04-0.08,0.06c-0.06,0.02-0.11,0.03-0.15,0
				c-0.05-0.02-0.08-0.06-0.1-0.11c-0.01-0.03-0.02-0.07-0.01-0.1c0-0.03,0.02-0.06,0.04-0.08c0.02-0.03,0.06-0.05,0.1-0.08
				c0.06-0.04,0.11-0.07,0.13-0.1l-0.01-0.02c-0.01-0.03-0.03-0.05-0.05-0.06c-0.02-0.01-0.05,0-0.09,0.01
				c-0.03,0.01-0.04,0.02-0.05,0.04C16.62,24.74,16.62,24.76,16.62,24.8L16.62,24.8z M16.87,24.84c-0.02,0.01-0.04,0.03-0.08,0.06
				s-0.06,0.05-0.07,0.06c-0.01,0.02-0.02,0.04-0.01,0.07c0.01,0.02,0.02,0.04,0.05,0.05c0.02,0.01,0.04,0.01,0.07,0
				c0.03-0.01,0.05-0.03,0.06-0.06c0.01-0.02,0.02-0.04,0.01-0.07c0-0.02-0.01-0.04-0.03-0.08L16.87,24.84z M17.41,24.21l0.15-0.08
				l0.34,0.33L17.81,24l0.14-0.08l0.1,0.64l0.02,0.12c0.01,0.04,0.01,0.07,0.01,0.09c0,0.02-0.01,0.04-0.02,0.06
				s-0.02,0.04-0.04,0.05c-0.02,0.02-0.04,0.03-0.07,0.05c-0.03,0.01-0.05,0.03-0.08,0.03l-0.08-0.11c0.03-0.01,0.04-0.02,0.06-0.03
				c0.03-0.02,0.05-0.04,0.06-0.07c0-0.03,0-0.06-0.01-0.1L17.41,24.21L17.41,24.21z M19.16,23.92l-0.05-0.08
				c0,0.04-0.01,0.08-0.03,0.11c-0.02,0.03-0.05,0.06-0.08,0.08c-0.03,0.02-0.07,0.03-0.11,0.03c-0.04,0-0.07-0.01-0.1-0.03
				c-0.03-0.02-0.06-0.06-0.09-0.11l-0.22-0.34l0.13-0.08l0.16,0.25c0.05,0.08,0.08,0.12,0.1,0.13c0.02,0.01,0.03,0.02,0.05,0.02
				c0.02,0,0.04,0,0.06-0.02c0.02-0.01,0.04-0.03,0.05-0.06c0.01-0.03,0.01-0.05,0.01-0.07c-0.01-0.02-0.03-0.08-0.08-0.15
				l-0.14-0.23l0.13-0.08l0.34,0.54L19.16,23.92L19.16,23.92z"/>
		</g>
	</g>
</g>
<text transform="matrix(1 0 0 1 26.4141 23.0791)" class="st7 st8 st9">DKP PROV. KALTIM</text>
</svg>
