<?xml version="1.0" encoding="utf-8"?>
<!-- Generator: Adobe Illustrator 27.9.0, SVG Export Plug-In . SVG Version: 6.00 Build 0)  -->
<svg version="1.1" id="Layer_1" xmlns="http://www.w3.org/2000/svg" xmlns:xlink="http://www.w3.org/1999/xlink" x="0px" y="0px"
	 viewBox="0 0 32 32" style="enable-background:new 0 0 32 32;" xml:space="preserve">
<style type="text/css">
	.st0{fill-rule:evenodd;clip-rule:evenodd;fill:#00A959;}
	.st1{fill:#201E1E;}
	.st2{fill-rule:evenodd;clip-rule:evenodd;fill:#FFFFFF;}
	.st3{fill-rule:evenodd;clip-rule:evenodd;fill:#F7D837;}
	.st4{fill-rule:evenodd;clip-rule:evenodd;fill:#201E1E;}
	.st5{fill:#383535;}
	.st6{fill-rule:evenodd;clip-rule:evenodd;fill:#ED3438;}
</style>
<g id="Layer_x0020_1">
	<g id="_180098296">
		<path class="st0" d="M16,31.87C6.38,27.65,2.41,22.38,3.31,6.5c2.03-0.55,3.39-1.77,4.24-3.49C7.89,2.33,7.86,2.15,8.55,1.8
			c4.5-2.24,10.41-2.24,14.91,0c0.69,0.34,0.66,0.53,0.99,1.21c0.86,1.72,2.21,2.94,4.24,3.49C29.59,22.38,25.62,27.65,16,31.87z"/>
		<path class="st1" d="M15.95,31.98c-4.83-2.12-8.25-4.5-10.35-8.36c-2.09-3.85-2.87-9.16-2.42-17.12l0.01-0.09l0.09-0.02
			c1-0.27,1.83-0.7,2.51-1.28c0.69-0.58,1.23-1.3,1.65-2.15C7.5,2.83,7.55,2.73,7.59,2.64c0.21-0.45,0.3-0.64,0.9-0.94
			C10.76,0.56,13.38,0,16,0s5.24,0.56,7.51,1.69c0.6,0.3,0.69,0.49,0.9,0.94c0.04,0.09,0.09,0.19,0.15,0.32
			c0.42,0.84,0.96,1.57,1.65,2.15c0.69,0.58,1.52,1.01,2.51,1.28l0.09,0.02l0.01,0.09c0.45,7.96-0.32,13.27-2.42,17.12
			c-2.1,3.86-5.52,6.25-10.35,8.36L16,32L15.95,31.98z M5.82,23.5c2.06,3.79,5.42,6.14,10.18,8.23c4.76-2.09,8.12-4.44,10.18-8.23
			c2.06-3.8,2.83-9.04,2.39-16.9c-1-0.28-1.83-0.72-2.52-1.31c-0.71-0.6-1.28-1.35-1.71-2.22c-0.06-0.12-0.11-0.23-0.15-0.33
			C24,2.34,23.92,2.17,23.4,1.91C21.16,0.8,18.58,0.25,16,0.25c-2.58,0-5.17,0.56-7.4,1.67C8.08,2.17,8,2.34,7.82,2.74
			c-0.04,0.1-0.09,0.21-0.15,0.33c-0.44,0.87-1,1.62-1.71,2.22C5.26,5.87,4.42,6.32,3.43,6.6C2.99,14.46,3.76,19.71,5.82,23.5z"/>
		<g>
			<g>
				<path class="st2" d="M12.72,12.18c-0.45-0.3-1.09-0.22-1.36,0.13c-0.41,0.53,0.38,0.95,0.46,0.74
					C11.96,12.68,12.35,12.32,12.72,12.18L12.72,12.18z"/>
				<path class="st1" d="M12.54,12.17c-0.17-0.08-0.37-0.11-0.55-0.09c-0.23,0.02-0.45,0.12-0.57,0.28
					c-0.13,0.17-0.12,0.33-0.04,0.45c0.04,0.06,0.09,0.11,0.15,0.15c0.06,0.04,0.11,0.06,0.16,0.07c0.03,0,0.04,0,0.04,0
					c0.08-0.2,0.21-0.39,0.38-0.55l0,0C12.24,12.36,12.39,12.25,12.54,12.17z M11.97,11.92c0.26-0.03,0.55,0.03,0.79,0.19l0.13,0.09
					l-0.15,0.06c-0.18,0.07-0.37,0.19-0.52,0.34c-0.15,0.14-0.27,0.31-0.34,0.49c-0.03,0.09-0.12,0.12-0.22,0.1
					c-0.07-0.01-0.15-0.04-0.22-0.09c-0.07-0.05-0.14-0.11-0.2-0.19c-0.11-0.17-0.14-0.4,0.05-0.64
					C11.44,12.07,11.7,11.94,11.97,11.92L11.97,11.92z"/>
				<path class="st2" d="M11.77,13.09c-0.58-0.06-1.22,0.18-1.32,0.66c-0.14,0.68,0.62,0.9,0.67,0.58
					C11.19,13.77,11.44,13.42,11.77,13.09L11.77,13.09z"/>
				<path class="st1" d="M11.59,13.16c-0.23,0-0.47,0.05-0.66,0.14c-0.21,0.1-0.36,0.26-0.4,0.45c-0.05,0.27,0.05,0.45,0.18,0.55
					c0.04,0.03,0.09,0.05,0.13,0.07c0.04,0.01,0.08,0.01,0.11,0.01c0.04-0.01,0.07-0.03,0.08-0.08c0.04-0.29,0.12-0.52,0.24-0.73
					C11.37,13.43,11.47,13.29,11.59,13.16z M10.86,13.16c0.27-0.13,0.6-0.19,0.92-0.15l0.17,0.02l-0.12,0.12
					c-0.16,0.16-0.3,0.32-0.41,0.51c-0.11,0.19-0.19,0.41-0.22,0.67c-0.02,0.12-0.1,0.19-0.21,0.21c-0.06,0.01-0.12,0.01-0.19-0.01
					c-0.06-0.02-0.13-0.05-0.19-0.09c-0.18-0.13-0.31-0.37-0.24-0.72C10.42,13.48,10.61,13.28,10.86,13.16L10.86,13.16z"/>
				<path class="st2" d="M11.14,14.45c-0.58-0.06-1.17,0.43-1.27,0.91c-0.1,0.5,0.39,0.66,0.68,0.58
					C10.91,15.85,10.9,14.82,11.14,14.45z"/>
				<path class="st1" d="M11.01,14.53c-0.22,0.01-0.43,0.09-0.61,0.22c-0.23,0.17-0.4,0.4-0.45,0.63c-0.02,0.08-0.02,0.16,0,0.22
					c0.02,0.08,0.06,0.14,0.12,0.18c0.06,0.05,0.13,0.08,0.21,0.09c0.09,0.02,0.18,0.02,0.25,0c0.16-0.04,0.24-0.4,0.32-0.76
					C10.9,14.9,10.94,14.69,11.01,14.53L11.01,14.53z M10.31,14.62c0.24-0.17,0.54-0.28,0.84-0.25l0.13,0.01l-0.07,0.11
					c-0.09,0.14-0.14,0.39-0.2,0.64c-0.09,0.4-0.18,0.81-0.44,0.88c-0.1,0.03-0.21,0.03-0.33,0.01c-0.1-0.02-0.2-0.06-0.28-0.12
					c-0.08-0.07-0.15-0.15-0.18-0.27c-0.02-0.08-0.03-0.18,0-0.29C9.85,15.08,10.05,14.81,10.31,14.62z"/>
				<path class="st2" d="M10.97,15.78c-0.57,0.14-0.96,0.85-0.89,1.36c0.07,0.54,0.59,0.53,0.84,0.34
					C11.22,17.26,10.87,16.23,10.97,15.78L10.97,15.78z"/>
				<path class="st1" d="M10.87,15.9c-0.2,0.08-0.37,0.24-0.5,0.44c-0.16,0.25-0.24,0.55-0.21,0.8c0.01,0.1,0.05,0.18,0.09,0.24
					c0.04,0.06,0.1,0.1,0.17,0.12l0,0c0.07,0.02,0.14,0.03,0.21,0.02c0.09-0.01,0.18-0.05,0.24-0.09c0.14-0.1,0.09-0.5,0.04-0.88
					C10.88,16.31,10.85,16.08,10.87,15.9L10.87,15.9z M10.23,16.25c0.17-0.26,0.42-0.47,0.71-0.55l0.13-0.03l-0.03,0.13
					c-0.04,0.17,0,0.45,0.03,0.72c0.05,0.43,0.11,0.87-0.11,1.04c-0.09,0.06-0.2,0.11-0.32,0.13c-0.09,0.01-0.19,0.01-0.28-0.03l0,0
					c-0.09-0.03-0.18-0.09-0.25-0.18c-0.06-0.08-0.1-0.19-0.12-0.32C9.96,16.87,10.05,16.53,10.23,16.25L10.23,16.25z"/>
				<path class="st2" d="M11.11,17.22c-0.37,0.27-0.59,1.08-0.4,1.58c0.2,0.51,0.73,0.31,0.9,0.06
					C11.83,18.54,11.16,17.69,11.11,17.22L11.11,17.22z"/>
				<path class="st1" d="M11.06,17.38c-0.13,0.14-0.23,0.35-0.28,0.58c-0.07,0.28-0.08,0.59,0.01,0.81c0.04,0.1,0.09,0.17,0.15,0.21
					l0,0c0.05,0.03,0.11,0.05,0.17,0.05c0.06,0,0.13-0.01,0.19-0.03c0.11-0.04,0.2-0.11,0.26-0.19c0.1-0.14-0.07-0.5-0.24-0.85
					C11.2,17.76,11.11,17.55,11.06,17.38L11.06,17.38z M10.61,17.91c0.08-0.32,0.24-0.61,0.45-0.76l0.11-0.08l0.02,0.14
					c0.02,0.17,0.14,0.42,0.26,0.67c0.19,0.39,0.39,0.79,0.23,1.01c-0.07,0.1-0.19,0.2-0.33,0.25c-0.08,0.03-0.17,0.05-0.25,0.04
					c-0.09,0-0.18-0.03-0.25-0.08l0,0c-0.08-0.06-0.16-0.15-0.21-0.29C10.53,18.57,10.53,18.23,10.61,17.91L10.61,17.91z"/>
				<path class="st2" d="M11.78,18.61c-0.32,0.53-0.31,1.32-0.04,1.75c0.38,0.62,0.92,0.36,0.96-0.08
					C12.73,19.9,11.93,19.05,11.78,18.61z"/>
				<path class="st1" d="M11.77,18.8c-0.1,0.22-0.14,0.46-0.15,0.7c-0.01,0.31,0.06,0.61,0.18,0.81c0.1,0.16,0.2,0.25,0.31,0.3
					c0.07,0.03,0.15,0.04,0.21,0.02c0.07-0.02,0.13-0.05,0.17-0.1c0.06-0.07,0.1-0.16,0.11-0.26c0.02-0.19-0.24-0.56-0.48-0.92
					C12,19.15,11.86,18.96,11.77,18.8L11.77,18.8z M11.46,19.49c0.01-0.32,0.09-0.66,0.25-0.93l0.09-0.15l0.06,0.17
					c0.06,0.17,0.23,0.42,0.41,0.68c0.26,0.38,0.53,0.77,0.51,1.03c-0.01,0.14-0.07,0.26-0.15,0.36c-0.07,0.08-0.16,0.13-0.25,0.15
					c-0.1,0.02-0.21,0.02-0.31-0.03c-0.13-0.06-0.27-0.17-0.38-0.36C11.53,20.16,11.45,19.83,11.46,19.49L11.46,19.49z"/>
				<path class="st2" d="M12.88,20.02c-0.34,0.57-0.33,1.42-0.04,1.88c0.41,0.67,0.98,0.38,1.03-0.08
					C13.9,21.4,13.05,20.49,12.88,20.02z"/>
				<path class="st1" d="M12.87,20.2c-0.11,0.24-0.16,0.51-0.17,0.77c-0.01,0.33,0.06,0.66,0.2,0.88c0.11,0.17,0.22,0.28,0.33,0.32
					c0.08,0.03,0.16,0.04,0.23,0.02l0,0c0.07-0.02,0.14-0.06,0.19-0.11c0.07-0.07,0.11-0.17,0.12-0.28
					c0.02-0.21-0.25-0.61-0.52-0.99C13.11,20.6,12.97,20.38,12.87,20.2L12.87,20.2z M12.54,20.97c0.01-0.35,0.09-0.7,0.27-0.99
					l0.09-0.15l0.06,0.17c0.06,0.19,0.25,0.45,0.44,0.73c0.28,0.41,0.57,0.83,0.55,1.1c-0.01,0.15-0.07,0.28-0.17,0.38
					c-0.07,0.08-0.17,0.14-0.27,0.16l0,0c-0.1,0.03-0.22,0.02-0.34-0.03c-0.14-0.06-0.28-0.18-0.41-0.39
					C12.61,21.68,12.53,21.33,12.54,20.97L12.54,20.97z"/>
				<path class="st2" d="M14.08,21.1c-0.28,0.62-0.17,1.48,0.17,1.92c0.5,0.63,1.05,0.28,1.04-0.21
					C15.29,22.4,14.31,21.57,14.08,21.1z"/>
				<path class="st1" d="M14.1,21.29c-0.08,0.25-0.11,0.54-0.08,0.81c0.03,0.34,0.14,0.66,0.31,0.88c0.13,0.16,0.26,0.26,0.38,0.29
					c0.09,0.03,0.17,0.02,0.24,0c0.07-0.03,0.13-0.07,0.18-0.14c0.06-0.08,0.09-0.19,0.09-0.3c-0.01-0.22-0.33-0.59-0.65-0.95
					C14.39,21.67,14.21,21.47,14.1,21.29L14.1,21.29z M13.85,22.12c-0.03-0.35,0.01-0.73,0.16-1.05l0.07-0.16l0.08,0.16
					c0.09,0.18,0.31,0.44,0.53,0.7c0.33,0.38,0.68,0.78,0.69,1.06c0,0.15-0.04,0.29-0.12,0.4c-0.07,0.09-0.15,0.16-0.26,0.19
					c-0.1,0.04-0.22,0.04-0.34,0.01c-0.15-0.04-0.31-0.15-0.46-0.35C14,22.84,13.88,22.49,13.85,22.12L13.85,22.12z"/>
				<path class="st3" d="M19.42,12.18c0.45-0.3,1.09-0.22,1.36,0.13c0.41,0.53-0.38,0.95-0.46,0.74
					C20.18,12.68,19.79,12.32,19.42,12.18L19.42,12.18z"/>
				<path class="st1" d="M19.37,12.12c0.24-0.16,0.52-0.22,0.79-0.19c0.28,0.03,0.53,0.15,0.69,0.35c0.19,0.24,0.16,0.47,0.05,0.64
					c-0.05,0.08-0.12,0.15-0.2,0.19c-0.08,0.05-0.16,0.08-0.22,0.09c-0.1,0.02-0.19-0.02-0.22-0.1c-0.07-0.17-0.19-0.34-0.34-0.49
					c-0.16-0.15-0.34-0.27-0.52-0.34l-0.15-0.06L19.37,12.12L19.37,12.12z M20.15,12.08c-0.18-0.02-0.37,0.01-0.55,0.09
					c0.15,0.08,0.3,0.18,0.43,0.31l0,0c0.16,0.16,0.3,0.35,0.38,0.55c0,0,0.02,0,0.04,0c0.05-0.01,0.1-0.03,0.16-0.07
					c0.06-0.04,0.11-0.09,0.15-0.15c0.08-0.12,0.1-0.28-0.04-0.45C20.59,12.21,20.38,12.11,20.15,12.08z"/>
				<path class="st3" d="M20.36,13.09c0.58-0.06,1.22,0.18,1.32,0.66c0.14,0.68-0.62,0.9-0.67,0.58
					C20.94,13.77,20.69,13.42,20.36,13.09L20.36,13.09z"/>
				<path class="st1" d="M20.35,13.01c0.32-0.03,0.66,0.02,0.92,0.15c0.25,0.12,0.44,0.32,0.49,0.57c0.07,0.35-0.07,0.59-0.24,0.72
					c-0.06,0.04-0.12,0.07-0.19,0.09c-0.07,0.02-0.13,0.02-0.19,0.01c-0.11-0.02-0.19-0.09-0.21-0.21
					c-0.03-0.26-0.11-0.48-0.22-0.67c-0.11-0.19-0.25-0.36-0.41-0.51l-0.12-0.12L20.35,13.01L20.35,13.01z M21.2,13.31
					c-0.19-0.09-0.42-0.14-0.66-0.14c0.12,0.13,0.22,0.27,0.31,0.42c0.12,0.21,0.2,0.44,0.24,0.73c0.01,0.04,0.04,0.07,0.08,0.08
					c0.03,0.01,0.07,0,0.11-0.01c0.04-0.01,0.09-0.03,0.13-0.07c0.13-0.1,0.23-0.28,0.18-0.55C21.56,13.56,21.41,13.41,21.2,13.31z"
					/>
				<path class="st3" d="M20.99,14.45c0.58-0.06,1.17,0.43,1.27,0.91c0.1,0.5-0.39,0.66-0.68,0.58
					C21.22,15.85,21.23,14.82,20.99,14.45z"/>
				<path class="st1" d="M20.99,14.37c0.3-0.03,0.6,0.07,0.84,0.25c0.26,0.19,0.46,0.46,0.51,0.73c0.02,0.11,0.02,0.21,0,0.29
					c-0.03,0.11-0.09,0.2-0.18,0.27c-0.08,0.06-0.18,0.1-0.28,0.12c-0.11,0.02-0.23,0.02-0.33-0.01c-0.26-0.07-0.35-0.48-0.44-0.88
					c-0.05-0.25-0.11-0.51-0.2-0.64l-0.07-0.11L20.99,14.37L20.99,14.37z M21.73,14.75c-0.18-0.13-0.39-0.21-0.61-0.22
					c0.07,0.16,0.11,0.37,0.16,0.58c0.08,0.36,0.15,0.72,0.32,0.76c0.08,0.02,0.16,0.02,0.25,0c0.08-0.02,0.15-0.04,0.21-0.09
					c0.06-0.04,0.1-0.1,0.12-0.18c0.02-0.06,0.02-0.13,0-0.22C22.13,15.15,21.96,14.92,21.73,14.75L21.73,14.75z"/>
				<path class="st3" d="M21.17,15.78c0.57,0.14,0.96,0.85,0.89,1.36c-0.07,0.54-0.59,0.53-0.84,0.34
					C20.92,17.26,21.27,16.23,21.17,15.78L21.17,15.78z"/>
				<path class="st1" d="M21.19,15.7c0.29,0.07,0.54,0.29,0.71,0.55c0.18,0.28,0.28,0.62,0.24,0.91c-0.02,0.13-0.06,0.24-0.12,0.32
					c-0.07,0.09-0.15,0.15-0.25,0.18l0,0c-0.09,0.03-0.19,0.04-0.28,0.03c-0.12-0.02-0.23-0.06-0.32-0.13
					c-0.22-0.16-0.16-0.6-0.11-1.04c0.03-0.28,0.07-0.55,0.03-0.72l-0.03-0.13L21.19,15.7L21.19,15.7z M21.76,16.33
					c-0.13-0.19-0.3-0.35-0.5-0.44c0.01,0.18-0.02,0.41-0.05,0.64c-0.05,0.39-0.1,0.78,0.04,0.88c0.07,0.05,0.15,0.08,0.24,0.09
					c0.07,0.01,0.14,0.01,0.21-0.02l0,0c0.06-0.02,0.12-0.06,0.17-0.12c0.04-0.06,0.08-0.14,0.09-0.24
					C22.01,16.88,21.93,16.58,21.76,16.33L21.76,16.33z"/>
				<path class="st3" d="M21.03,17.22c0.37,0.27,0.59,1.08,0.4,1.58c-0.2,0.51-0.73,0.31-0.9,0.06
					C20.31,18.54,20.98,17.69,21.03,17.22L21.03,17.22z"/>
				<path class="st1" d="M21.08,17.15c0.2,0.15,0.36,0.44,0.45,0.76c0.08,0.31,0.08,0.65-0.02,0.91c-0.05,0.13-0.13,0.23-0.21,0.29
					l0,0c-0.08,0.05-0.17,0.08-0.25,0.08c-0.08,0-0.17-0.01-0.25-0.04c-0.14-0.05-0.26-0.15-0.33-0.25
					c-0.16-0.22,0.04-0.62,0.23-1.01c0.12-0.25,0.24-0.5,0.26-0.67l0.02-0.14L21.08,17.15L21.08,17.15z M21.36,17.95
					c-0.06-0.23-0.16-0.44-0.28-0.58c-0.05,0.17-0.15,0.38-0.25,0.58c-0.17,0.35-0.34,0.71-0.24,0.85c0.06,0.08,0.15,0.15,0.26,0.19
					c0.06,0.02,0.12,0.04,0.19,0.03c0.06,0,0.12-0.02,0.17-0.05l0,0c0.06-0.04,0.11-0.11,0.15-0.21
					C21.44,18.54,21.44,18.23,21.36,17.95L21.36,17.95z"/>
				<path class="st3" d="M20.36,18.61c0.32,0.53,0.31,1.32,0.04,1.75c-0.38,0.62-0.92,0.36-0.96-0.08
					C19.41,19.9,20.2,19.05,20.36,18.61z"/>
				<path class="st1" d="M20.43,18.56c0.16,0.27,0.24,0.61,0.25,0.93c0.01,0.34-0.06,0.67-0.21,0.9c-0.12,0.19-0.25,0.31-0.38,0.36
					c-0.11,0.05-0.22,0.05-0.31,0.03s-0.19-0.08-0.25-0.15c-0.08-0.09-0.14-0.22-0.15-0.36c-0.02-0.25,0.25-0.65,0.51-1.03
					c0.18-0.26,0.35-0.51,0.41-0.68l0.06-0.17L20.43,18.56L20.43,18.56z M20.51,19.5c-0.01-0.24-0.05-0.49-0.15-0.7
					c-0.09,0.17-0.22,0.36-0.35,0.56c-0.24,0.35-0.5,0.72-0.48,0.92c0.01,0.1,0.05,0.19,0.11,0.26c0.05,0.05,0.11,0.09,0.17,0.1
					c0.07,0.02,0.14,0.01,0.21-0.02c0.1-0.04,0.21-0.14,0.31-0.3C20.46,20.11,20.52,19.81,20.51,19.5L20.51,19.5z"/>
				<path class="st3" d="M19.25,20.02c0.34,0.57,0.33,1.42,0.04,1.88c-0.41,0.67-0.98,0.38-1.03-0.08
					C18.23,21.4,19.09,20.49,19.25,20.02z"/>
				<path class="st1" d="M19.33,19.97c0.17,0.29,0.26,0.65,0.27,0.99c0.01,0.36-0.07,0.72-0.22,0.97c-0.13,0.2-0.27,0.33-0.41,0.39
					c-0.12,0.05-0.23,0.06-0.34,0.03l0,0c-0.1-0.03-0.2-0.08-0.27-0.16c-0.09-0.1-0.15-0.23-0.17-0.38
					c-0.03-0.27,0.27-0.69,0.55-1.1c0.19-0.28,0.38-0.54,0.44-0.73l0.06-0.17L19.33,19.97L19.33,19.97z M19.43,20.97
					c-0.01-0.26-0.06-0.53-0.17-0.77c-0.09,0.18-0.24,0.39-0.39,0.61c-0.26,0.38-0.54,0.78-0.52,0.99c0.01,0.11,0.06,0.21,0.12,0.28
					c0.05,0.06,0.12,0.1,0.19,0.11l0,0c0.07,0.02,0.15,0.01,0.23-0.02c0.11-0.05,0.23-0.15,0.33-0.32
					C19.37,21.63,19.44,21.31,19.43,20.97L19.43,20.97z"/>
				<path class="st3" d="M18.05,21.1c0.28,0.62,0.17,1.48-0.17,1.92c-0.5,0.63-1.05,0.28-1.04-0.21
					C16.85,22.4,17.83,21.57,18.05,21.1z"/>
				<path class="st1" d="M18.13,21.07c0.14,0.32,0.19,0.69,0.16,1.05c-0.03,0.37-0.15,0.72-0.34,0.96c-0.15,0.19-0.31,0.3-0.46,0.35
					c-0.12,0.04-0.24,0.03-0.34-0.01c-0.1-0.04-0.19-0.11-0.26-0.19c-0.08-0.11-0.13-0.25-0.12-0.4c0.01-0.28,0.35-0.67,0.69-1.06
					c0.23-0.26,0.45-0.51,0.53-0.7l0.08-0.16L18.13,21.07L18.13,21.07z M18.12,22.1c0.03-0.27,0-0.56-0.08-0.81
					c-0.12,0.17-0.29,0.37-0.47,0.58c-0.31,0.36-0.64,0.74-0.65,0.95c0,0.12,0.03,0.22,0.09,0.3c0.05,0.06,0.11,0.11,0.18,0.14
					c0.07,0.03,0.15,0.03,0.24,0c0.12-0.04,0.25-0.13,0.38-0.29C17.98,22.76,18.09,22.44,18.12,22.1L18.12,22.1z"/>
				<path class="st4" d="M16.02,21.42c-0.21,0.74-0.73,1.33-0.7,1.72c0.08,1.12,1.52,0.84,1.52,0.04
					C16.83,22.62,16.19,22.15,16.02,21.42z"/>
				<path class="st3" d="M16.01,21.84c-0.09,0.22-0.2,0.43-0.32,0.64c-0.08,0.16-0.26,0.47-0.24,0.65c0.07,0.94,1.24,0.68,1.24,0.05
					c0-0.03,0-0.05-0.01-0.08c-0.03-0.25-0.21-0.51-0.35-0.71C16.22,22.2,16.1,22.03,16.01,21.84L16.01,21.84z"/>
			</g>
			<g>
				<polygon class="st2" points="19.35,11.47 18.19,12.01 18.17,12.7 11.66,22.96 11.96,23.2 18.49,12.88 19.12,12.61 				"/>
				<path class="st5" d="M19.23,11.61l-0.96,0.45l-0.02,0.65l-0.01,0.04l-6.47,10.2l0.17,0.14l6.48-10.24l0.04-0.03l0.59-0.25
					L19.23,11.61L19.23,11.61z M18.16,11.93l1.15-0.54l0.15-0.07l-0.03,0.16l-0.23,1.15l-0.01,0.04l-0.04,0.02l-0.61,0.26
					l-6.51,10.3l-0.05,0.08l-0.07-0.06l-0.3-0.24l-0.06-0.05l0.04-0.06l6.5-10.24L18.11,12l0-0.05L18.16,11.93z"/>
				<path class="st2" d="M18.67,23.84c0.32-0.39,0.64-0.78,0.95-1.18c0.2-0.25,0.21-0.22,0.53-0.2c0.13,0.01,0.26,0.02,0.4,0.02
					c0.13-0.15,0.16-0.24,0.08-0.39c-0.22-0.09-0.44-0.21-0.64-0.31c-0.31-0.16-0.38-0.32-0.58-0.61c-0.28-0.41-0.55-0.83-0.83-1.25
					c-1.33-2.16-2.61-4.48-3.94-6.64c-0.46-0.75-0.97-1.52-1.44-2.11c-0.37,0.99,0.43,1.79,0.99,2.7c1.55,2.58,3.11,5.16,4.66,7.74
					c0.19,0.32,0.15,0.48,0.05,0.85c-0.12,0.42-0.32,0.8-0.57,1.15C18.36,23.77,18.47,23.85,18.67,23.84L18.67,23.84z"/>
				<path class="st5" d="M18.63,23.76l0.93-1.15c0.21-0.25,0.24-0.25,0.51-0.23l0,0c0.03,0,0.06,0,0.09,0.01l0.36,0.02
					c0.04-0.05,0.07-0.09,0.08-0.13c0.01-0.03,0-0.07-0.02-0.12c-0.19-0.08-0.38-0.18-0.55-0.27l-0.07-0.04l0,0
					c-0.29-0.15-0.39-0.3-0.54-0.54c-0.02-0.03-0.04-0.06-0.07-0.1l-0.83-1.25l0,0c-0.67-1.08-1.32-2.2-1.97-3.32
					c-0.65-1.12-1.3-2.24-1.97-3.32c-0.23-0.38-0.47-0.76-0.71-1.11c-0.21-0.31-0.42-0.6-0.62-0.86c-0.18,0.7,0.25,1.32,0.69,1.98
					c0.11,0.17,0.23,0.34,0.34,0.51v0l4.66,7.74c0.1,0.17,0.14,0.31,0.14,0.45c0,0.14-0.04,0.28-0.09,0.47
					c-0.06,0.22-0.14,0.42-0.24,0.62c-0.09,0.18-0.2,0.36-0.32,0.53c0.01,0.04,0.03,0.07,0.06,0.09l0,0
					C18.52,23.75,18.57,23.76,18.63,23.76L18.63,23.76z M19.69,22.71l-0.95,1.18l-0.02,0.03l-0.04,0c-0.12,0.01-0.22-0.01-0.29-0.06
					l0,0c-0.07-0.05-0.12-0.13-0.14-0.23l-0.01-0.04l0.02-0.03c0.13-0.17,0.24-0.35,0.33-0.54c0.09-0.19,0.17-0.38,0.23-0.59
					c0.05-0.18,0.08-0.31,0.08-0.42c0-0.11-0.03-0.22-0.12-0.37l-4.66-7.73l0,0c-0.11-0.17-0.22-0.34-0.34-0.5
					c-0.5-0.73-0.98-1.43-0.67-2.27l0.05-0.13l0.09,0.11c0.24,0.29,0.48,0.63,0.73,0.99c0.24,0.36,0.49,0.74,0.72,1.12
					c0.67,1.08,1.32,2.2,1.97,3.32c0.65,1.12,1.3,2.24,1.97,3.32l0.83,1.25c0.02,0.03,0.04,0.07,0.07,0.1
					c0.14,0.22,0.23,0.35,0.48,0.49l0,0l0.07,0.04c0.18,0.09,0.37,0.19,0.56,0.27l0.04,0.04c0.05,0.09,0.07,0.17,0.05,0.25
					c-0.02,0.08-0.06,0.15-0.14,0.23l-0.03,0.03l-0.04,0l-0.4-0.02c-0.04,0-0.06,0-0.09-0.01l0,0
					C19.85,22.52,19.83,22.52,19.69,22.71L19.69,22.71z"/>
				<path class="st2" d="M18.07,20.3c0.18-0.11,0.34-0.26,0.51-0.37c0.19-0.14,0.43,0.19,0.22,0.33c-0.18,0.13-0.31,0.26-0.48,0.39
					C18.15,20.71,17.93,20.46,18.07,20.3L18.07,20.3z"/>
				<path class="st5" d="M18.02,20.23c0.08-0.05,0.17-0.12,0.25-0.18c0.08-0.06,0.17-0.13,0.26-0.19l0,0c0.1-0.07,0.21-0.06,0.3,0
					c0.03,0.02,0.06,0.05,0.08,0.08c0.02,0.03,0.04,0.07,0.05,0.11c0.02,0.1-0.01,0.2-0.11,0.28l0,0c-0.08,0.06-0.16,0.12-0.24,0.19
					c-0.08,0.07-0.16,0.13-0.25,0.2l-0.01,0.01c-0.07,0.03-0.15,0.03-0.21-0.01c-0.05-0.02-0.09-0.06-0.12-0.1
					c-0.03-0.04-0.06-0.09-0.07-0.14c-0.01-0.07,0-0.15,0.06-0.21L18.02,20.23L18.02,20.23z M18.37,20.18
					c-0.08,0.06-0.16,0.13-0.25,0.18c-0.02,0.02-0.02,0.05-0.02,0.07c0,0.03,0.02,0.05,0.03,0.07c0.02,0.02,0.04,0.04,0.06,0.05
					c0.02,0.01,0.05,0.02,0.07,0.01c0.08-0.06,0.16-0.12,0.23-0.18c0.08-0.07,0.16-0.13,0.25-0.2l0,0c0.04-0.03,0.05-0.07,0.04-0.1
					c0-0.02-0.01-0.03-0.02-0.05c-0.01-0.02-0.02-0.03-0.04-0.04c-0.03-0.02-0.07-0.03-0.11,0l0,0
					C18.54,20.05,18.46,20.11,18.37,20.18L18.37,20.18z"/>
				<path class="st2" d="M17.96,20.41c0.09,0.01,0.18,0.18,0.16,0.27c-0.01,0.03-0.04,0.05-0.07,0.08
					c-0.04,0.03-0.06,0.05-0.11,0.05c-0.15,0-0.24-0.2-0.17-0.3C17.79,20.46,17.91,20.41,17.96,20.41L17.96,20.41z"/>
				<path class="st5" d="M17.97,20.33c0.01,0,0.01,0,0.02,0l0,0c0.06,0.02,0.12,0.07,0.16,0.14c0.04,0.06,0.06,0.14,0.05,0.2l0,0
					c0,0.01,0,0.02-0.01,0.03l0,0c-0.01,0.03-0.02,0.05-0.04,0.07c-0.02,0.02-0.03,0.03-0.05,0.05l0,0l0,0
					c-0.05,0.04-0.08,0.06-0.15,0.06c-0.05,0-0.1-0.02-0.13-0.04l0,0c-0.05-0.03-0.08-0.07-0.11-0.12c-0.03-0.05-0.04-0.1-0.04-0.15
					c0-0.04,0.01-0.08,0.03-0.12l0,0c0.02-0.03,0.07-0.07,0.12-0.09C17.87,20.34,17.93,20.33,17.97,20.33L17.97,20.33z M17.95,20.49
					L17.95,20.49c-0.01,0-0.03,0.01-0.06,0.02c-0.03,0.01-0.05,0.03-0.06,0.04l0,0c-0.01,0.01-0.01,0.02-0.01,0.04
					c0,0.02,0.01,0.05,0.02,0.07c0.01,0.02,0.03,0.04,0.05,0.05l0,0c0.01,0.01,0.03,0.02,0.05,0.02s0.03-0.01,0.05-0.03l0,0l0,0
					c0.01-0.01,0.02-0.02,0.03-0.03c0,0,0.01,0,0.01,0l0,0l0-0.01l0,0c0-0.03-0.01-0.07-0.03-0.1
					C17.99,20.52,17.96,20.5,17.95,20.49L17.95,20.49L17.95,20.49z"/>
				<path class="st2" d="M18.25,20.66c0.18-0.11,0.34-0.26,0.51-0.37c0.19-0.14,0.43,0.19,0.22,0.33c-0.18,0.13-0.31,0.26-0.48,0.39
					C18.33,21.07,18.11,20.82,18.25,20.66L18.25,20.66z"/>
				<path class="st5" d="M18.2,20.59c0.08-0.05,0.17-0.12,0.25-0.18c0.08-0.06,0.17-0.13,0.26-0.19l0,0c0.1-0.07,0.21-0.06,0.3,0
					c0.03,0.02,0.06,0.05,0.08,0.08c0.02,0.03,0.04,0.07,0.05,0.11c0.02,0.1-0.01,0.2-0.11,0.28l0,0c-0.08,0.06-0.16,0.12-0.24,0.19
					c-0.08,0.07-0.16,0.13-0.25,0.2l-0.01,0.01c-0.07,0.03-0.15,0.03-0.21-0.01c-0.05-0.02-0.09-0.06-0.12-0.1
					c-0.03-0.04-0.06-0.09-0.07-0.14c-0.01-0.07,0-0.15,0.06-0.21L18.2,20.59L18.2,20.59z M18.55,20.53
					c-0.08,0.06-0.16,0.13-0.25,0.18c-0.02,0.02-0.02,0.05-0.02,0.07c0,0.03,0.02,0.05,0.03,0.07c0.02,0.02,0.04,0.04,0.06,0.05
					c0.02,0.01,0.05,0.02,0.07,0.01c0.08-0.06,0.16-0.12,0.23-0.18c0.08-0.07,0.16-0.13,0.25-0.2l0,0c0.04-0.03,0.05-0.07,0.04-0.1
					c0-0.02-0.01-0.03-0.02-0.05c-0.01-0.02-0.02-0.03-0.04-0.04c-0.03-0.02-0.07-0.03-0.11,0l0,0
					C18.72,20.4,18.64,20.47,18.55,20.53L18.55,20.53z"/>
				<path class="st2" d="M18.14,20.77c0.09,0.01,0.18,0.18,0.16,0.27c-0.01,0.03-0.04,0.05-0.07,0.08
					c-0.04,0.03-0.06,0.05-0.11,0.05c-0.15,0-0.24-0.2-0.17-0.3C17.97,20.82,18.09,20.76,18.14,20.77L18.14,20.77z"/>
				<path class="st5" d="M18.15,20.69c0.01,0,0.01,0,0.02,0l0,0c0.06,0.02,0.12,0.07,0.16,0.14c0.04,0.06,0.06,0.14,0.05,0.2l0,0
					c0,0.01,0,0.02-0.01,0.03l0,0c-0.01,0.03-0.02,0.05-0.04,0.07c-0.02,0.02-0.03,0.03-0.05,0.05l0,0l0,0
					c-0.05,0.04-0.08,0.06-0.15,0.06c-0.05,0-0.1-0.02-0.13-0.04l0,0c-0.05-0.03-0.08-0.07-0.11-0.12c-0.03-0.05-0.04-0.1-0.04-0.15
					c0-0.04,0.01-0.08,0.03-0.12l0,0c0.02-0.03,0.07-0.07,0.12-0.09C18.05,20.7,18.11,20.68,18.15,20.69L18.15,20.69z M18.13,20.85
					L18.13,20.85c-0.01,0-0.03,0.01-0.06,0.02c-0.03,0.01-0.05,0.03-0.06,0.04l0,0C18.01,20.92,18,20.93,18,20.95
					c0,0.02,0.01,0.05,0.02,0.07c0.01,0.02,0.03,0.04,0.05,0.05l0,0c0.01,0.01,0.03,0.02,0.05,0.02s0.03-0.01,0.05-0.03l0,0l0,0
					c0.01-0.01,0.02-0.02,0.03-0.03c0,0,0.01,0,0.01,0l0,0l0-0.01l0,0c0-0.03-0.01-0.07-0.03-0.1
					C18.17,20.88,18.14,20.86,18.13,20.85L18.13,20.85L18.13,20.85z"/>
				<path class="st2" d="M18.5,20.98c0.18-0.11,0.34-0.26,0.51-0.37c0.19-0.14,0.43,0.19,0.22,0.33c-0.18,0.13-0.31,0.26-0.49,0.39
					C18.58,21.39,18.36,21.14,18.5,20.98L18.5,20.98z"/>
				<path class="st5" d="M18.46,20.91c0.08-0.05,0.17-0.12,0.25-0.18c0.08-0.06,0.17-0.13,0.26-0.19l0,0c0.1-0.07,0.21-0.06,0.3,0
					c0.03,0.02,0.06,0.05,0.08,0.08c0.02,0.03,0.04,0.07,0.05,0.11c0.02,0.1-0.01,0.2-0.11,0.28l0,0c-0.08,0.06-0.16,0.12-0.24,0.19
					c-0.08,0.07-0.16,0.13-0.25,0.2l-0.01,0.01c-0.07,0.03-0.15,0.03-0.21-0.01c-0.05-0.02-0.09-0.06-0.12-0.1
					c-0.03-0.04-0.06-0.09-0.07-0.14c-0.01-0.07,0-0.15,0.06-0.21L18.46,20.91L18.46,20.91z M18.81,20.86
					c-0.08,0.06-0.16,0.13-0.25,0.18c-0.02,0.02-0.02,0.05-0.02,0.07c0,0.03,0.02,0.05,0.03,0.07c0.02,0.02,0.04,0.04,0.06,0.05
					c0.02,0.01,0.05,0.02,0.07,0.01c0.08-0.06,0.16-0.12,0.23-0.18c0.08-0.07,0.16-0.13,0.25-0.2l0,0c0.04-0.03,0.05-0.07,0.04-0.1
					c0-0.02-0.01-0.03-0.02-0.05s-0.02-0.03-0.04-0.04c-0.03-0.02-0.07-0.03-0.11,0l0,0C18.97,20.73,18.89,20.79,18.81,20.86
					L18.81,20.86z"/>
				<path class="st2" d="M18.39,21.1c0.09,0.01,0.18,0.18,0.16,0.27c-0.01,0.03-0.04,0.05-0.07,0.08c-0.04,0.03-0.06,0.05-0.11,0.05
					c-0.15,0-0.24-0.2-0.17-0.3C18.23,21.15,18.35,21.09,18.39,21.1L18.39,21.1z"/>
				<path class="st5" d="M18.4,21.02c0.01,0,0.01,0,0.02,0l0,0c0.06,0.02,0.12,0.07,0.16,0.14c0.04,0.06,0.06,0.14,0.05,0.2l0,0
					c0,0.01,0,0.02-0.01,0.03l0,0c-0.01,0.03-0.02,0.05-0.04,0.07c-0.02,0.02-0.03,0.03-0.05,0.05l0,0l0,0
					c-0.05,0.04-0.08,0.06-0.15,0.06c-0.05,0-0.1-0.02-0.13-0.04l0,0c-0.05-0.03-0.08-0.07-0.11-0.12c-0.03-0.05-0.04-0.1-0.04-0.15
					c0-0.04,0.01-0.08,0.03-0.12l0,0c0.02-0.03,0.07-0.07,0.12-0.09C18.3,21.03,18.36,21.01,18.4,21.02L18.4,21.02z M18.38,21.18
					L18.38,21.18c-0.01,0-0.03,0.01-0.06,0.02c-0.03,0.01-0.05,0.03-0.06,0.04l0,0c-0.01,0.01-0.01,0.02-0.01,0.04
					c0,0.02,0.01,0.05,0.02,0.07c0.01,0.02,0.03,0.04,0.05,0.05l0,0c0.01,0.01,0.03,0.02,0.05,0.02c0.02,0,0.03-0.01,0.05-0.03l0,0
					l0,0c0.01-0.01,0.02-0.02,0.03-0.03c0,0,0.01,0,0.01,0l0,0l0-0.01l0,0c0-0.03-0.01-0.07-0.03-0.1
					C18.42,21.21,18.4,21.18,18.38,21.18L18.38,21.18L18.38,21.18z"/>
				<path class="st2" d="M18.71,21.36c0.18-0.11,0.34-0.26,0.51-0.37c0.19-0.14,0.43,0.19,0.22,0.33c-0.18,0.13-0.31,0.26-0.49,0.39
					C18.79,21.77,18.58,21.52,18.71,21.36L18.71,21.36z"/>
				<path class="st5" d="M18.67,21.29c0.08-0.05,0.17-0.12,0.25-0.18c0.08-0.06,0.17-0.13,0.26-0.19l0,0c0.1-0.07,0.21-0.06,0.3,0
					c0.03,0.02,0.06,0.05,0.08,0.08c0.02,0.03,0.04,0.07,0.05,0.11c0.02,0.1-0.01,0.2-0.11,0.28l0,0c-0.08,0.06-0.16,0.12-0.24,0.19
					c-0.08,0.07-0.16,0.13-0.25,0.2l-0.01,0.01c-0.07,0.03-0.15,0.03-0.21-0.01c-0.05-0.02-0.09-0.06-0.12-0.1
					c-0.03-0.04-0.06-0.09-0.07-0.14c-0.01-0.07,0-0.15,0.06-0.21L18.67,21.29L18.67,21.29z M19.02,21.24
					c-0.08,0.06-0.16,0.13-0.25,0.18c-0.02,0.02-0.02,0.05-0.02,0.07c0,0.03,0.02,0.05,0.03,0.07c0.02,0.02,0.04,0.04,0.06,0.05
					c0.02,0.01,0.05,0.02,0.07,0.01c0.08-0.06,0.16-0.12,0.23-0.18c0.08-0.07,0.16-0.13,0.25-0.2l0,0c0.04-0.03,0.05-0.07,0.04-0.1
					c0-0.02-0.01-0.03-0.02-0.05c-0.01-0.02-0.02-0.03-0.04-0.04c-0.03-0.02-0.07-0.03-0.11,0l0,0
					C19.18,21.11,19.1,21.17,19.02,21.24L19.02,21.24z"/>
				<path class="st2" d="M18.6,21.47c0.09,0.01,0.18,0.18,0.16,0.27c-0.01,0.03-0.04,0.05-0.07,0.08c-0.04,0.03-0.06,0.05-0.11,0.05
					c-0.15,0-0.24-0.2-0.17-0.3C18.44,21.53,18.56,21.47,18.6,21.47L18.6,21.47z"/>
				<path class="st5" d="M18.61,21.39c0.01,0,0.01,0,0.02,0l0,0c0.06,0.02,0.12,0.07,0.16,0.14c0.04,0.06,0.06,0.14,0.05,0.2l0,0
					c0,0.01,0,0.02-0.01,0.03l0,0c-0.01,0.03-0.02,0.05-0.04,0.07c-0.02,0.02-0.03,0.03-0.05,0.05l0,0l0,0
					c-0.05,0.04-0.08,0.06-0.15,0.06c-0.05,0-0.1-0.02-0.13-0.04l0,0c-0.05-0.03-0.08-0.07-0.11-0.12c-0.03-0.05-0.04-0.1-0.04-0.15
					c0-0.04,0.01-0.08,0.03-0.12l0,0c0.02-0.03,0.07-0.07,0.12-0.09C18.51,21.4,18.57,21.39,18.61,21.39L18.61,21.39z M18.59,21.56
					L18.59,21.56c-0.01,0-0.03,0.01-0.06,0.02c-0.03,0.01-0.05,0.03-0.06,0.04l0,0c-0.01,0.01-0.01,0.02-0.01,0.04
					c0,0.02,0.01,0.05,0.02,0.07c0.01,0.02,0.03,0.04,0.05,0.05l0,0c0.01,0.01,0.03,0.02,0.05,0.02s0.03-0.01,0.05-0.03l0,0l0,0
					c0.01-0.01,0.02-0.02,0.03-0.03c0,0,0.01,0,0.01,0l0,0l0-0.01l0,0c0-0.03-0.01-0.07-0.03-0.1
					C18.63,21.59,18.61,21.56,18.59,21.56L18.59,21.56L18.59,21.56z"/>
			</g>
			<g>
				<polygon class="st4" points="15.86,0.95 16.45,2.79 18.39,2.78 16.82,3.91 17.42,5.74 15.86,4.61 14.29,5.74 14.9,3.91 
					13.33,2.78 15.26,2.79 				"/>
				<polygon class="st3" points="15.86,1.25 15.33,2.88 13.62,2.87 15.01,3.88 14.47,5.5 15.86,4.49 17.24,5.5 16.71,3.88 
					18.1,2.87 16.39,2.88 				"/>
			</g>
			<g>
				<g>
					<polygon class="st6" points="15.96,11.07 15.96,21.15 13.85,18.93 13.85,13.38 					"/>
					<polygon class="st3" points="15.96,11.07 15.96,21.15 18.08,18.93 18.08,13.38 					"/>
				</g>
				<path class="st1" d="M18.08,17.03L18,17.09c-0.42,0.3-0.85,0.61-0.66,1.01c0.01,0.02,0.02,0.03,0.03,0.04
					c0.03,0.02,0.09,0.01,0.15-0.03c0.08-0.04,0.18-0.11,0.28-0.2c0.1-0.08,0.19-0.18,0.27-0.27v0.24
					c-0.05,0.05-0.11,0.11-0.16,0.16c-0.11,0.09-0.22,0.17-0.32,0.22c-0.12,0.06-0.23,0.07-0.31,0.02c-0.04-0.02-0.07-0.06-0.09-0.1
					c-0.25-0.52,0.24-0.88,0.71-1.22c0.06-0.04,0.12-0.08,0.17-0.13L18.08,17.03L18.08,17.03z M15.96,21.15l-0.05-0.05
					c-0.06-1.1-0.31-2.18-0.75-3.12c-0.33-0.71-0.77-1.34-1.32-1.82v-0.22c0.61,0.51,1.1,1.19,1.47,1.96
					c0.36,0.78,0.6,1.66,0.71,2.56c0.02,0.19-0.05,0.37-0.04,0.56L15.96,21.15L15.96,21.15z M15.05,20.19l-0.16-0.17l0-0.33
					c0-0.25-0.08-0.52-0.15-0.76c-0.04-0.13-0.08-0.25-0.1-0.36c-0.08-0.38-0.34-0.68-0.6-0.97c-0.07-0.08-0.13-0.15-0.2-0.23V17.1
					c0.1,0.13,0.21,0.26,0.32,0.38c0.27,0.31,0.55,0.62,0.64,1.04c0.02,0.1,0.06,0.22,0.1,0.35c0.08,0.26,0.16,0.54,0.16,0.81
					L15.05,20.19z M14.58,19.69l-0.15-0.16c0.01-0.26-0.06-0.49-0.17-0.7c-0.1-0.19-0.25-0.35-0.41-0.5v-0.22
					c0.22,0.18,0.42,0.39,0.56,0.64C14.55,19.03,14.63,19.34,14.58,19.69z M13.85,13.44v-0.05l0.08-0.09
					c0.17,0.13,0.31,0.32,0.43,0.55c0.27,0.51,0.41,1.18,0.41,1.64c0,0.28,0.1,0.5,0.2,0.72l0,0c0.06,0.14,0.13,0.27,0.17,0.43
					c0.07,0.26,0.43,0.45,0.69,0.59c0.05,0.03,0.09,0.05,0.13,0.07v0.19c-0.05-0.03-0.13-0.07-0.21-0.12
					c-0.29-0.16-0.69-0.37-0.77-0.7c-0.04-0.14-0.1-0.27-0.16-0.4l0,0c-0.11-0.24-0.22-0.47-0.22-0.78c0-0.44-0.13-1.08-0.39-1.56
					C14.1,13.72,13.98,13.55,13.85,13.44L13.85,13.44z M16.14,17.42c0.08-0.15,0.17-0.28,0.28-0.42c0.09-0.13,0.2-0.26,0.3-0.44
					c0.26-0.44,0.29-0.96,0.33-1.48c0.05-0.75,0.1-1.48,0.78-1.96l0.11,0.12c-0.63,0.44-0.68,1.14-0.73,1.85
					c-0.04,0.54-0.08,1.09-0.35,1.55c-0.11,0.18-0.21,0.32-0.31,0.45c-0.24,0.31-0.42,0.56-0.42,1.16c0,0.54,0.24,0.94,0.61,1.21
					c0.16,0.12,0.35,0.21,0.55,0.29l-0.12,0.13c-0.19-0.08-0.37-0.17-0.53-0.29c-0.41-0.3-0.67-0.74-0.67-1.34
					c0-0.34,0.05-0.57,0.14-0.76L16.14,17.42L16.14,17.42z M14.55,12.62l0.11-0.12c0.28,0.25,0.36,0.78,0.45,1.32
					c0.11,0.72,0.23,1.46,0.81,1.46c0.77,0,0.78-0.75,0.8-1.46c0.01-0.63,0.03-1.24,0.51-1.37l0.13,0.14
					c-0.46,0.06-0.47,0.63-0.48,1.23c-0.02,0.79-0.03,1.62-0.96,1.62c-0.72,0-0.85-0.81-0.97-1.6
					C14.86,13.33,14.78,12.83,14.55,12.62z M18.07,14.36v0.22c-0.33,0.32-0.41,0.81-0.49,1.32c-0.05,0.33-0.11,0.66-0.23,0.97
					c-0.05,0.12-0.09,0.24-0.14,0.35c-0.18,0.44-0.32,0.8-0.32,1.07l0,0c0,0.36,0.29,0.58,1.17,0.65l-0.14,0.15
					c-0.9-0.09-1.19-0.36-1.19-0.8l0,0c0-0.3,0.15-0.68,0.33-1.13c0.04-0.11,0.09-0.23,0.14-0.35c0.11-0.29,0.17-0.62,0.22-0.94
					C17.52,15.27,17.61,14.69,18.07,14.36L18.07,14.36z M15.96,12.73c-0.1,0.1-0.16,0.2-0.2,0.32c-0.04,0.13-0.06,0.29-0.06,0.47
					c0,0.13,0.02,0.23,0.05,0.32c0.04,0.09,0.1,0.18,0.18,0.29c0.01,0.01,0.02,0.02,0.03,0.03c0.03,0.02,0.05,0.03,0.08,0.02
					c0.03,0,0.06-0.02,0.09-0.04c0.02-0.01,0.03-0.03,0.04-0.04c0.02-0.03,0.04-0.07,0.06-0.11c0.07-0.18,0.05-0.45-0.01-0.7
					C16.17,13.03,16.07,12.81,15.96,12.73L15.96,12.73z M15.6,12.99c0.05-0.16,0.14-0.29,0.29-0.43l0.04-0.03l0.05,0.02
					c0.03,0.01,0.06,0.03,0.08,0.05c0.13,0.11,0.26,0.36,0.33,0.64c0.07,0.28,0.08,0.58,0,0.8c-0.02,0.06-0.05,0.11-0.08,0.15
					c-0.02,0.03-0.04,0.05-0.07,0.07c-0.05,0.04-0.11,0.07-0.18,0.08c-0.07,0.01-0.14-0.01-0.2-0.06c-0.02-0.01-0.03-0.03-0.05-0.05
					c-0.09-0.12-0.16-0.22-0.21-0.33c-0.05-0.11-0.07-0.23-0.07-0.39C15.54,13.31,15.55,13.15,15.6,12.99L15.6,12.99z"/>
				<path class="st1" d="M16.04,20.94l1.95-2.05v-5.48l-1.95-2.14V20.94z M15.88,20.94v-9.66l-1.95,2.14v5.48L15.88,20.94z
					 M18.14,18.98l-2.11,2.22l-0.06,0.06L15.9,21.2l-2.11-2.22l-0.02-0.06v-5.54l0.02-0.06l2.11-2.31l0.06-0.07l0.06,0.07l2.11,2.31
					l0.02,0.06v5.54L18.14,18.98L18.14,18.98z"/>
			</g>
			<g>
				<path class="st3" d="M4.35,11.69c0.93,0.06,1.83,0.04,2.61,0.07c-0.4,0.94-0.59,1.88-0.7,2.83c1.53-1.11,3.07-2.16,4.68-2.69
					c-0.76-0.99-1.46-1.94-2.16-2.87C7.17,9.61,5.64,10.55,4.35,11.69L4.35,11.69z"/>
				<path class="st5" d="M4.55,11.62c0.53,0.03,1.04,0.03,1.52,0.04c0.31,0,0.6,0.01,0.88,0.02l0.12,0l-0.05,0.11
					c-0.37,0.87-0.56,1.74-0.67,2.62c0.72-0.52,1.43-1.02,2.16-1.46c0.75-0.45,1.5-0.83,2.28-1.1c-0.36-0.47-0.7-0.92-1.04-1.37
					C9.4,10,9.07,9.56,8.73,9.11C7.97,9.4,7.22,9.77,6.51,10.21C5.82,10.62,5.16,11.1,4.55,11.62L4.55,11.62z M6.08,11.82
					c-0.55-0.01-1.14-0.01-1.74-0.05l-0.05-0.14c0.66-0.58,1.37-1.11,2.13-1.56c0.74-0.45,1.52-0.83,2.31-1.13l0.06-0.02l0.04,0.05
					c0.36,0.48,0.72,0.96,1.06,1.42c0.36,0.48,0.73,0.97,1.1,1.46l0.07,0.09l-0.11,0.04c-0.8,0.26-1.58,0.66-2.35,1.12
					c-0.77,0.47-1.54,1.01-2.3,1.56l-0.15,0.11l0.02-0.19c0.1-0.91,0.29-1.83,0.66-2.74C6.59,11.83,6.34,11.83,6.08,11.82
					L6.08,11.82z"/>
				<path class="st3" d="M27.65,11.69c-0.93,0.06-1.83,0.04-2.61,0.07c0.4,0.94,0.59,1.88,0.7,2.83c-1.53-1.11-3.07-2.16-4.68-2.69
					c0.76-0.99,1.46-1.94,2.16-2.87C24.83,9.61,26.36,10.55,27.65,11.69L27.65,11.69z"/>
				<path class="st5" d="M27.66,11.77c-0.6,0.04-1.19,0.04-1.74,0.05c-0.26,0-0.51,0.01-0.75,0.01c0.37,0.91,0.56,1.83,0.66,2.74
					l0.02,0.19l-0.15-0.11c-0.76-0.55-1.53-1.09-2.3-1.56c-0.77-0.46-1.55-0.86-2.35-1.12l-0.11-0.04l0.07-0.09
					c0.38-0.49,0.74-0.98,1.1-1.46c0.34-0.46,0.7-0.94,1.06-1.42l0.04-0.05l0.06,0.02c0.8,0.3,1.57,0.68,2.31,1.13
					c0.76,0.46,1.47,0.99,2.13,1.56L27.66,11.77L27.66,11.77z M25.92,11.66c0.48-0.01,1-0.01,1.52-0.04c-0.61-0.52-1.26-1-1.95-1.42
					c-0.71-0.43-1.46-0.8-2.23-1.09c-0.33,0.44-0.67,0.89-1.02,1.37c-0.33,0.44-0.68,0.9-1.04,1.37c0.77,0.27,1.53,0.65,2.28,1.1
					c0.73,0.44,1.45,0.94,2.16,1.46c-0.11-0.87-0.31-1.75-0.67-2.62l-0.05-0.11l0.12,0C25.32,11.66,25.61,11.66,25.92,11.66
					L25.92,11.66z"/>
				<path class="st3" d="M8.15,8.44c5.45-2.67,10.58-2.39,15.49-0.11c-0.06,0.17,0.12,0.6,0.06,0.77c-0.04,0.12-0.32-0.03-0.37,0.09
					c-0.3,0.83-0.59,1.65-0.89,2.47c-4.35-1.83-8.8-1.68-13.32-0.43C8.8,10.3,8.48,9.37,8.15,8.44L8.15,8.44z"/>
				<path class="st5" d="M8.13,8.4c2.73-1.34,5.38-1.94,7.96-1.91c2.58,0.02,5.1,0.66,7.56,1.81l0.03,0.02l-0.01,0.03
					c-0.03,0.07,0,0.22,0.03,0.36c0.03,0.16,0.06,0.31,0.03,0.41c-0.03,0.09-0.13,0.08-0.23,0.07c-0.07-0.01-0.13-0.01-0.14,0.02
					l-0.89,2.47l-0.02,0.04l-0.04-0.02c-2.17-0.91-4.36-1.33-6.58-1.37c-2.22-0.03-4.46,0.31-6.71,0.94l-0.04,0.01l-0.01-0.04
					l-0.97-2.8l0.04-0.01L8.13,8.4L8.13,8.4z M16.1,6.57c-2.56-0.02-5.19,0.57-7.89,1.89l0.95,2.73c2.25-0.62,4.49-0.97,6.7-0.93
					c2.21,0.03,4.41,0.45,6.57,1.36l0.88-2.43c0.03-0.09,0.13-0.08,0.23-0.07c0.07,0.01,0.13,0.01,0.14-0.02
					c0.03-0.07,0-0.22-0.03-0.36c-0.03-0.14-0.05-0.27-0.04-0.37C21.15,7.22,18.66,6.59,16.1,6.57L16.1,6.57z"/>
				<path class="st3" d="M7.9,8.21c0.56,0.62,1.01,0.4,1.68-0.2C9.05,7.37,8.6,7.83,7.9,8.21z"/>
				<path class="st5" d="M8.03,8.23c0.23,0.23,0.43,0.3,0.65,0.25C8.91,8.44,9.17,8.26,9.47,8c-0.38-0.4-0.73-0.19-1.2,0.09
					C8.19,8.14,8.11,8.18,8.03,8.23L8.03,8.23z M8.71,8.65C8.42,8.7,8.14,8.6,7.84,8.26L7.77,8.19l0.09-0.05
					c0.11-0.06,0.22-0.13,0.32-0.19c0.56-0.34,0.97-0.58,1.47,0.01L9.7,8.02L9.64,8.07C9.29,8.38,9,8.59,8.71,8.65z"/>
				<path class="st3" d="M9.16,7.63C9.4,7.9,9.65,8.09,9.91,8.05c0.36-0.05,0.68-0.15,1.07-0.49C10.44,6.93,9.86,7.25,9.16,7.63
					L9.16,7.63z"/>
				<path class="st5" d="M9.29,7.65c0.09,0.1,0.19,0.18,0.28,0.24c0.11,0.07,0.22,0.1,0.33,0.09c0.18-0.02,0.34-0.06,0.51-0.13
					c0.15-0.06,0.3-0.15,0.45-0.28c-0.23-0.24-0.47-0.3-0.72-0.26C9.88,7.34,9.6,7.48,9.29,7.65L9.29,7.65z M9.49,8.03
					C9.35,7.94,9.23,7.82,9.1,7.68L9.03,7.61l0.09-0.05c0.36-0.19,0.68-0.37,1-0.42c0.33-0.05,0.63,0.03,0.93,0.38l0.05,0.06
					l-0.06,0.05c-0.2,0.17-0.38,0.29-0.56,0.36c-0.18,0.08-0.36,0.12-0.55,0.14C9.77,8.15,9.63,8.11,9.49,8.03L9.49,8.03z"/>
				<path class="st3" d="M10.34,7.2c0.24,0.26,0.48,0.44,0.74,0.43c0.37-0.02,0.72-0.1,1.1-0.38C11.64,6.57,11.04,6.82,10.34,7.2
					L10.34,7.2z"/>
				<path class="st5" d="M10.47,7.22c0.09,0.09,0.18,0.17,0.27,0.23c0.11,0.07,0.22,0.11,0.33,0.1c0.18-0.01,0.35-0.03,0.52-0.09
					c0.15-0.05,0.3-0.12,0.46-0.23c-0.23-0.26-0.48-0.35-0.73-0.33C11.06,6.93,10.78,7.06,10.47,7.22L10.47,7.22z M10.65,7.59
					c-0.13-0.08-0.25-0.2-0.38-0.33l-0.07-0.08l0.09-0.05c0.36-0.2,0.69-0.36,1.01-0.38c0.33-0.03,0.64,0.09,0.93,0.46l0.05,0.07
					l-0.07,0.05c-0.2,0.15-0.39,0.24-0.58,0.3c-0.19,0.06-0.38,0.09-0.57,0.1C10.93,7.72,10.79,7.68,10.65,7.59L10.65,7.59z"/>
				<path class="st3" d="M11.6,6.78c0.19,0.21,0.37,0.43,0.59,0.46c0.42,0.05,0.92-0.02,1.24-0.25C13.03,6.23,12.3,6.4,11.6,6.78z"
					/>
				<path class="st5" d="M11.59,6.89l-0.05-0.05l-0.07-0.08l0.09-0.05c0.36-0.2,0.73-0.34,1.07-0.33c0.35,0.01,0.66,0.17,0.87,0.58
					l0.03,0.06l-0.06,0.04c-0.16,0.12-0.36,0.2-0.58,0.24c-0.24,0.05-0.49,0.05-0.72,0.03C11.95,7.29,11.77,7.09,11.59,6.89
					L11.59,6.89z M11.73,6.8c0.15,0.17,0.31,0.34,0.46,0.35c0.22,0.03,0.45,0.02,0.67-0.03c0.17-0.03,0.32-0.09,0.45-0.17
					c-0.18-0.3-0.42-0.42-0.69-0.42C12.35,6.53,12.04,6.64,11.73,6.8L11.73,6.8z"/>
				<path class="st3" d="M7.85,8.31c1.32,0.56,0.98,1.28,1.11,1.85C8.61,9.51,7.85,10.1,7.85,8.31z"/>
				<path class="st5" d="M7.89,8.23c1.07,0.46,1.1,1.01,1.12,1.52c0.01,0.13,0.01,0.27,0.04,0.39L8.89,10.2
					C8.79,10,8.63,9.93,8.47,9.86c-0.35-0.16-0.7-0.32-0.7-1.55V8.19L7.89,8.23L7.89,8.23z M8.84,9.76C8.82,9.32,8.8,8.84,7.94,8.44
					c0.02,1.01,0.31,1.14,0.6,1.27c0.11,0.05,0.21,0.1,0.31,0.18C8.85,9.84,8.84,9.8,8.84,9.76z"/>
				<path class="st3" d="M12.95,6.51c0.29,0.42,0.3,0.57,0.63,0.57c0.55-0.01,0.86-0.05,1.16-0.27c-0.21-0.4-0.4-0.56-0.73-0.57
					C13.7,6.23,13.28,6.33,12.95,6.51z"/>
				<path class="st5" d="M13.07,6.54c0.04,0.05,0.07,0.1,0.09,0.14l0,0C13.3,6.92,13.36,7,13.57,7c0.27,0,0.48-0.02,0.66-0.05
					c0.15-0.03,0.28-0.08,0.4-0.16c-0.09-0.15-0.17-0.27-0.26-0.34c-0.1-0.08-0.22-0.12-0.36-0.12c-0.14-0.01-0.32,0.02-0.5,0.06
					C13.36,6.42,13.2,6.48,13.07,6.54z M13.02,6.78L13.02,6.78c-0.04-0.06-0.09-0.14-0.14-0.22l-0.05-0.08l0.08-0.04
					c0.17-0.09,0.36-0.17,0.55-0.22c0.19-0.05,0.39-0.08,0.55-0.07c0.18,0.01,0.33,0.06,0.46,0.16c0.13,0.1,0.23,0.25,0.34,0.45
					l0.03,0.06l-0.06,0.04C14.62,7,14.46,7.07,14.26,7.11c-0.19,0.04-0.41,0.05-0.69,0.06C13.27,7.17,13.2,7.06,13.02,6.78
					L13.02,6.78z"/>
				<path class="st3" d="M14.36,6.37c0.16,0.4,0.31,0.56,0.66,0.58C15.3,6.98,15.79,7,16.02,6.83c-0.15-0.29-0.32-0.5-0.56-0.57
					C15.05,6.14,14.52,6.24,14.36,6.37L14.36,6.37z"/>
				<path class="st5" d="M14.46,6.4c0.07,0.15,0.13,0.26,0.21,0.34c0.09,0.08,0.2,0.12,0.35,0.13c0.14,0.01,0.33,0.02,0.51,0.01
					c0.14-0.01,0.28-0.03,0.38-0.08c-0.06-0.11-0.13-0.2-0.2-0.28c-0.08-0.09-0.17-0.15-0.28-0.18c-0.18-0.05-0.38-0.06-0.57-0.04
					C14.7,6.32,14.55,6.36,14.46,6.4L14.46,6.4z M14.56,6.86c-0.11-0.1-0.2-0.25-0.28-0.46l-0.02-0.06l0.05-0.04
					c0.1-0.08,0.31-0.15,0.55-0.17c0.2-0.02,0.43-0.01,0.63,0.04c0.14,0.04,0.26,0.12,0.36,0.23c0.1,0.1,0.18,0.24,0.26,0.38
					l0.03,0.06l-0.05,0.04c-0.13,0.1-0.33,0.14-0.53,0.16c-0.19,0.01-0.39,0-0.54-0.01C14.82,7.02,14.68,6.97,14.56,6.86L14.56,6.86
					z"/>
				<path class="st3" d="M15.61,6.33c0.16,0.4,0.26,0.59,0.61,0.62c0.29,0.02,0.78,0.05,1.01-0.13c-0.15-0.29-0.32-0.5-0.56-0.57
					C16.25,6.13,15.77,6.19,15.61,6.33L15.61,6.33z"/>
				<path class="st5" d="M15.71,6.36c0.07,0.16,0.12,0.28,0.19,0.36c0.07,0.08,0.17,0.13,0.32,0.14c0.14,0.01,0.33,0.02,0.51,0.01
					c0.14-0.01,0.28-0.03,0.38-0.08c-0.06-0.11-0.13-0.2-0.2-0.28c-0.08-0.09-0.17-0.15-0.28-0.18c-0.19-0.05-0.39-0.07-0.56-0.05
					C15.92,6.28,15.8,6.32,15.71,6.36L15.71,6.36z M15.78,6.83c-0.1-0.11-0.16-0.27-0.25-0.47L15.51,6.3l0.05-0.04
					c0.1-0.08,0.28-0.14,0.5-0.15c0.19-0.01,0.41,0,0.62,0.06c0.14,0.04,0.26,0.12,0.36,0.23c0.1,0.1,0.18,0.24,0.26,0.38l0.03,0.06
					l-0.05,0.04c-0.13,0.1-0.33,0.14-0.53,0.16c-0.19,0.01-0.39,0-0.54-0.01C16.02,7.01,15.89,6.95,15.78,6.83L15.78,6.83z"/>
				<path class="st3" d="M16.86,6.33c0.13,0.41,0.3,0.66,0.64,0.71c0.29,0.04,0.76,0.06,1.01-0.03c-0.13-0.29-0.28-0.53-0.52-0.61
					C17.59,6.25,17.03,6.21,16.86,6.33L16.86,6.33z"/>
				<path class="st5" d="M16.96,6.37c0.05,0.16,0.12,0.29,0.2,0.39c0.09,0.1,0.2,0.17,0.35,0.19c0.15,0.02,0.36,0.04,0.55,0.03
					c0.12,0,0.23-0.01,0.33-0.03c-0.05-0.11-0.1-0.2-0.17-0.28c-0.07-0.09-0.16-0.16-0.27-0.2l0,0c-0.2-0.07-0.43-0.12-0.64-0.13
					C17.17,6.34,17.04,6.35,16.96,6.37z M17.04,6.87c-0.11-0.13-0.19-0.3-0.25-0.52L16.76,6.3l0.05-0.03
					c0.1-0.07,0.3-0.09,0.52-0.08c0.22,0.01,0.47,0.06,0.68,0.14l0,0c0.13,0.05,0.24,0.14,0.34,0.25c0.09,0.11,0.16,0.25,0.23,0.4
					l0.03,0.08l-0.08,0.03c-0.12,0.04-0.29,0.06-0.46,0.06c-0.2,0.01-0.42-0.01-0.58-0.03C17.3,7.09,17.15,7,17.04,6.87L17.04,6.87z
					"/>
				<path class="st3" d="M18.09,6.47c0.08,0.27,0.14,0.4,0.39,0.55c0.33,0.21,0.9,0.38,1.27,0.26c-0.08-0.2-0.15-0.51-0.36-0.66
					C19.04,6.36,18.51,6.29,18.09,6.47z"/>
				<path class="st5" d="M18.19,6.52c0.03,0.09,0.06,0.17,0.1,0.23c0.05,0.08,0.12,0.14,0.23,0.21c0.17,0.11,0.41,0.21,0.65,0.25
					c0.16,0.03,0.33,0.04,0.47,0.02l-0.02-0.06c-0.06-0.17-0.13-0.37-0.28-0.48c-0.17-0.12-0.38-0.2-0.6-0.22
					C18.55,6.44,18.36,6.46,18.19,6.52L18.19,6.52z M18.16,6.83c-0.06-0.09-0.1-0.2-0.14-0.34l-0.02-0.07l0.07-0.03
					c0.22-0.1,0.46-0.13,0.7-0.1c0.25,0.03,0.49,0.12,0.68,0.25c0.19,0.13,0.27,0.36,0.34,0.56c0.02,0.05,0.04,0.1,0.05,0.14
					l0.03,0.08l-0.08,0.03c-0.19,0.06-0.41,0.06-0.64,0.01c-0.26-0.05-0.52-0.16-0.71-0.28C18.3,7.01,18.22,6.93,18.16,6.83z"/>
				<path class="st3" d="M19.39,6.62c0.08,0.27,0.12,0.51,0.36,0.66c0.33,0.21,0.82,0.39,1.2,0.27c-0.08-0.2-0.15-0.51-0.36-0.66
					C20.24,6.63,19.82,6.55,19.39,6.62z"/>
				<path class="st5" d="M19.5,6.69L19.5,6.7c0.06,0.21,0.11,0.39,0.29,0.5c0.18,0.11,0.4,0.22,0.62,0.27
					c0.14,0.03,0.29,0.04,0.42,0.02c-0.01-0.02-0.02-0.04-0.02-0.06l0,0c-0.06-0.17-0.13-0.37-0.28-0.48
					c-0.16-0.12-0.34-0.2-0.53-0.24C19.85,6.68,19.67,6.67,19.5,6.69z M19.34,6.75c-0.01-0.04-0.02-0.08-0.03-0.11l-0.03-0.09
					l0.09-0.01c0.23-0.03,0.46-0.03,0.67,0.02c0.21,0.05,0.41,0.13,0.59,0.27c0.19,0.13,0.27,0.36,0.34,0.56l0,0
					c0.02,0.05,0.04,0.1,0.05,0.14l0.03,0.08l-0.08,0.03c-0.19,0.06-0.39,0.05-0.59,0.01c-0.24-0.05-0.48-0.17-0.68-0.29
					C19.47,7.2,19.41,6.99,19.34,6.75L19.34,6.75z"/>
				<path class="st3" d="M20.61,6.95c0.08,0.27,0.12,0.51,0.36,0.66c0.33,0.21,0.82,0.5,1.2,0.38c-0.08-0.2-0.18-0.52-0.4-0.67
					C21.43,7.06,21.04,6.91,20.61,6.95L20.61,6.95z"/>
				<path class="st5" d="M20.72,7.02l0,0.01c0.06,0.21,0.11,0.39,0.29,0.5c0.16,0.1,0.37,0.23,0.57,0.31
					c0.16,0.06,0.33,0.1,0.47,0.08l-0.01-0.01c-0.07-0.18-0.17-0.42-0.33-0.53c-0.18-0.13-0.36-0.23-0.56-0.29
					C21.03,7.04,20.88,7.02,20.72,7.02L20.72,7.02z M20.57,7.08c-0.01-0.04-0.03-0.09-0.03-0.11l-0.03-0.1l0.1-0.01
					c0.21-0.02,0.42,0.01,0.62,0.07c0.21,0.07,0.42,0.18,0.61,0.31c0.2,0.14,0.3,0.4,0.38,0.61c0.02,0.04,0.03,0.08,0.04,0.1
					l0.03,0.08L22.2,8.06C21.99,8.13,21.76,8.09,21.53,8c-0.22-0.09-0.43-0.21-0.6-0.32C20.7,7.53,20.64,7.32,20.57,7.08L20.57,7.08
					z"/>
				<path class="st3" d="M21.85,7.32c0.08,0.27,0.23,0.5,0.46,0.73c0.28,0.28,1.13,0.78,1.53,0.89c0.01-0.28-0.33-0.96-0.57-1.12
					C22.92,7.58,22.27,7.28,21.85,7.32L21.85,7.32z"/>
				<path class="st5" d="M21.96,7.4c0.03,0.09,0.08,0.18,0.13,0.26c0.07,0.11,0.16,0.22,0.27,0.33c0.14,0.13,0.42,0.33,0.72,0.5
					c0.23,0.14,0.47,0.26,0.66,0.33c-0.03-0.13-0.09-0.29-0.17-0.46c-0.11-0.21-0.24-0.4-0.35-0.48c-0.19-0.13-0.47-0.28-0.76-0.38
					C22.29,7.45,22.11,7.4,21.96,7.4z M21.95,7.74c-0.08-0.13-0.14-0.26-0.18-0.4l-0.03-0.1l0.1-0.01c0.2-0.02,0.44,0.03,0.68,0.12
					c0.3,0.1,0.59,0.26,0.79,0.4c0.13,0.09,0.29,0.31,0.4,0.54c0.12,0.24,0.21,0.5,0.2,0.65l0,0.1l-0.1-0.03
					C23.61,8.96,23.3,8.81,23,8.63c-0.31-0.18-0.6-0.38-0.75-0.53C22.13,7.99,22.03,7.87,21.95,7.74L21.95,7.74z"/>
				<path class="st3" d="M21.53,11.25c0.47-0.33,0.9-0.6,1.31-0.84c-0.1,0.47-0.16,0.76-0.25,1.23c-0.08-0.05-0.21,0.08-0.29,0.03
					C22.04,11.54,21.79,11.39,21.53,11.25L21.53,11.25z"/>
				<path class="st5" d="M21.48,11.19c0.23-0.16,0.46-0.31,0.68-0.45c0.22-0.14,0.44-0.27,0.64-0.39l0.16-0.09l-0.04,0.18
					l-0.25,1.23l-0.12,0.06c-0.01,0-0.04,0.04-0.07,0.05c-0.07,0.03-0.15,0.03-0.22-0.02l-0.77-0.43l0.04-0.07L21.48,11.19
					L21.48,11.19z M22.25,10.87c-0.18,0.12-0.37,0.24-0.57,0.38l0.65,0.36c0.01,0,0.04-0.01,0.08-0.02
					c0.04-0.02,0.07-0.03,0.11-0.03l0.2-0.97C22.57,10.67,22.41,10.77,22.25,10.87L22.25,10.87z"/>
				<path class="st3" d="M23.16,9.87c-0.51,0.11-0.67,0.56-0.77,1.04c-0.05,0.25,0.09,0.54,0.15,0.76c0.36-0.12,0.66-0.56,0.74-1.19
					C23.3,10.27,23.27,10.08,23.16,9.87L23.16,9.87z"/>
				<path class="st5" d="M23.11,9.97c-0.2,0.06-0.33,0.18-0.43,0.33c-0.11,0.18-0.17,0.4-0.22,0.63l0,0
					c-0.03,0.17,0.03,0.37,0.09,0.55c0.01,0.03,0.02,0.05,0.03,0.08c0.14-0.07,0.26-0.19,0.36-0.35c0.12-0.19,0.2-0.44,0.24-0.74
					c0.01-0.1,0.01-0.19-0.01-0.28C23.17,10.11,23.15,10.04,23.11,9.97L23.11,9.97z M22.55,10.21c0.13-0.2,0.31-0.36,0.6-0.42
					l0.06-0.01l0.03,0.06c0.06,0.11,0.09,0.22,0.11,0.33c0.02,0.11,0.02,0.22,0.01,0.33c-0.04,0.32-0.13,0.59-0.26,0.81
					c-0.14,0.23-0.32,0.38-0.53,0.45l-0.08,0.03l-0.02-0.08c-0.01-0.05-0.03-0.1-0.05-0.16c-0.07-0.2-0.14-0.42-0.1-0.64l0,0
					C22.35,10.65,22.42,10.41,22.55,10.21L22.55,10.21z"/>
				<path class="st3" d="M23.83,8.84c-0.51,0.11-0.67,0.56-0.77,1.04c-0.05,0.25,0.09,0.54,0.15,0.76c0.36-0.12,0.66-0.56,0.74-1.19
					C23.97,9.24,23.93,9.04,23.83,8.84L23.83,8.84z"/>
				<path class="st5" d="M23.78,8.93c-0.2,0.06-0.33,0.18-0.43,0.33c-0.11,0.18-0.17,0.4-0.22,0.63l0,0
					c-0.03,0.17,0.03,0.37,0.09,0.55c0.01,0.03,0.02,0.05,0.03,0.08c0.14-0.07,0.26-0.19,0.36-0.35c0.12-0.19,0.2-0.44,0.24-0.74
					c0.01-0.1,0.01-0.19-0.01-0.28C23.84,9.08,23.82,9.01,23.78,8.93L23.78,8.93z M23.22,9.18c0.13-0.2,0.31-0.36,0.6-0.42
					l0.06-0.01L23.9,8.8c0.06,0.11,0.09,0.22,0.11,0.33c0.02,0.11,0.02,0.22,0.01,0.33c-0.04,0.32-0.13,0.59-0.26,0.81
					c-0.14,0.23-0.32,0.38-0.53,0.45l-0.08,0.03l-0.02-0.08c-0.01-0.05-0.03-0.1-0.05-0.16c-0.07-0.2-0.14-0.42-0.1-0.64l0,0
					C23.02,9.61,23.09,9.37,23.22,9.18L23.22,9.18z"/>
				<path class="st3" d="M8.14,9.49c1.32,0.56,0.95,1.27,1.08,1.84c-0.06-0.12-0.16-0.09-0.24-0.15C8.62,10.89,8.14,10.96,8.14,9.49
					z"/>
				<path class="st5" d="M8.18,9.41c1.06,0.45,1.08,1,1.09,1.5c0,0.14,0.01,0.27,0.04,0.4l-0.15,0.06c-0.02-0.04-0.06-0.06-0.1-0.07
					c-0.04-0.01-0.08-0.03-0.12-0.06c-0.07-0.05-0.13-0.09-0.21-0.13c-0.34-0.19-0.68-0.38-0.67-1.62V9.37L8.18,9.41z M9.11,10.92
					c-0.01-0.43-0.03-0.9-0.88-1.3c0.02,1.03,0.3,1.19,0.59,1.35c0.08,0.04,0.15,0.09,0.23,0.14c0.02,0.02,0.05,0.02,0.07,0.03l0,0
					C9.11,11.07,9.11,10.99,9.11,10.92L9.11,10.92z"/>
				<path class="st3" d="M8.81,11.09c0.63-0.33,1.27-0.41,1.66-0.26c0.28,0.11,0.26,0.21,0.42,0.44
					C10.6,11.51,9.83,11.99,8.81,11.09L8.81,11.09z"/>
				<path class="st5" d="M8.77,11.02c0.31-0.17,0.63-0.27,0.92-0.31c0.31-0.05,0.6-0.03,0.81,0.05c0.24,0.09,0.28,0.18,0.37,0.32
					l0,0c0.02,0.04,0.05,0.09,0.09,0.15L11,11.3l-0.06,0.05c-0.15,0.12-0.43,0.31-0.81,0.35c-0.38,0.04-0.84-0.07-1.38-0.54
					l-0.09-0.08L8.77,11.02L8.77,11.02z M9.72,10.87c-0.24,0.04-0.5,0.12-0.76,0.24c0.45,0.37,0.84,0.45,1.16,0.42
					c0.29-0.03,0.52-0.16,0.66-0.27c-0.02-0.04-0.04-0.07-0.06-0.1l0,0c-0.06-0.11-0.1-0.18-0.28-0.25
					C10.26,10.84,10,10.82,9.72,10.87L9.72,10.87z"/>
				<path class="st3" d="M10.24,10.78c0.63-0.36,0.99-0.42,1.42-0.42c0.3,0,0.27,0.37,0.65,0.61c-0.33,0.24-0.54,0.21-1.24,0.27
					C10.8,11.26,10.42,11.01,10.24,10.78z"/>
				<path class="st5" d="M10.2,10.71c0.32-0.18,0.57-0.29,0.8-0.35c0.23-0.06,0.43-0.08,0.65-0.08c0.21,0,0.28,0.12,0.38,0.28
					c0.07,0.11,0.15,0.24,0.31,0.34l0.1,0.06l-0.1,0.07c-0.28,0.21-0.48,0.23-0.94,0.26c-0.11,0.01-0.23,0.02-0.34,0.03
					c-0.14,0.01-0.31-0.04-0.47-0.13c-0.17-0.09-0.33-0.23-0.43-0.36l-0.06-0.07L10.2,10.71L10.2,10.71z M11.05,10.51
					c-0.19,0.05-0.41,0.14-0.68,0.29c0.08,0.09,0.2,0.18,0.32,0.24c0.13,0.07,0.27,0.12,0.37,0.11c0.14-0.01,0.25-0.02,0.35-0.03
					c0.36-0.03,0.55-0.04,0.76-0.16c-0.13-0.1-0.2-0.22-0.27-0.32c-0.07-0.11-0.13-0.2-0.24-0.2
					C11.45,10.44,11.26,10.45,11.05,10.51z"/>
				<path class="st3" d="M11.77,10.38c0.63-0.32,0.84-0.32,1.21-0.31c0.3,0.01,0.4,0.36,0.65,0.61c-0.33,0.24-0.54,0.21-1.24,0.27
					C12.12,10.97,11.86,10.62,11.77,10.38z"/>
				<path class="st5" d="M11.73,10.3c0.32-0.16,0.54-0.24,0.72-0.28c0.19-0.04,0.34-0.04,0.52-0.03c0.24,0.01,0.36,0.18,0.49,0.37
					c0.06,0.09,0.13,0.18,0.21,0.26l0.07,0.07l-0.08,0.06c-0.28,0.21-0.48,0.23-0.94,0.26c-0.11,0.01-0.23,0.02-0.35,0.03
					c-0.14,0.01-0.28-0.06-0.4-0.17c-0.14-0.13-0.25-0.31-0.3-0.46l-0.03-0.07L11.73,10.3L11.73,10.3z M12.49,10.18
					c-0.16,0.03-0.35,0.1-0.61,0.24c0.05,0.11,0.13,0.23,0.23,0.33c0.08,0.08,0.18,0.13,0.27,0.12c0.14-0.01,0.25-0.02,0.35-0.03
					c0.38-0.03,0.56-0.04,0.77-0.17c-0.06-0.07-0.11-0.14-0.16-0.21c-0.11-0.16-0.21-0.29-0.36-0.3
					C12.79,10.14,12.65,10.14,12.49,10.18L12.49,10.18z"/>
				<path class="st3" d="M12.88,10.04c0.63-0.14,1.16-0.13,1.47-0.07c0.3,0.05,0.34,0.36,0.55,0.61c-0.33,0.24-0.62,0.14-1.27,0.09
					C13.36,10.65,13.28,10.23,12.88,10.04L12.88,10.04z"/>
				<path class="st5" d="M12.86,9.96c0.28-0.06,0.55-0.1,0.79-0.11c0.29-0.02,0.54,0,0.71,0.04c0.23,0.04,0.33,0.21,0.44,0.39
					c0.05,0.08,0.1,0.17,0.16,0.25l0.06,0.07l-0.07,0.05c-0.28,0.21-0.53,0.19-0.97,0.14c-0.11-0.01-0.22-0.02-0.36-0.03
					c-0.17-0.01-0.26-0.13-0.38-0.28c-0.1-0.13-0.21-0.27-0.4-0.36L12.86,9.96L12.86,9.96z M13.65,10.02
					c-0.17,0.01-0.36,0.03-0.56,0.07c0.11,0.09,0.2,0.19,0.27,0.29c0.09,0.12,0.17,0.21,0.26,0.22c0.13,0.01,0.25,0.02,0.37,0.03
					c0.35,0.04,0.57,0.06,0.78-0.06c-0.05-0.07-0.09-0.14-0.13-0.2c-0.09-0.15-0.16-0.28-0.32-0.31
					C14.17,10.02,13.93,10.01,13.65,10.02L13.65,10.02z"/>
				<path class="st3" d="M20.36,10.6c1.36-0.03,1.79,0.68,2.08,1.22C21.37,12.13,20.96,10.88,20.36,10.6z"/>
				<path class="st1" d="M20.36,10.52c0.7-0.01,1.17,0.16,1.49,0.41c0.33,0.25,0.43,0.47,0.58,0.75l0.05,0.09l-0.1,0.03
					c-0.76,0.22-1.11-0.18-1.5-0.62c-0.19-0.21-0.36-0.42-0.56-0.5L20.36,10.52L20.36,10.52z M21.75,11.06
					c-0.26-0.2-0.61-0.34-1.11-0.37c0.13,0.11,0.24,0.24,0.37,0.38c0.34,0.39,0.64,0.71,1.23,0.59
					C22.11,11.42,22.02,11.26,21.75,11.06z"/>
				<path class="st3" d="M19.06,10.18c1.36-0.03,1.79,0.68,2.08,1.22C20.07,11.71,19.67,10.46,19.06,10.18z"/>
				<path class="st1" d="M19.06,10.1c0.7-0.01,1.17,0.16,1.49,0.41c0.33,0.25,0.51,0.57,0.66,0.85l0.05,0.09l-0.1,0.03
					c-0.76,0.22-1.19-0.28-1.58-0.72c-0.19-0.21-0.36-0.42-0.56-0.5L19.06,10.1L19.06,10.1z M20.46,10.64
					c-0.26-0.2-0.61-0.34-1.11-0.37c0.13,0.11,0.24,0.24,0.37,0.38c0.34,0.39,0.71,0.81,1.31,0.7
					C20.89,11.11,20.72,10.84,20.46,10.64z"/>
				<path class="st3" d="M17.85,10c1.31-0.11,1.76,0.55,2.07,1.05C18.9,11.41,18.45,10.24,17.85,10z"/>
				<path class="st1" d="M17.84,9.92c0.68-0.05,1.13,0.09,1.46,0.31c0.33,0.22,0.52,0.52,0.68,0.78l0.05,0.09l-0.1,0.03
					c-0.72,0.25-1.16-0.2-1.56-0.6c-0.19-0.19-0.37-0.38-0.56-0.45L17.84,9.92z M19.21,10.37c-0.25-0.17-0.6-0.29-1.08-0.29
					c0.12,0.09,0.24,0.22,0.37,0.34c0.35,0.35,0.73,0.74,1.29,0.59C19.65,10.79,19.48,10.55,19.21,10.37L19.21,10.37z"/>
				<path class="st3" d="M16.61,9.92c1.29-0.24,1.81,0.36,2.16,0.84C17.81,11.21,17.23,10.09,16.61,9.92z"/>
				<path class="st1" d="M16.6,9.84c0.67-0.12,1.14-0.03,1.49,0.16c0.35,0.19,0.57,0.46,0.76,0.71l0.06,0.08l-0.09,0.04
					c-0.69,0.32-1.18-0.08-1.62-0.44c-0.21-0.17-0.41-0.34-0.61-0.39L16.6,9.84z M18.01,10.14C17.74,10,17.38,9.91,16.9,9.96
					c0.13,0.08,0.27,0.19,0.4,0.3c0.38,0.31,0.8,0.66,1.35,0.46C18.49,10.51,18.29,10.29,18.01,10.14z"/>
				<path class="st3" d="M15.33,9.94c1.29-0.24,1.93,0.2,2.29,0.67C16.03,11.07,15.94,10.11,15.33,9.94z"/>
				<path class="st1" d="M15.31,9.86c0.66-0.12,1.16-0.07,1.54,0.07c0.38,0.14,0.65,0.38,0.83,0.63l0.07,0.09l-0.12,0.03
					c-1.13,0.33-1.53-0.04-1.88-0.36c-0.14-0.13-0.28-0.26-0.45-0.31L15.31,9.86L15.31,9.86z M16.79,10.08
					c-0.3-0.11-0.69-0.17-1.19-0.1c0.09,0.06,0.18,0.14,0.27,0.22c0.3,0.28,0.65,0.6,1.61,0.36C17.31,10.37,17.1,10.2,16.79,10.08
					L16.79,10.08z"/>
				<path class="st3" d="M13.94,9.93c1.29-0.24,1.93,0.2,2.29,0.67C14.65,11.06,14.56,10.1,13.94,9.93z"/>
				<path class="st1" d="M13.93,9.85c0.66-0.12,1.16-0.07,1.54,0.07c0.38,0.14,0.65,0.38,0.83,0.63l0.07,0.09l-0.12,0.03
					c-1.13,0.33-1.53-0.04-1.88-0.36c-0.14-0.13-0.28-0.26-0.45-0.31L13.93,9.85L13.93,9.85z M15.41,10.08
					c-0.3-0.11-0.69-0.17-1.19-0.1c0.09,0.06,0.18,0.14,0.27,0.22c0.3,0.28,0.65,0.6,1.61,0.36C15.93,10.37,15.71,10.19,15.41,10.08
					L15.41,10.08z"/>
			</g>
			<path class="st5" d="M9.72,9.78L9.49,9.11l0.13-0.05l0.1,0.3L9.9,8.98l0.18-0.06L9.92,9.26l0.41,0.32l-0.18,0.06L9.86,9.38
				L9.79,9.53l0.07,0.2L9.72,9.78L9.72,9.78z M11.16,9.34l-0.15,0.04l-0.1-0.14l-0.27,0.08l-0.01,0.17l-0.15,0.04l0.07-0.75
				l0.15-0.04L11.16,9.34z M10.83,9.14l-0.17-0.23l-0.02,0.28L10.83,9.14z M11.39,9.27l-0.16-0.68l0.14-0.03l0.13,0.57l0.35-0.08
				l0.03,0.12L11.39,9.27L11.39,9.27z M12.12,9.11l-0.13-0.69l0.14-0.03l0.13,0.69L12.12,9.11z M12.54,9.02l-0.1-0.7l0.21-0.03
				l0.19,0.46l0.06-0.49l0.21-0.03l0.1,0.7l-0.13,0.02l-0.08-0.55l-0.06,0.57l-0.14,0.02L12.6,8.45L12.67,9L12.54,9.02L12.54,9.02z
				 M14.15,8.82L14,8.83l-0.08-0.15L13.64,8.7l-0.04,0.16l-0.15,0.01l0.21-0.73l0.15-0.01L14.15,8.82L14.15,8.82z M13.87,8.56
				l-0.12-0.25l-0.07,0.27L13.87,8.56L13.87,8.56z M14.38,8.79l-0.03-0.71l0.14,0l0.31,0.46l-0.02-0.47l0.13,0l0.03,0.71L14.8,8.78
				l-0.3-0.45l0.02,0.46L14.38,8.79L14.38,8.79z M15.41,8.75L15.4,8.16l-0.21,0l0-0.12l0.56-0.01l0,0.12l-0.21,0l0.01,0.59
				L15.41,8.75L15.41,8.75z M16.57,8.77l-0.16,0L16.36,8.6L16.07,8.6l-0.06,0.16l-0.15,0l0.29-0.7l0.15,0L16.57,8.77z M16.31,8.48
				l-0.09-0.26l-0.1,0.26L16.31,8.48z M16.8,8.79l0.05-0.7l0.14,0.01l0.26,0.49l0.03-0.47l0.13,0.01l-0.05,0.7l-0.14-0.01
				l-0.25-0.48L16.94,8.8L16.8,8.79z M17.95,8.71l0.02-0.13l0.26,0.03l-0.02,0.13L17.95,8.71z M18.86,9.04l0.1-0.58l-0.21-0.04
				l0.02-0.12l0.56,0.1l-0.02,0.12L19.1,8.49L19,9.06L18.86,9.04z M19.43,9.16l0.16-0.69l0.14,0.03l-0.16,0.69L19.43,9.16z
				 M19.86,9.26l0.17-0.68l0.21,0.05l0.01,0.5l0.24-0.44l0.21,0.05l-0.17,0.68l-0.13-0.03l0.13-0.54l-0.27,0.51l-0.13-0.03l0-0.57
				l-0.13,0.54L19.86,9.26L19.86,9.26z M21.04,8.85l0.13,0.05l-0.13,0.36c-0.02,0.06-0.03,0.09-0.03,0.11c0,0.03,0,0.06,0.02,0.08
				c0.02,0.02,0.04,0.04,0.08,0.06c0.04,0.01,0.07,0.02,0.09,0.01c0.03-0.01,0.04-0.02,0.06-0.05c0.01-0.02,0.03-0.06,0.04-0.11
				l0.13-0.37l0.13,0.05l-0.12,0.35c-0.03,0.08-0.05,0.13-0.07,0.17c-0.02,0.03-0.04,0.05-0.07,0.07c-0.03,0.02-0.06,0.03-0.1,0.03
				s-0.08-0.01-0.14-0.02c-0.06-0.02-0.11-0.05-0.14-0.07c-0.03-0.03-0.05-0.05-0.06-0.08c-0.01-0.03-0.02-0.06-0.01-0.09
				c0-0.04,0.02-0.1,0.05-0.17L21.04,8.85L21.04,8.85z M21.63,9.8l0.27-0.65l0.28,0.11c0.07,0.03,0.12,0.05,0.15,0.08
				c0.03,0.03,0.04,0.06,0.05,0.09c0.01,0.04,0,0.08-0.01,0.11c-0.02,0.05-0.05,0.08-0.09,0.1c-0.04,0.02-0.09,0.02-0.15,0.01
				c0.02,0.03,0.04,0.06,0.05,0.08c0.01,0.03,0.02,0.07,0.03,0.14l0.03,0.16l-0.16-0.06L22.02,9.8C22.01,9.73,22,9.69,21.99,9.67
				c-0.01-0.02-0.02-0.03-0.03-0.04c-0.01-0.01-0.03-0.02-0.06-0.03l-0.03-0.01l-0.11,0.27L21.63,9.8L21.63,9.8z M21.91,9.48
				l0.1,0.04c0.06,0.03,0.1,0.04,0.12,0.04s0.03,0,0.05-0.01c0.01-0.01,0.03-0.02,0.03-0.04c0.01-0.02,0.01-0.04,0-0.06
				c-0.01-0.02-0.02-0.03-0.04-0.05c-0.01-0.01-0.04-0.02-0.1-0.04l-0.1-0.04L21.91,9.48L21.91,9.48z"/>
			<path class="st2" d="M14.37,26.41c-2.03-0.22-3.88-1-5.59-2.25c-0.19,0.11-0.4,0.17-0.63,0.17c-0.68,0-1.24-0.55-1.24-1.23
				c0-0.68,0.55-1.23,1.24-1.23c0.36,0,0.45,0.05,0.68,0.26c1.46,1.31,3.2,2.33,5.68,2.6c1.12,0.12,2.29,0.1,3.4-0.09
				c2.13-0.37,3.69-1.32,5.01-2.51c0.23-0.2,0.32-0.26,0.68-0.26c0.68,0,1.24,0.55,1.24,1.23c0,0.68-0.55,1.23-1.24,1.23
				c-0.23,0-0.45-0.06-0.63-0.17c-1.51,1.11-3.13,1.84-4.89,2.15C16.9,26.52,15.59,26.54,14.37,26.41L14.37,26.41z"/>
			<path class="st5" d="M14.37,26.49c-1.02-0.11-2-0.36-2.94-0.74c-0.92-0.37-1.8-0.87-2.65-1.49C8.7,24.3,8.6,24.34,8.5,24.36
				c-0.11,0.03-0.23,0.05-0.35,0.05c-0.36,0-0.69-0.15-0.93-0.39c-0.24-0.24-0.39-0.57-0.39-0.93s0.15-0.69,0.39-0.93
				c0.24-0.24,0.57-0.39,0.93-0.39c0.19,0,0.31,0.02,0.42,0.06c0.11,0.04,0.19,0.11,0.31,0.22c0.72,0.65,1.52,1.23,2.44,1.68
				c0.92,0.45,1.97,0.77,3.2,0.9c0.57,0.06,1.14,0.09,1.71,0.07c0.56-0.02,1.12-0.07,1.66-0.16c1.06-0.18,1.97-0.51,2.79-0.94
				c0.82-0.43,1.53-0.96,2.19-1.55c0.12-0.11,0.21-0.18,0.31-0.22c0.11-0.04,0.23-0.06,0.42-0.06c0.36,0,0.69,0.15,0.93,0.39
				s0.39,0.57,0.39,0.93s-0.15,0.69-0.39,0.93c-0.24,0.24-0.57,0.39-0.93,0.39c-0.12,0-0.24-0.02-0.35-0.05
				c-0.1-0.03-0.19-0.06-0.28-0.11c-0.74,0.54-1.52,0.99-2.32,1.35c-0.82,0.36-1.67,0.63-2.56,0.78c-0.59,0.1-1.21,0.16-1.83,0.18
				C15.63,26.58,14.99,26.56,14.37,26.49L14.37,26.49z M11.49,25.59c0.92,0.38,1.89,0.62,2.89,0.73c0.61,0.07,1.26,0.09,1.89,0.08
				c0.61-0.02,1.22-0.07,1.81-0.18c0.87-0.15,1.71-0.41,2.52-0.77c0.81-0.36,1.58-0.82,2.33-1.36l0.04-0.03l0.05,0.03
				c0.09,0.05,0.18,0.09,0.28,0.12c0.1,0.03,0.2,0.04,0.31,0.04c0.32,0,0.61-0.13,0.82-0.34c0.21-0.21,0.34-0.5,0.34-0.81
				c0-0.32-0.13-0.61-0.34-0.81c-0.21-0.21-0.5-0.34-0.82-0.34c-0.17,0-0.28,0.01-0.36,0.05c-0.08,0.03-0.16,0.09-0.26,0.19
				c-0.67,0.6-1.39,1.14-2.22,1.58c-0.83,0.44-1.76,0.77-2.84,0.96c-0.55,0.1-1.12,0.15-1.69,0.17c-0.58,0.02-1.16-0.01-1.74-0.07
				c-1.25-0.14-2.32-0.46-3.25-0.92c-0.93-0.46-1.74-1.04-2.47-1.71c-0.11-0.1-0.18-0.16-0.26-0.19c-0.08-0.03-0.19-0.05-0.36-0.05
				c-0.32,0-0.61,0.13-0.82,0.34C7.13,22.49,7,22.78,7,23.1c0,0.32,0.13,0.61,0.34,0.81c0.21,0.21,0.5,0.34,0.82,0.34
				c0.11,0,0.21-0.01,0.31-0.04c0.1-0.03,0.2-0.07,0.28-0.12l0.05-0.03l0.04,0.03C9.69,24.71,10.57,25.22,11.49,25.59L11.49,25.59z"
				/>
			<path class="st1" d="M9.55,24.07l-0.13-0.09l0.36-0.53l0.12,0.08l-0.05,0.08c0.04-0.02,0.08-0.03,0.1-0.03
				c0.02,0,0.05,0.01,0.07,0.02c0.03,0.02,0.05,0.05,0.07,0.08l-0.12,0.09c-0.01-0.03-0.03-0.05-0.05-0.06
				c-0.02-0.01-0.04-0.02-0.06-0.02c-0.02,0-0.04,0.02-0.07,0.04s-0.07,0.08-0.13,0.17L9.55,24.07L9.55,24.07z M10.6,24.75
				l0.05-0.08c-0.04,0.02-0.08,0.03-0.12,0.03c-0.04,0-0.08-0.01-0.11-0.03c-0.03-0.02-0.06-0.05-0.08-0.08s-0.02-0.07-0.02-0.1
				c0.01-0.04,0.02-0.08,0.06-0.13L10.59,24l0.13,0.08l-0.15,0.25c-0.05,0.08-0.07,0.13-0.08,0.15c-0.01,0.02,0,0.04,0,0.06
				c0.01,0.02,0.02,0.03,0.04,0.04c0.02,0.01,0.05,0.02,0.07,0.02s0.05-0.01,0.07-0.03c0.02-0.02,0.05-0.06,0.1-0.14l0.14-0.23
				l0.13,0.08l-0.33,0.55L10.6,24.75L10.6,24.75z M11.88,24.43l-0.13,0.3c0.07-0.04,0.14-0.04,0.21-0.02
				c0.03,0.01,0.06,0.03,0.08,0.06c0.02,0.03,0.03,0.05,0.04,0.08s0,0.05,0,0.08c-0.01,0.03-0.02,0.07-0.04,0.12l-0.15,0.35
				l-0.14-0.06l0.13-0.31c0.03-0.06,0.04-0.1,0.04-0.12s0-0.04-0.01-0.05c-0.01-0.02-0.03-0.03-0.05-0.04
				c-0.02-0.01-0.05-0.01-0.07-0.01c-0.03,0-0.05,0.02-0.07,0.04c-0.02,0.02-0.04,0.06-0.06,0.11l-0.13,0.29l-0.15-0.06l0.35-0.81
				L11.88,24.43L11.88,24.43z M12.96,25.72l0.02-0.09c-0.03,0.03-0.06,0.05-0.1,0.06c-0.04,0.01-0.08,0.01-0.12,0
				c-0.04-0.01-0.07-0.03-0.1-0.05c-0.03-0.03-0.04-0.06-0.05-0.09c-0.01-0.04,0-0.08,0.01-0.14l0.1-0.39l0.15,0.04l-0.07,0.29
				c-0.02,0.09-0.03,0.14-0.03,0.16c0,0.02,0.01,0.04,0.02,0.05c0.01,0.02,0.03,0.03,0.05,0.03c0.03,0.01,0.05,0,0.08-0.01
				c0.03-0.01,0.04-0.03,0.06-0.05c0.01-0.02,0.03-0.08,0.05-0.16l0.07-0.26l0.15,0.04l-0.16,0.62L12.96,25.72L12.96,25.72z
				 M13.9,25.16L13.91,25l0.16,0.02l-0.02,0.16L13.9,25.16z M13.82,25.88l0.07-0.64l0.16,0.02l-0.07,0.64L13.82,25.88z M15.02,25.74
				l0-0.17l0.31,0.01l0,0.17L15.02,25.74z M16.46,25.95l-0.16,0.01l-0.03-0.64l0.15-0.01l0,0.09c0.02-0.04,0.04-0.07,0.06-0.09
				c0.02-0.01,0.04-0.02,0.07-0.02c0.04,0,0.07,0.01,0.11,0.03l-0.04,0.15c-0.03-0.02-0.05-0.03-0.08-0.02
				c-0.02,0-0.04,0.01-0.06,0.02c-0.02,0.01-0.03,0.04-0.03,0.07c-0.01,0.03-0.01,0.11,0,0.21L16.46,25.95L16.46,25.95z M17.39,25.4
				l-0.15-0.01c0.01-0.06,0.03-0.11,0.06-0.15c0.03-0.03,0.09-0.06,0.17-0.07c0.07-0.01,0.12-0.01,0.16,0
				c0.04,0.01,0.06,0.03,0.08,0.06c0.02,0.03,0.03,0.07,0.04,0.15l0.03,0.2c0.01,0.06,0.02,0.1,0.03,0.12
				c0.01,0.03,0.02,0.05,0.04,0.08l-0.15,0.02c-0.01-0.01-0.01-0.03-0.02-0.05c0-0.01-0.01-0.02-0.01-0.02
				c-0.02,0.03-0.05,0.06-0.08,0.08c-0.03,0.02-0.06,0.03-0.09,0.03c-0.06,0.01-0.11,0-0.15-0.03c-0.04-0.03-0.06-0.07-0.07-0.13
				c-0.01-0.04,0-0.07,0.01-0.1c0.01-0.03,0.03-0.05,0.06-0.07c0.03-0.02,0.07-0.04,0.12-0.06c0.07-0.03,0.12-0.05,0.15-0.06l0-0.02
				c0-0.03-0.02-0.05-0.03-0.07s-0.05-0.01-0.09-0.01c-0.03,0-0.05,0.01-0.06,0.03S17.4,25.38,17.39,25.4L17.39,25.4z M17.62,25.51
				c-0.02,0.01-0.05,0.02-0.09,0.04c-0.04,0.02-0.07,0.03-0.08,0.04c-0.02,0.02-0.03,0.04-0.02,0.06c0,0.02,0.01,0.04,0.03,0.06
				c0.02,0.02,0.04,0.02,0.07,0.02c0.03,0,0.05-0.02,0.08-0.04c0.02-0.02,0.03-0.04,0.03-0.06c0-0.02,0-0.04-0.01-0.08L17.62,25.51
				L17.62,25.51z M18.46,24.75l0.08,0.31c0.03-0.07,0.08-0.12,0.15-0.14c0.03-0.01,0.07-0.01,0.1,0c0.03,0.01,0.06,0.02,0.08,0.04
				c0.02,0.02,0.04,0.04,0.05,0.07c0.01,0.03,0.03,0.07,0.04,0.12l0.09,0.36l-0.15,0.04l-0.08-0.33c-0.02-0.07-0.03-0.11-0.04-0.12
				c-0.01-0.02-0.02-0.03-0.04-0.03c-0.02-0.01-0.04-0.01-0.06,0c-0.03,0.01-0.05,0.02-0.06,0.04c-0.02,0.02-0.03,0.04-0.03,0.07
				s0,0.07,0.02,0.12l0.08,0.31l-0.15,0.04l-0.21-0.86L18.46,24.75L18.46,24.75z M19.68,24.8l-0.14,0.03
				c-0.01-0.06,0-0.12,0.03-0.16c0.03-0.04,0.07-0.08,0.15-0.11c0.07-0.03,0.12-0.04,0.16-0.03s0.07,0.02,0.09,0.04
				c0.02,0.02,0.05,0.06,0.08,0.13l0.07,0.18c0.02,0.05,0.04,0.09,0.05,0.11c0.01,0.02,0.03,0.05,0.06,0.07l-0.14,0.06
				c-0.01-0.01-0.02-0.02-0.03-0.04c-0.01-0.01-0.01-0.01-0.01-0.02c-0.01,0.04-0.03,0.07-0.06,0.09c-0.02,0.03-0.05,0.04-0.08,0.06
				c-0.06,0.02-0.11,0.03-0.15,0c-0.05-0.02-0.08-0.06-0.1-0.11c-0.01-0.03-0.02-0.07-0.01-0.1c0-0.03,0.02-0.06,0.04-0.08
				c0.02-0.03,0.06-0.05,0.1-0.08c0.06-0.04,0.11-0.07,0.13-0.1l-0.01-0.02c-0.01-0.03-0.03-0.05-0.05-0.06s-0.05,0-0.09,0.01
				c-0.03,0.01-0.04,0.02-0.05,0.04C19.68,24.74,19.68,24.76,19.68,24.8L19.68,24.8z M19.93,24.84c-0.02,0.01-0.04,0.03-0.08,0.06
				c-0.04,0.03-0.06,0.05-0.07,0.06c-0.01,0.02-0.02,0.04-0.01,0.07c0.01,0.02,0.02,0.04,0.05,0.05c0.02,0.01,0.04,0.01,0.07,0
				c0.03-0.01,0.05-0.03,0.06-0.06c0.01-0.02,0.02-0.04,0.01-0.07c0-0.02-0.01-0.04-0.03-0.08L19.93,24.84z M20.47,24.21l0.15-0.08
				l0.34,0.33L20.87,24l0.14-0.08l0.1,0.64l0.02,0.12c0.01,0.04,0.01,0.07,0.01,0.09c0,0.02-0.01,0.04-0.02,0.06
				s-0.02,0.04-0.04,0.05c-0.02,0.02-0.04,0.03-0.07,0.05c-0.03,0.01-0.05,0.03-0.08,0.03l-0.08-0.11c0.03-0.01,0.04-0.02,0.06-0.03
				c0.03-0.02,0.05-0.04,0.06-0.07c0-0.03,0-0.06-0.01-0.1L20.47,24.21L20.47,24.21z M22.22,23.92l-0.05-0.08
				c0,0.04-0.01,0.08-0.03,0.11c-0.02,0.03-0.05,0.06-0.08,0.08c-0.03,0.02-0.07,0.03-0.11,0.03c-0.04,0-0.07-0.01-0.1-0.03
				c-0.03-0.02-0.06-0.06-0.09-0.11l-0.22-0.34l0.13-0.08l0.16,0.25c0.05,0.08,0.08,0.12,0.1,0.13c0.02,0.01,0.03,0.02,0.05,0.02
				c0.02,0,0.04,0,0.06-0.02c0.02-0.01,0.04-0.03,0.05-0.06c0.01-0.03,0.01-0.05,0.01-0.07c-0.01-0.02-0.03-0.08-0.08-0.15
				l-0.14-0.23L22,23.3l0.34,0.54L22.22,23.92L22.22,23.92z"/>
		</g>
	</g>
</g>
</svg>
