<svg class="fill-current" width="20" height="20" viewBox="0 0 20 20" fill="none"
    xmlns="http://www.w3.org/2000/svg">
    <path fill-rule="evenodd" clip-rule="evenodd" d="M2.58203 9.99868C2.58174 10.1909 2.6549 10.3833 2.80152 10.53L7.79818 15.5301C8.09097 15.8231 8.56584 15.8233 8.85883 15.5305C9.15183 15.2377 9.152 14.7629 8.85921 14.4699L5.13911 10.7472L16.6665 10.7472C17.0807 10.7472 17.4165 10.4114 17.4165 9.99715C17.4165 9.58294 17.0807 9.24715 16.6665 9.24715L5.14456 9.24715L8.85919 5.53016C9.15199 5.23717 9.15184 4.7623 8.85885 4.4695C8.56587 4.1767 8.09099 4.17685 7.79819 4.46984L2.84069 9.43049C2.68224 9.568 2.58203 9.77087 2.58203 9.99715C2.58203 9.99766 2.58203 9.99817 2.58203 9.99868Z" fill=""></path>
</svg>