<svg class="fill-current" width="20" height="20" viewBox="0 0 20 20" fill="none"
  xmlns="http://www.w3.org/2000/svg">
  <path fill-rule="evenodd" clip-rule="evenodd" d="M17.4165 9.9986C17.4168 10.1909 17.3437 10.3832 17.197 10.53L12.2004 15.5301C11.9076 15.8231 11.4327 15.8233 11.1397 15.5305C10.8467 15.2377 10.8465 14.7629 11.1393 14.4699L14.8594 10.7472L3.33203 10.7472C2.91782 10.7472 2.58203 10.4114 2.58203 9.99715C2.58203 9.58294 2.91782 9.24715 3.33203 9.24715L14.854 9.24715L11.1393 5.53016C10.8465 5.23717 10.8467 4.7623 11.1397 4.4695C11.4327 4.1767 11.9075 4.17685 12.2003 4.46984L17.1578 9.43049C17.3163 9.568 17.4165 9.77087 17.4165 9.99715C17.4165 9.99763 17.4165 9.99812 17.4165 9.9986Z" fill=""></path>
</svg>